<mxfile host="Electron" modified="2024-02-01T18:18:04.350Z" agent="Mozilla/5.0 (Windows NT 10.0; Win64; x64) AppleWebKit/537.36 (KHTML, like Gecko) draw.io/23.0.2 Chrome/120.0.6099.109 Electron/28.1.0 Safari/537.36" etag="b2m8J59gy3j_avza3FWz" version="23.0.2" type="device" pages="5">
  <diagram name="Page-1" id="4l_1mA_5cx2hDEZCY7Ug">
    <mxGraphModel dx="1050" dy="621" grid="1" gridSize="10" guides="1" tooltips="1" connect="1" arrows="1" fold="1" page="1" pageScale="1" pageWidth="850" pageHeight="1100" math="1" shadow="0">
      <root>
        <mxCell id="0" />
        <mxCell id="1" parent="0" />
        <mxCell id="ZcIY2EhZ8-uhHCD0QohR-1" value="x" style="text;html=1;align=center;verticalAlign=middle;resizable=0;points=[];autosize=1;strokeColor=none;fillColor=none;fontSize=400;fontColor=#000066;" parent="1" vertex="1">
          <mxGeometry x="270" y="100" width="220" height="490" as="geometry" />
        </mxCell>
        <mxCell id="ZcIY2EhZ8-uhHCD0QohR-2" value="" style="ellipse;whiteSpace=wrap;html=1;aspect=fixed;fillColor=#000066;" parent="1" vertex="1">
          <mxGeometry x="218" y="160" width="80" height="80" as="geometry" />
        </mxCell>
        <mxCell id="ZcIY2EhZ8-uhHCD0QohR-3" value="" style="ellipse;whiteSpace=wrap;html=1;aspect=fixed;fillColor=#000066;" parent="1" vertex="1">
          <mxGeometry x="477" y="160" width="80" height="80" as="geometry" />
        </mxCell>
        <mxCell id="ZcIY2EhZ8-uhHCD0QohR-4" value="" style="ellipse;whiteSpace=wrap;html=1;aspect=fixed;fillColor=#000066;" parent="1" vertex="1">
          <mxGeometry x="477" y="520" width="80" height="80" as="geometry" />
        </mxCell>
        <mxCell id="ZcIY2EhZ8-uhHCD0QohR-5" value="" style="ellipse;whiteSpace=wrap;html=1;aspect=fixed;fillColor=#000066;" parent="1" vertex="1">
          <mxGeometry x="218" y="520" width="80" height="80" as="geometry" />
        </mxCell>
        <mxCell id="ZcIY2EhZ8-uhHCD0QohR-7" value="" style="curved=1;endArrow=async;html=1;rounded=0;strokeWidth=11;endFill=1;fontColor=#000066;strokeColor=#000066;" parent="1" edge="1">
          <mxGeometry width="50" height="50" relative="1" as="geometry">
            <mxPoint x="218" y="636" as="sourcePoint" />
            <mxPoint x="208" y="156" as="targetPoint" />
            <Array as="points">
              <mxPoint x="118" y="466" />
              <mxPoint x="98" y="346" />
            </Array>
          </mxGeometry>
        </mxCell>
        <mxCell id="ZcIY2EhZ8-uhHCD0QohR-9" value="" style="curved=1;endArrow=async;html=1;rounded=0;strokeWidth=11;endFill=1;fontColor=#000066;strokeColor=#000066;" parent="1" edge="1">
          <mxGeometry width="50" height="50" relative="1" as="geometry">
            <mxPoint x="554" y="151" as="sourcePoint" />
            <mxPoint x="564" y="631" as="targetPoint" />
            <Array as="points">
              <mxPoint x="654" y="321" />
              <mxPoint x="674" y="441" />
            </Array>
          </mxGeometry>
        </mxCell>
      </root>
    </mxGraphModel>
  </diagram>
  <diagram id="tV2TTrwRDTrcdjaUoO30" name="MatchCake">
    <mxGraphModel dx="1000" dy="591" grid="1" gridSize="10" guides="1" tooltips="1" connect="1" arrows="1" fold="1" page="1" pageScale="1" pageWidth="850" pageHeight="1100" math="0" shadow="0">
      <root>
        <mxCell id="0" />
        <mxCell id="1" parent="0" />
        <mxCell id="D-IpPesiXdzC2x0YU6nD-6" value="" style="curved=1;endArrow=async;html=1;rounded=0;strokeWidth=11;endFill=1;fontColor=#000066;strokeColor=#000000;" edge="1" parent="1">
          <mxGeometry width="50" height="50" relative="1" as="geometry">
            <mxPoint x="218" y="636" as="sourcePoint" />
            <mxPoint x="208" y="156" as="targetPoint" />
            <Array as="points">
              <mxPoint x="118" y="466" />
              <mxPoint x="98" y="346" />
            </Array>
          </mxGeometry>
        </mxCell>
        <mxCell id="D-IpPesiXdzC2x0YU6nD-7" value="" style="curved=1;endArrow=async;html=1;rounded=0;strokeWidth=11;endFill=1;fontColor=#000066;strokeColor=#000000;" edge="1" parent="1">
          <mxGeometry width="50" height="50" relative="1" as="geometry">
            <mxPoint x="554" y="151" as="sourcePoint" />
            <mxPoint x="564" y="631" as="targetPoint" />
            <Array as="points">
              <mxPoint x="654" y="321" />
              <mxPoint x="674" y="441" />
            </Array>
          </mxGeometry>
        </mxCell>
        <mxCell id="D-IpPesiXdzC2x0YU6nD-8" value="" style="shape=image;verticalLabelPosition=bottom;labelBackgroundColor=default;verticalAlign=top;aspect=fixed;imageAspect=0;image=data:image/svg+xml,PHN2ZyB4bWxucz0iaHR0cDovL3d3dy53My5vcmcvMjAwMC9zdmciIHk9IjBweCIgeD0iMHB4IiBwcmVzZXJ2ZUFzcGVjdFJhdGlvPSJ4TWlkWU1pZCBtZWV0IiB2aWV3Qm94PSItMC44MDAwMDAwMTE5MjA5MjkgMjMxLjA2MTExMTQ1MDE5NTMgMTMyNi4yMDY1NDI5Njg3NSAxNzg5LjczODg5MTYwMTU2MjUiIHZlcnNpb249IjEuMCIgd2lkdGg9IjEzMjYuMjA2NTQyOTY4NzUiIGhlaWdodD0iMTc4OS43Mzg4OTE2MDE1NjI1Ij48ZyBzdHJva2U9Im5vbmUiIGZpbGw9IiMwMDAwMDAiIHRyYW5zZm9ybT0idHJhbnNsYXRlKDAuMDAwMDAwLDIwMDAuMDAwMDAwKSBzY2FsZSgwLjEwMDAwMCwtMC4xMDAwMDApIj48cGF0aCBkPSJNOTc4MSAxNzY2OCBjLTMwIC0xNSAtNjQgLTQ3IC0xMDcgLTEwMiAtMzUgLTQ0IC02NCAtODYgLTY0IC05MyAwIC03IC04IC0xNyAtMTkgLTIyIC0xMCAtNiAtMjQgLTIzIC0zMiAtMzggLTggLTE1IC01MSAtODIgLTk3IC0xNDggLTExOCAtMTcyIC0yMjIgLTMzMyAtMjIyIC0zNDQgMCAtNSAtMyAtMTEgLTcgLTEzIC01IC0xIC0xNyAtMTkgLTI3IC0zOCAtMTEgLTE5IC0zOSAtNjUgLTYzIC0xMDIgLTI0IC0zNyAtNDMgLTcxIC00MyAtNzYgMCAtNCAtMTQgLTMwIC0zMSAtNTYgLTQ4IC03NyAtMjM5IC00NTcgLTIzOSAtNDc3IDAgLTUgLTEzIC0zNiAtMjkgLTY4IC0xNSAtMzIgLTQzIC0xMDcgLTYwIC0xNjcgLTE3IC02MCAtMzYgLTExNyAtNDEgLTEyNiAtMTkgLTMzIC00MSAtMjExIC00MSAtMzI1IDAgLTExOSAxNyAtMjE0IDUxIC0yODggMTAgLTIyIDMwIC02NSA0MyAtOTUgNTQgLTEyMCAyNjAgLTMzMCAzODYgLTM5NCAyOCAtMTQgNzAgLTM2IDk0IC01MCAyMyAtMTQgNjUgLTMyIDkyIC00MSAyOCAtMTAgNjggLTI1IDkwIC0zNSAyMiAtMTAgODQgLTI2IDEzNyAtMzYgbDk4IC0xOSAwIC0yMjcgMCAtMjI4IC01NSAwIGMtMzAgMCAtNTUgLTQgLTU1IC0xMCAwIC01IC0yNCAtMTAgLTUyIC0xMCAtMTE4IDAgLTU5MCAtNjIgLTYxMyAtODAgLTUgLTQgLTI4IC0xMSAtNTAgLTE0IC03NCAtMTMgLTI5MCAtNjcgLTMwMCAtNzYgLTUgLTQgLTU2IC0yMiAtMTEyIC0zOCAtNTYgLTE3IC0xMTIgLTM4IC0xMjUgLTQ2IC0zOCAtMjUgLTE1OSAtNjMgLTIzNSAtNzUgLTM3IC01IC0xNDcgLTEzIC0yNDMgLTE2IC0zMTEgLTExIC01MDMgLTQ1IC02ODUgLTEyMCAtMjk0IC0xMjAgLTU1OSAtMzY2IC03MDMgLTY1MCAtMjE5IC00MzYgLTI0NiAtOTk4IC02NiAtMTM1OCAxNDAgLTI3OCA0MzMgLTUxMyA2OTggLTU1OSAzMyAtNiA2NiAtMTYgNzMgLTIyIDYgLTYgMjYgLTU2IDQ1IC0xMTEgbDMzIC0xMDAgMyAtMzA3OSBjMSAtMjE2MCAtMSAtMzA4MiAtOCAtMzA5MSAtNiAtOCAtNyAtMTYgLTIgLTE5IDUgLTMgMTIgLTQ1IDE1IC05MyA5IC0xMjYgMzkgLTIyOSAxMDUgLTM1MSA0OCAtOTAgNzMgLTEyMyAxNTcgLTIwNyA4NCAtODQgMTE3IC0xMDkgMjA3IC0xNTcgMTI0IC02NyAyMjYgLTk3IDM1NiAtMTA1IDU0IC00IDkyIC0xMCA5MiAtMTYgMCAtNyA1IC02IDEyIDEgOSA5IDQyNCAxMiAxODA4IDEyIDEyMzAgMCAxODE1IDMgMTg1NiAxMSAxMzQgMjQgMjY5IDgzIDM2NiAxNjAgMjAgMTYgNDAgMjkgNDUgMjkgMTAgMCAxMzMgMTI0IDEzMyAxMzQgMCA0IDE4IDMwIDM5IDU5IDM5IDUyIDEwOSAxOTAgMTI5IDI1NyAzMSAxMDAgMzIgMTc3IDMyIDIwOTIgbDAgMTkzOCAyNyA2IGMxNjIgMzUgMjg1IDEyMyAzODAgMjcxIDE0NSAyMjggMTgyIDU2MiAxMzkgMTI2MyAtMjcgNDQ2IC0zOCA4NDkgLTMzIDExOTUgNiAzOTAgMTAgNDE2IDEyMiA4MTAgNjAgMjEyIDcwIDI3NiA2OSA0NDAgMCAxMzYgLTMgMTU4IC0yNyAyMzIgLTU0IDE2MiAtMTM3IDMxOSAtMjE0IDQwNCAtNzQgODIgLTIxMSAxNTAgLTQ3MCAyMzUgLTcyIDIzIC0xNjQgNjIgLTIwNSA4NSAtNDAgMjMgLTk5IDU3IC0xMzEgNzUgLTMxIDE4IC03OSA1MSAtMTA1IDc0IC0yNyAyMiAtNTIgNDAgLTU2IDQwIC01IDAgLTI1IDEzIC00NSAyOSAtODkgNzAgLTMxMyAxOTEgLTQ1NiAyNDYgLTM4IDE1IC04MSAzMyAtOTUgNDAgLTE0IDcgLTY1IDI1IC0xMTUgNDAgLTQ5IDE1IC05NCAzMSAtMTAwIDM1IC05IDggLTIxNCA1OSAtMjk1IDc1IC0xOSAzIC00NCAxMCAtNTUgMTUgLTQzIDE5IC0zODEgNjYgLTU1NCA3NiAtNjEgNCAtMTE0IDExIC0xMTcgMTYgLTMgNCAtMzAgOCAtNjAgOCBsLTU0IDAgMCAyMzAgMCAyMzAgMjYgMCBjMzIgMCAyMDcgNDAgMjE0IDQ5IDMgMyAzNyAxNyA3NSAzMCAzOSAxMyAxMDUgNDMgMTQ3IDY3IDQyIDI0IDgyIDQ0IDg3IDQ0IDYgMCAxNiA5IDIzIDIwIDcgMTEgMTggMjAgMjQgMjAgMzAgMCAyNjQgMjMzIDI2NCAyNjMgMCAzIDE2IDMyIDM1IDY0IDIwIDMyIDQ1IDkwIDU3IDEyOCAxMSAzOSAyNSA3NSAyOSA4MSAyNSAzMSAyNSAzNTYgMCA0MDkgLTUgMTEgLTIxIDY4IC0zNSAxMjggLTE0IDU5IC0zNCAxMjYgLTQ1IDE1MCAtMTAgMjMgLTIyIDUzIC0yNiA2NyAtMTAgMzMgLTUwIDEzMCAtODUgMjA1IC0xNSAzMyAtMzcgODAgLTQ4IDEwNSAtMjggNjEgLTEzMiAyNTMgLTE3MSAzMTUgLTE3IDI4IC0zNiA2MSAtNDMgNzUgLTcgMTQgLTM4IDY2IC03MCAxMTcgLTMyIDUxIC01OCA5NSAtNTggOTkgMCAzIC0zOCA2MiAtODUgMTMwIC00NyA2OCAtODUgMTI2IC04NSAxMzAgMCAzIC0zNyA1NyAtODIgMTIwIC00NiA2MyAtOTMgMTMxIC0xMDUgMTUxIC0xMiAyMCAtMjggNDAgLTM3IDQ1IC05IDUgLTE2IDE1IC0xNiAyMyAwIDI2IC05NSAxMTMgLTEzNiAxMjQgLTYxIDE3IC0xMjUgMTMgLTE3MyAtMTF6IG0xNDYgLTY1MSBjODMgLTEyMSAyMjMgLTMzNiAyMjMgLTM0MiAwIC0zIDIwIC0zNiA0NCAtNzMgMjQgLTM3IDUyIC04NCA2MiAtMTA0IDExIC0yMCAzOCAtNzAgNjIgLTExMSAyMyAtNDEgNDIgLTc5IDQyIC04NSAwIC02IDQgLTEyIDggLTE0IDUgLTEgMjYgLTQxIDQ3IC04OCAyMiAtNDcgNDMgLTg3IDQ2IC05MCA0IC0zIDI0IC00NSA0NCAtOTUgMjAgLTQ5IDQ1IC0xMDggNTUgLTEzMCAxMCAtMjIgMjggLTc2IDQwIC0xMjAgMTIgLTQ0IDI2IC04NyAzMCAtOTYgMTUgLTI5IDMzIC0xODAgMjcgLTIyOSAtMyAtMjcgLTE1IC02OSAtMjYgLTk0IC0xMiAtMjUgLTIxIC00OCAtMjEgLTUyIDAgLTE5IC04MSAtMTEyIC0xMzkgLTE1OCAtOTggLTc4IC0yODggLTE2NiAtMzU5IC0xNjYgLTcgMCAtMTIgNzYgLTE0IDIxOCAtMyAyMDggLTQgMjE5IC0yOCAyNjcgLTE0IDI3IC0zNCA1NCAtNDYgNjAgLTExIDYgLTI4IDE4IC0zNyAyNyAtMjEgMjAgLTkzIDMyIC0xNDkgMjUgLTU0IC03IC0xMTYgLTUzIC0xNTMgLTExMyBsLTMwIC00OSAtMyAtMjE3IGMtMiAtMTIwIC03IC0yMTggLTExIC0yMTggLTE5IDAgLTEyNyAzMiAtMTUwIDQ1IC0xNCA3IC01MCAyNSAtODAgNDAgLTc2IDM2IC0xNzMgMTE2IC0yMjggMTg4IC01MSA2NiAtODMgMTU4IC04MyAyMzcgMCA1OSAyOCAyMTcgNDUgMjU1IDcgMTcgMjUgNjYgMzkgMTEwIDMxIDkzIDUzIDE0MiAxNTcgMzQ5IDEwNyAyMTMgMTQzIDI3OSAxNjYgMzEyIDExIDE2IDMzIDUzIDQ4IDgyIDE1IDI4IDMxIDUyIDM2IDUyIDUgMCA5IDYgOSAxNCAwIDcgMjkgNTcgNjUgMTEwIDM2IDUzIDY1IDk5IDY1IDEwMiAwIDkgMTQ0IDIxNCAxNTAgMjEzIDMgMCAyNCAtMjggNDcgLTYyeiBtLTI3NSAtMzc4NCBsMyAtMzc4IDMwIC00OSBjMTcgLTI2IDUwIC02MiA3NCAtODAgMzkgLTI4IDQ5IC0zMSAxMjEgLTMxIDcxIDAgODIgMyAxMjIgMzEgMjYgMTkgNTMgNTAgNjggODAgbDI1IDQ5IDUgMzc1IDUgMzc1IDcwIDMgYzM4IDIgNzkgLTEgOTAgLTYgMTEgLTYgNzYgLTE1IDE0NSAtMjEgMTU1IC0xNCA0NDQgLTYxIDQ0OCAtNzIgMiAtNSAxMSAtOSAyMCAtOSAyNiAwIDI1MyAtNjAgMjg3IC03NSAxNiAtOCAxMDMgLTM5IDE5MyAtNjkgODkgLTMwIDE5MCAtNzEgMjI1IC05MCAzNCAtMTkgOTggLTQ4IDE0MiAtNjYgNDQgLTE3IDExMiAtNTMgMTUwIC04MCA3NyAtNTQgMjc1IC0xNzUgMzQ0IC0yMTAgMjUgLTEyIDEyMiAtNDkgMjE3IC04MSAyNjggLTkwIDMwMSAtMTEzIDM2MiAtMjQyIDg5IC0xODggOTMgLTI2OSAyNiAtNTIyIC0xNTcgLTU5OCAtMTQ5IC01MzUgLTE0OCAtMTE1NSAxIC0zNTkgNyAtNjA5IDIyIC05MTIgMzQgLTY0OCAyOCAtOTAwIC0yNCAtMTA1OCAtNDYgLTEzOCAtMTA3IC0yMDAgLTE5OCAtMjAwIGwtNTIgMCAtMzYgNjMgYy0xMTAgMTkwIC0xNjcgMzQ5IC0xODggNTI0IC0xMyAxMDUgLTcgMzUzIDI3IDEwOTAgMTggNDAxIDE0IDQ3NyAtMzIgNjM4IC02MiAyMTIgLTE2NSAzMzkgLTMxNCAzODUgLTE0NiA0NiAtMjgxIDEyIC00ODEgLTEyMiAtMTY4IC0xMTMgLTI3MiAtMTk4IC00MDMgLTMzMiAtMjEwIC0yMTMgLTIzNCAtMjUwIC0zNDggLTUyMCAtMzMgLTc3IC03NSAtMTY1IC05NCAtMTk0IC0zOSAtNTggLTEwNiAtMTEyIC0xNDAgLTExMiAtNjAgMCAtMjAwIDEzNSAtMzAzIDI5NSAtMTI5IDE5NyAtMjAyIDI2MCAtMzM5IDI5MSAtMTc3IDM5IC0zNDUgLTE3IC01MDEgLTE2OSAtMTcxIC0xNjYgLTIzNyAtMzMyIC0zMjcgLTgyMCAtNTQgLTI5MiAtMTQzIC00MDEgLTI3OCAtMzQzIC04MSAzNCAtMTMzIDEyOSAtMTc5IDMyNCAtMTQ3IDYxOCAtMTk1IDc0MCAtMzc3IDk2OSAtMTg5IDIzNiAtMzk2IDM4OSAtNzcwIDU2NSAtMjQzIDExNSAtMzg2IDE5MSAtNDQzIDIzNSAtMTA4IDg2IC0xODcgMTk4IC0yMzMgMzM1IC0yNCA3MiAtMjkgMTAzIC0zMyAyMzAgLTkgMjgzIDQ0IDUxMyAxNjkgNzM1IDYwIDEwNiAyMzMgMjc5IDM0NSAzNDYgMTAxIDYwIDI1OCAxMTQgMzgzIDEzMiAxNjAgMjIgNDA1IDI4IDQ4NiAxMCA5OCAtMjEgMjMzIC0xOSAzMzAgNCAxMTYgMjggMzkzIDEyNSA2MTAgMjE0IDYzIDI2IDI4MCA2MiA0NDQgNzQgNTEgMyA5NCAxMCA5NyAxNSAzIDQgMzggOCA3OSA4IGw3NCAwIDMgLTM3N3ogbTIxMjcgLTIxODkgYzExIC0xNCAyOCAtNDkgMzggLTc3IDIzIC02NyAyNCAtMzM2IDMgLTkzNyAtMjUgLTcxMSAtMTkgLTgxMyA2MiAtMTA2MCA0MSAtMTIxIDEyNiAtMzAxIDE5NCAtNDA4IGwzNCAtNTMgLTIgLTIwMTcgLTMgLTIwMTcgLTIxIC01MSBjLTEyIC0yOSAtMzMgLTY3IC00OCAtODYgLTE0IC0xOSAtMjYgLTQwIC0yNiAtNDUgMCAtMTAgLTE4IC0yNyAtOTcgLTkyIC0zOSAtMzMgLTEyNSAtNzEgLTE3NSAtNzcgLTI3IC00IC01MSAtMTEgLTU0IC0xNSAtOCAtMTMgLTM2MDEgLTEyIC0zNjA5IDEgLTMgNiAtMTkgMTAgLTM1IDEwIC04NCAwIC0yMTkgODEgLTI5NCAxNzYgLTQzIDU1IC04NiAxNTggLTg2IDIwNSAwIDE0IC01IDMwIC0xMCAzNSAtMTMgMTMgLTkgNjEwOCAzIDYxMjEgMjEgMjAgMTg1IC0yMDQgMjYwIC0zNTIgNTEgLTEwMyAxMDUgLTI2NSAxMzcgLTQxMCA3OCAtMzY1IDEzNyAtNTM0IDIyOSAtNjU1IDExMCAtMTQ2IDI3NiAtMjMwIDQ1MSAtMjMwIDE0OSAxIDI1NSA0NSAzNjUgMTU0IDEzOSAxMzggMTg0IDI1NCAyNjUgNjgxIDIzIDEyMyA3MiAyOTAgMTAxIDM0OCA0MSA3OSAxNTQgMTc3IDIwNSAxNzcgMjUgMCA2MyAtNDAgMTE0IC0xMjAgMTUyIC0yNDMgMzU2IC00MjEgNTMwIC00NjYgMjA1IC01MiA0MzEgNTkgNTczIDI4MSAyNCAzOSA1NCA4OCA2NSAxMTAgMTEgMjIgMzggNTkgNjAgODMgNDYgNTAgOTUgMTM4IDExMiAyMDIgMzIgMTI2IDIxNCAzMzQgNDE3IDQ3OSA5NCA2NyAxOTkgMTMwIDIxNSAxMzEgNCAwIDE2IC0xMiAyNyAtMjZ6Ii8+PHBhdGggZD0iTTgwOTIgMTI2NjAgYy0xNDAgLTYzIC0xNzcgLTE2MyAtMTMwIC0zNjAgOSAtMzkgNjIgLTE0NCAxMDEgLTIwMyAxNSAtMjMgMTc1IC0xODcgMTgyIC0xODcgMyAwIDMwIC0xOCA2MCAtNDAgNjggLTUwIDI0OCAtMTQ0IDM0MCAtMTc3IDM5IC0xNCA3NSAtMjkgODAgLTMzIDYgLTUgNjQgLTIzIDEzMCAtNDAgNjYgLTE3IDEyOSAtMzUgMTQwIC00MSAzNCAtMTYgMzA1IC01OCA0NTIgLTcwIDc2IC02IDE0NiAtMTUgMTU1IC0yMCAyNSAtMTMgNTM1IC0xMiA1NDMgMSAzIDYgMzAgMTAgNTggMTAgMTA4IDAgNTE1IDU4IDU1NSA4MCAxNSA3IDE3OSA1MiAyNTAgNjcgMTIgMyAyMiA5IDIyIDEzIDAgNCAxMCAxMCAyMyAxMyA5MyAyMSAzMTUgMTMzIDQyMiAyMTIgMTE4IDg4IDI4NSAyNzkgMjg1IDMyNyAwIDUgOSAyOCAyMSA1MSAyOSA2MCA0NSAxOTAgMzAgMjQ1IC0xNiA1OSAtMTAxIDE0NiAtMTU2IDE2MSAtNTMgMTQgLTc2IDE0IC0xMjggLTQgLTg3IC0yOSAtMTU3IC0xMjUgLTE1NyAtMjE2IDAgLTQzIC0yMSAtNzYgLTg3IC0xNDAgLTcxIC02OSAtMTY0IC0xMzIgLTIzNSAtMTYwIC0yOSAtMTEgLTYyIC0yNiAtNzMgLTMzIC0yNCAtMTUgLTE3NCAtNjYgLTE5NSAtNjYgLTggMCAtMjggLTcgLTQzIC0xNSAtMzkgLTIwIC0yNTUgLTYwIC00MDIgLTc1IC02NiAtNyAtMTMxIC0xNyAtMTQzIC0yMyAtMTYgLTggLTEyMSAtMTEgLTMxMiAtMTEgLTE5MSAwIC0yOTYgMyAtMzEyIDExIC0xMiA2IC03NyAxNiAtMTQzIDIzIC02NiA2IC0xNDAgMTUgLTE2NSAyMCAtMjUgNSAtODIgMTYgLTEyNyAyNSAtNDQgOCAtOTQgMjIgLTExMCAzMCAtMTUgOCAtMzUgMTUgLTQzIDE1IC0yMSAwIC0xNzIgNTAgLTE4NiA2MSAtNyA1IC0zOSAyMCAtNzIgMzMgLTMzIDEzIC04NyA0MiAtMTIwIDY1IC0zNCAyMiAtNjMgNDEgLTY2IDQxIC00IDAgLTMyIDI2IC02MyA1OCAtNjIgNjEgLTgzIDk3IC04MyAxNDAgMCA1OCAtMjIgMTA0IC03MyAxNTcgLTc0IDc1IC0xNDEgOTIgLTIyNSA1NXoiLz48cGF0aCBkPSJNMTA4NDIgOTQxOCBjLTUgLTcgLTE1IC00OSAtMjIgLTkzIC0zMyAtMjI2IC0xMDUgLTUwMiAtMTk1IC03NTAgLTE2MSAtNDQxIC0yNjAgLTY4NSAtMzcxIC05MDcgLTE5MSAtMzgzIC0yNTQgLTU3NiAtMjU0IC03ODIgMSAtMzIxIDE4MyAtNTYwIDQ4NCAtNjM2IDk5IC0yNSAyNzUgLTI3IDM3OSAtNCAyNTAgNTUgNDUxIDI0NSA2MTggNTg0IDEyMyAyNTAgMTc3IDQ2MyAxODYgNzM2IDggMjYxIC0xNCA0MTggLTk0IDY1OSAtOTEgMjc0IC0xNzcgNDQzIC0zODMgNzUxIC0xMTkgMTc4IC0zMjMgNDU0IC0zMzYgNDU0IC0xIDAgLTYgLTYgLTEyIC0xMnogbTI5NyAtMTE0MyBjMTEwIC0yNzYgMTQxIC00MTggMTQxIC02NDUgMCAtMjE0IC0zNiAtMzgyIC0xMjUgLTU3OSAtODcgLTE5NCAtMTg3IC0zMjkgLTI5MCAtMzkxIC01NCAtMzIgLTY2IC0zNSAtMTU0IC0zOCAtMTEwIC01IC0xNTcgNSAtMjIyIDQ3IC03MCA0NCAtOTQgMTAwIC05MyAyMjEgMSAxNDcgMjggMjMzIDE2NyA1MjAgMTY2IDM0NCAyMjEgNDc2IDM5MyA5NDggMjUgNjcgNDkgMTM1IDU1IDE1MCBsMTEgMjcgMjggLTU1IGMxNiAtMzAgNTYgLTEyMiA4OSAtMjA1eiIvPjwvZz48dGV4dCBmb250LWZhbWlseT0iJ0hlbHZldGljYSBOZXVlJywgSGVsdmV0aWNhLCBBcmlhbC1Vbmljb2RlLCBBcmlhbCwgU2Fucy1zZXJpZiIgZm9udC13ZWlnaHQ9ImJvbGQiIGZvbnQtc2l6ZT0iNXB4IiBmaWxsPSIjMDAwMDAwIiB5PSIyMDE1IiB4PSIwIj5DcmVhdGVkIGJ5IOyjvO2YhCDrsJU8L3RleHQ+PHRleHQgZm9udC1mYW1pbHk9IidIZWx2ZXRpY2EgTmV1ZScsIEhlbHZldGljYSwgQXJpYWwtVW5pY29kZSwgQXJpYWwsIFNhbnMtc2VyaWYiIGZvbnQtd2VpZ2h0PSJib2xkIiBmb250LXNpemU9IjVweCIgZmlsbD0iIzAwMDAwMCIgeT0iMjAyMCIgeD0iMCI+ZnJvbSB0aGUgTm91biBQcm9qZWN0PC90ZXh0Pjwvc3ZnPg==;clipPath=inset(0% 0% 19.33% 45.5%);fillColor=#000066;imageBackground=none;imageBorder=none;" vertex="1" parent="1">
          <mxGeometry x="210" y="160" width="65" height="130" as="geometry" />
        </mxCell>
        <mxCell id="D-IpPesiXdzC2x0YU6nD-9" value="" style="shape=image;verticalLabelPosition=bottom;labelBackgroundColor=default;verticalAlign=top;aspect=fixed;imageAspect=0;image=data:image/svg+xml,PHN2ZyB4bWxucz0iaHR0cDovL3d3dy53My5vcmcvMjAwMC9zdmciIHk9IjBweCIgeD0iMHB4IiBwcmVzZXJ2ZUFzcGVjdFJhdGlvPSJ4TWlkWU1pZCBtZWV0IiB2aWV3Qm94PSItMC44MDAwMDAwMTE5MjA5MjkgMjMxLjA2MTExMTQ1MDE5NTMgMTMyNi4yMDY1NDI5Njg3NSAxNzg5LjczODg5MTYwMTU2MjUiIHZlcnNpb249IjEuMCIgd2lkdGg9IjEzMjYuMjA2NTQyOTY4NzUiIGhlaWdodD0iMTc4OS43Mzg4OTE2MDE1NjI1Ij48ZyBzdHJva2U9Im5vbmUiIGZpbGw9IiMwMDAwMDAiIHRyYW5zZm9ybT0idHJhbnNsYXRlKDAuMDAwMDAwLDIwMDAuMDAwMDAwKSBzY2FsZSgwLjEwMDAwMCwtMC4xMDAwMDApIj48cGF0aCBkPSJNOTc4MSAxNzY2OCBjLTMwIC0xNSAtNjQgLTQ3IC0xMDcgLTEwMiAtMzUgLTQ0IC02NCAtODYgLTY0IC05MyAwIC03IC04IC0xNyAtMTkgLTIyIC0xMCAtNiAtMjQgLTIzIC0zMiAtMzggLTggLTE1IC01MSAtODIgLTk3IC0xNDggLTExOCAtMTcyIC0yMjIgLTMzMyAtMjIyIC0zNDQgMCAtNSAtMyAtMTEgLTcgLTEzIC01IC0xIC0xNyAtMTkgLTI3IC0zOCAtMTEgLTE5IC0zOSAtNjUgLTYzIC0xMDIgLTI0IC0zNyAtNDMgLTcxIC00MyAtNzYgMCAtNCAtMTQgLTMwIC0zMSAtNTYgLTQ4IC03NyAtMjM5IC00NTcgLTIzOSAtNDc3IDAgLTUgLTEzIC0zNiAtMjkgLTY4IC0xNSAtMzIgLTQzIC0xMDcgLTYwIC0xNjcgLTE3IC02MCAtMzYgLTExNyAtNDEgLTEyNiAtMTkgLTMzIC00MSAtMjExIC00MSAtMzI1IDAgLTExOSAxNyAtMjE0IDUxIC0yODggMTAgLTIyIDMwIC02NSA0MyAtOTUgNTQgLTEyMCAyNjAgLTMzMCAzODYgLTM5NCAyOCAtMTQgNzAgLTM2IDk0IC01MCAyMyAtMTQgNjUgLTMyIDkyIC00MSAyOCAtMTAgNjggLTI1IDkwIC0zNSAyMiAtMTAgODQgLTI2IDEzNyAtMzYgbDk4IC0xOSAwIC0yMjcgMCAtMjI4IC01NSAwIGMtMzAgMCAtNTUgLTQgLTU1IC0xMCAwIC01IC0yNCAtMTAgLTUyIC0xMCAtMTE4IDAgLTU5MCAtNjIgLTYxMyAtODAgLTUgLTQgLTI4IC0xMSAtNTAgLTE0IC03NCAtMTMgLTI5MCAtNjcgLTMwMCAtNzYgLTUgLTQgLTU2IC0yMiAtMTEyIC0zOCAtNTYgLTE3IC0xMTIgLTM4IC0xMjUgLTQ2IC0zOCAtMjUgLTE1OSAtNjMgLTIzNSAtNzUgLTM3IC01IC0xNDcgLTEzIC0yNDMgLTE2IC0zMTEgLTExIC01MDMgLTQ1IC02ODUgLTEyMCAtMjk0IC0xMjAgLTU1OSAtMzY2IC03MDMgLTY1MCAtMjE5IC00MzYgLTI0NiAtOTk4IC02NiAtMTM1OCAxNDAgLTI3OCA0MzMgLTUxMyA2OTggLTU1OSAzMyAtNiA2NiAtMTYgNzMgLTIyIDYgLTYgMjYgLTU2IDQ1IC0xMTEgbDMzIC0xMDAgMyAtMzA3OSBjMSAtMjE2MCAtMSAtMzA4MiAtOCAtMzA5MSAtNiAtOCAtNyAtMTYgLTIgLTE5IDUgLTMgMTIgLTQ1IDE1IC05MyA5IC0xMjYgMzkgLTIyOSAxMDUgLTM1MSA0OCAtOTAgNzMgLTEyMyAxNTcgLTIwNyA4NCAtODQgMTE3IC0xMDkgMjA3IC0xNTcgMTI0IC02NyAyMjYgLTk3IDM1NiAtMTA1IDU0IC00IDkyIC0xMCA5MiAtMTYgMCAtNyA1IC02IDEyIDEgOSA5IDQyNCAxMiAxODA4IDEyIDEyMzAgMCAxODE1IDMgMTg1NiAxMSAxMzQgMjQgMjY5IDgzIDM2NiAxNjAgMjAgMTYgNDAgMjkgNDUgMjkgMTAgMCAxMzMgMTI0IDEzMyAxMzQgMCA0IDE4IDMwIDM5IDU5IDM5IDUyIDEwOSAxOTAgMTI5IDI1NyAzMSAxMDAgMzIgMTc3IDMyIDIwOTIgbDAgMTkzOCAyNyA2IGMxNjIgMzUgMjg1IDEyMyAzODAgMjcxIDE0NSAyMjggMTgyIDU2MiAxMzkgMTI2MyAtMjcgNDQ2IC0zOCA4NDkgLTMzIDExOTUgNiAzOTAgMTAgNDE2IDEyMiA4MTAgNjAgMjEyIDcwIDI3NiA2OSA0NDAgMCAxMzYgLTMgMTU4IC0yNyAyMzIgLTU0IDE2MiAtMTM3IDMxOSAtMjE0IDQwNCAtNzQgODIgLTIxMSAxNTAgLTQ3MCAyMzUgLTcyIDIzIC0xNjQgNjIgLTIwNSA4NSAtNDAgMjMgLTk5IDU3IC0xMzEgNzUgLTMxIDE4IC03OSA1MSAtMTA1IDc0IC0yNyAyMiAtNTIgNDAgLTU2IDQwIC01IDAgLTI1IDEzIC00NSAyOSAtODkgNzAgLTMxMyAxOTEgLTQ1NiAyNDYgLTM4IDE1IC04MSAzMyAtOTUgNDAgLTE0IDcgLTY1IDI1IC0xMTUgNDAgLTQ5IDE1IC05NCAzMSAtMTAwIDM1IC05IDggLTIxNCA1OSAtMjk1IDc1IC0xOSAzIC00NCAxMCAtNTUgMTUgLTQzIDE5IC0zODEgNjYgLTU1NCA3NiAtNjEgNCAtMTE0IDExIC0xMTcgMTYgLTMgNCAtMzAgOCAtNjAgOCBsLTU0IDAgMCAyMzAgMCAyMzAgMjYgMCBjMzIgMCAyMDcgNDAgMjE0IDQ5IDMgMyAzNyAxNyA3NSAzMCAzOSAxMyAxMDUgNDMgMTQ3IDY3IDQyIDI0IDgyIDQ0IDg3IDQ0IDYgMCAxNiA5IDIzIDIwIDcgMTEgMTggMjAgMjQgMjAgMzAgMCAyNjQgMjMzIDI2NCAyNjMgMCAzIDE2IDMyIDM1IDY0IDIwIDMyIDQ1IDkwIDU3IDEyOCAxMSAzOSAyNSA3NSAyOSA4MSAyNSAzMSAyNSAzNTYgMCA0MDkgLTUgMTEgLTIxIDY4IC0zNSAxMjggLTE0IDU5IC0zNCAxMjYgLTQ1IDE1MCAtMTAgMjMgLTIyIDUzIC0yNiA2NyAtMTAgMzMgLTUwIDEzMCAtODUgMjA1IC0xNSAzMyAtMzcgODAgLTQ4IDEwNSAtMjggNjEgLTEzMiAyNTMgLTE3MSAzMTUgLTE3IDI4IC0zNiA2MSAtNDMgNzUgLTcgMTQgLTM4IDY2IC03MCAxMTcgLTMyIDUxIC01OCA5NSAtNTggOTkgMCAzIC0zOCA2MiAtODUgMTMwIC00NyA2OCAtODUgMTI2IC04NSAxMzAgMCAzIC0zNyA1NyAtODIgMTIwIC00NiA2MyAtOTMgMTMxIC0xMDUgMTUxIC0xMiAyMCAtMjggNDAgLTM3IDQ1IC05IDUgLTE2IDE1IC0xNiAyMyAwIDI2IC05NSAxMTMgLTEzNiAxMjQgLTYxIDE3IC0xMjUgMTMgLTE3MyAtMTF6IG0xNDYgLTY1MSBjODMgLTEyMSAyMjMgLTMzNiAyMjMgLTM0MiAwIC0zIDIwIC0zNiA0NCAtNzMgMjQgLTM3IDUyIC04NCA2MiAtMTA0IDExIC0yMCAzOCAtNzAgNjIgLTExMSAyMyAtNDEgNDIgLTc5IDQyIC04NSAwIC02IDQgLTEyIDggLTE0IDUgLTEgMjYgLTQxIDQ3IC04OCAyMiAtNDcgNDMgLTg3IDQ2IC05MCA0IC0zIDI0IC00NSA0NCAtOTUgMjAgLTQ5IDQ1IC0xMDggNTUgLTEzMCAxMCAtMjIgMjggLTc2IDQwIC0xMjAgMTIgLTQ0IDI2IC04NyAzMCAtOTYgMTUgLTI5IDMzIC0xODAgMjcgLTIyOSAtMyAtMjcgLTE1IC02OSAtMjYgLTk0IC0xMiAtMjUgLTIxIC00OCAtMjEgLTUyIDAgLTE5IC04MSAtMTEyIC0xMzkgLTE1OCAtOTggLTc4IC0yODggLTE2NiAtMzU5IC0xNjYgLTcgMCAtMTIgNzYgLTE0IDIxOCAtMyAyMDggLTQgMjE5IC0yOCAyNjcgLTE0IDI3IC0zNCA1NCAtNDYgNjAgLTExIDYgLTI4IDE4IC0zNyAyNyAtMjEgMjAgLTkzIDMyIC0xNDkgMjUgLTU0IC03IC0xMTYgLTUzIC0xNTMgLTExMyBsLTMwIC00OSAtMyAtMjE3IGMtMiAtMTIwIC03IC0yMTggLTExIC0yMTggLTE5IDAgLTEyNyAzMiAtMTUwIDQ1IC0xNCA3IC01MCAyNSAtODAgNDAgLTc2IDM2IC0xNzMgMTE2IC0yMjggMTg4IC01MSA2NiAtODMgMTU4IC04MyAyMzcgMCA1OSAyOCAyMTcgNDUgMjU1IDcgMTcgMjUgNjYgMzkgMTEwIDMxIDkzIDUzIDE0MiAxNTcgMzQ5IDEwNyAyMTMgMTQzIDI3OSAxNjYgMzEyIDExIDE2IDMzIDUzIDQ4IDgyIDE1IDI4IDMxIDUyIDM2IDUyIDUgMCA5IDYgOSAxNCAwIDcgMjkgNTcgNjUgMTEwIDM2IDUzIDY1IDk5IDY1IDEwMiAwIDkgMTQ0IDIxNCAxNTAgMjEzIDMgMCAyNCAtMjggNDcgLTYyeiBtLTI3NSAtMzc4NCBsMyAtMzc4IDMwIC00OSBjMTcgLTI2IDUwIC02MiA3NCAtODAgMzkgLTI4IDQ5IC0zMSAxMjEgLTMxIDcxIDAgODIgMyAxMjIgMzEgMjYgMTkgNTMgNTAgNjggODAgbDI1IDQ5IDUgMzc1IDUgMzc1IDcwIDMgYzM4IDIgNzkgLTEgOTAgLTYgMTEgLTYgNzYgLTE1IDE0NSAtMjEgMTU1IC0xNCA0NDQgLTYxIDQ0OCAtNzIgMiAtNSAxMSAtOSAyMCAtOSAyNiAwIDI1MyAtNjAgMjg3IC03NSAxNiAtOCAxMDMgLTM5IDE5MyAtNjkgODkgLTMwIDE5MCAtNzEgMjI1IC05MCAzNCAtMTkgOTggLTQ4IDE0MiAtNjYgNDQgLTE3IDExMiAtNTMgMTUwIC04MCA3NyAtNTQgMjc1IC0xNzUgMzQ0IC0yMTAgMjUgLTEyIDEyMiAtNDkgMjE3IC04MSAyNjggLTkwIDMwMSAtMTEzIDM2MiAtMjQyIDg5IC0xODggOTMgLTI2OSAyNiAtNTIyIC0xNTcgLTU5OCAtMTQ5IC01MzUgLTE0OCAtMTE1NSAxIC0zNTkgNyAtNjA5IDIyIC05MTIgMzQgLTY0OCAyOCAtOTAwIC0yNCAtMTA1OCAtNDYgLTEzOCAtMTA3IC0yMDAgLTE5OCAtMjAwIGwtNTIgMCAtMzYgNjMgYy0xMTAgMTkwIC0xNjcgMzQ5IC0xODggNTI0IC0xMyAxMDUgLTcgMzUzIDI3IDEwOTAgMTggNDAxIDE0IDQ3NyAtMzIgNjM4IC02MiAyMTIgLTE2NSAzMzkgLTMxNCAzODUgLTE0NiA0NiAtMjgxIDEyIC00ODEgLTEyMiAtMTY4IC0xMTMgLTI3MiAtMTk4IC00MDMgLTMzMiAtMjEwIC0yMTMgLTIzNCAtMjUwIC0zNDggLTUyMCAtMzMgLTc3IC03NSAtMTY1IC05NCAtMTk0IC0zOSAtNTggLTEwNiAtMTEyIC0xNDAgLTExMiAtNjAgMCAtMjAwIDEzNSAtMzAzIDI5NSAtMTI5IDE5NyAtMjAyIDI2MCAtMzM5IDI5MSAtMTc3IDM5IC0zNDUgLTE3IC01MDEgLTE2OSAtMTcxIC0xNjYgLTIzNyAtMzMyIC0zMjcgLTgyMCAtNTQgLTI5MiAtMTQzIC00MDEgLTI3OCAtMzQzIC04MSAzNCAtMTMzIDEyOSAtMTc5IDMyNCAtMTQ3IDYxOCAtMTk1IDc0MCAtMzc3IDk2OSAtMTg5IDIzNiAtMzk2IDM4OSAtNzcwIDU2NSAtMjQzIDExNSAtMzg2IDE5MSAtNDQzIDIzNSAtMTA4IDg2IC0xODcgMTk4IC0yMzMgMzM1IC0yNCA3MiAtMjkgMTAzIC0zMyAyMzAgLTkgMjgzIDQ0IDUxMyAxNjkgNzM1IDYwIDEwNiAyMzMgMjc5IDM0NSAzNDYgMTAxIDYwIDI1OCAxMTQgMzgzIDEzMiAxNjAgMjIgNDA1IDI4IDQ4NiAxMCA5OCAtMjEgMjMzIC0xOSAzMzAgNCAxMTYgMjggMzkzIDEyNSA2MTAgMjE0IDYzIDI2IDI4MCA2MiA0NDQgNzQgNTEgMyA5NCAxMCA5NyAxNSAzIDQgMzggOCA3OSA4IGw3NCAwIDMgLTM3N3ogbTIxMjcgLTIxODkgYzExIC0xNCAyOCAtNDkgMzggLTc3IDIzIC02NyAyNCAtMzM2IDMgLTkzNyAtMjUgLTcxMSAtMTkgLTgxMyA2MiAtMTA2MCA0MSAtMTIxIDEyNiAtMzAxIDE5NCAtNDA4IGwzNCAtNTMgLTIgLTIwMTcgLTMgLTIwMTcgLTIxIC01MSBjLTEyIC0yOSAtMzMgLTY3IC00OCAtODYgLTE0IC0xOSAtMjYgLTQwIC0yNiAtNDUgMCAtMTAgLTE4IC0yNyAtOTcgLTkyIC0zOSAtMzMgLTEyNSAtNzEgLTE3NSAtNzcgLTI3IC00IC01MSAtMTEgLTU0IC0xNSAtOCAtMTMgLTM2MDEgLTEyIC0zNjA5IDEgLTMgNiAtMTkgMTAgLTM1IDEwIC04NCAwIC0yMTkgODEgLTI5NCAxNzYgLTQzIDU1IC04NiAxNTggLTg2IDIwNSAwIDE0IC01IDMwIC0xMCAzNSAtMTMgMTMgLTkgNjEwOCAzIDYxMjEgMjEgMjAgMTg1IC0yMDQgMjYwIC0zNTIgNTEgLTEwMyAxMDUgLTI2NSAxMzcgLTQxMCA3OCAtMzY1IDEzNyAtNTM0IDIyOSAtNjU1IDExMCAtMTQ2IDI3NiAtMjMwIDQ1MSAtMjMwIDE0OSAxIDI1NSA0NSAzNjUgMTU0IDEzOSAxMzggMTg0IDI1NCAyNjUgNjgxIDIzIDEyMyA3MiAyOTAgMTAxIDM0OCA0MSA3OSAxNTQgMTc3IDIwNSAxNzcgMjUgMCA2MyAtNDAgMTE0IC0xMjAgMTUyIC0yNDMgMzU2IC00MjEgNTMwIC00NjYgMjA1IC01MiA0MzEgNTkgNTczIDI4MSAyNCAzOSA1NCA4OCA2NSAxMTAgMTEgMjIgMzggNTkgNjAgODMgNDYgNTAgOTUgMTM4IDExMiAyMDIgMzIgMTI2IDIxNCAzMzQgNDE3IDQ3OSA5NCA2NyAxOTkgMTMwIDIxNSAxMzEgNCAwIDE2IC0xMiAyNyAtMjZ6Ii8+PHBhdGggZD0iTTgwOTIgMTI2NjAgYy0xNDAgLTYzIC0xNzcgLTE2MyAtMTMwIC0zNjAgOSAtMzkgNjIgLTE0NCAxMDEgLTIwMyAxNSAtMjMgMTc1IC0xODcgMTgyIC0xODcgMyAwIDMwIC0xOCA2MCAtNDAgNjggLTUwIDI0OCAtMTQ0IDM0MCAtMTc3IDM5IC0xNCA3NSAtMjkgODAgLTMzIDYgLTUgNjQgLTIzIDEzMCAtNDAgNjYgLTE3IDEyOSAtMzUgMTQwIC00MSAzNCAtMTYgMzA1IC01OCA0NTIgLTcwIDc2IC02IDE0NiAtMTUgMTU1IC0yMCAyNSAtMTMgNTM1IC0xMiA1NDMgMSAzIDYgMzAgMTAgNTggMTAgMTA4IDAgNTE1IDU4IDU1NSA4MCAxNSA3IDE3OSA1MiAyNTAgNjcgMTIgMyAyMiA5IDIyIDEzIDAgNCAxMCAxMCAyMyAxMyA5MyAyMSAzMTUgMTMzIDQyMiAyMTIgMTE4IDg4IDI4NSAyNzkgMjg1IDMyNyAwIDUgOSAyOCAyMSA1MSAyOSA2MCA0NSAxOTAgMzAgMjQ1IC0xNiA1OSAtMTAxIDE0NiAtMTU2IDE2MSAtNTMgMTQgLTc2IDE0IC0xMjggLTQgLTg3IC0yOSAtMTU3IC0xMjUgLTE1NyAtMjE2IDAgLTQzIC0yMSAtNzYgLTg3IC0xNDAgLTcxIC02OSAtMTY0IC0xMzIgLTIzNSAtMTYwIC0yOSAtMTEgLTYyIC0yNiAtNzMgLTMzIC0yNCAtMTUgLTE3NCAtNjYgLTE5NSAtNjYgLTggMCAtMjggLTcgLTQzIC0xNSAtMzkgLTIwIC0yNTUgLTYwIC00MDIgLTc1IC02NiAtNyAtMTMxIC0xNyAtMTQzIC0yMyAtMTYgLTggLTEyMSAtMTEgLTMxMiAtMTEgLTE5MSAwIC0yOTYgMyAtMzEyIDExIC0xMiA2IC03NyAxNiAtMTQzIDIzIC02NiA2IC0xNDAgMTUgLTE2NSAyMCAtMjUgNSAtODIgMTYgLTEyNyAyNSAtNDQgOCAtOTQgMjIgLTExMCAzMCAtMTUgOCAtMzUgMTUgLTQzIDE1IC0yMSAwIC0xNzIgNTAgLTE4NiA2MSAtNyA1IC0zOSAyMCAtNzIgMzMgLTMzIDEzIC04NyA0MiAtMTIwIDY1IC0zNCAyMiAtNjMgNDEgLTY2IDQxIC00IDAgLTMyIDI2IC02MyA1OCAtNjIgNjEgLTgzIDk3IC04MyAxNDAgMCA1OCAtMjIgMTA0IC03MyAxNTcgLTc0IDc1IC0xNDEgOTIgLTIyNSA1NXoiLz48cGF0aCBkPSJNMTA4NDIgOTQxOCBjLTUgLTcgLTE1IC00OSAtMjIgLTkzIC0zMyAtMjI2IC0xMDUgLTUwMiAtMTk1IC03NTAgLTE2MSAtNDQxIC0yNjAgLTY4NSAtMzcxIC05MDcgLTE5MSAtMzgzIC0yNTQgLTU3NiAtMjU0IC03ODIgMSAtMzIxIDE4MyAtNTYwIDQ4NCAtNjM2IDk5IC0yNSAyNzUgLTI3IDM3OSAtNCAyNTAgNTUgNDUxIDI0NSA2MTggNTg0IDEyMyAyNTAgMTc3IDQ2MyAxODYgNzM2IDggMjYxIC0xNCA0MTggLTk0IDY1OSAtOTEgMjc0IC0xNzcgNDQzIC0zODMgNzUxIC0xMTkgMTc4IC0zMjMgNDU0IC0zMzYgNDU0IC0xIDAgLTYgLTYgLTEyIC0xMnogbTI5NyAtMTE0MyBjMTEwIC0yNzYgMTQxIC00MTggMTQxIC02NDUgMCAtMjE0IC0zNiAtMzgyIC0xMjUgLTU3OSAtODcgLTE5NCAtMTg3IC0zMjkgLTI5MCAtMzkxIC01NCAtMzIgLTY2IC0zNSAtMTU0IC0zOCAtMTEwIC01IC0xNTcgNSAtMjIyIDQ3IC03MCA0NCAtOTQgMTAwIC05MyAyMjEgMSAxNDcgMjggMjMzIDE2NyA1MjAgMTY2IDM0NCAyMjEgNDc2IDM5MyA5NDggMjUgNjcgNDkgMTM1IDU1IDE1MCBsMTEgMjcgMjggLTU1IGMxNiAtMzAgNTYgLTEyMiA4OSAtMjA1eiIvPjwvZz48dGV4dCBmb250LWZhbWlseT0iJ0hlbHZldGljYSBOZXVlJywgSGVsdmV0aWNhLCBBcmlhbC1Vbmljb2RlLCBBcmlhbCwgU2Fucy1zZXJpZiIgZm9udC13ZWlnaHQ9ImJvbGQiIGZvbnQtc2l6ZT0iNXB4IiBmaWxsPSIjMDAwMDAwIiB5PSIyMDE1IiB4PSIwIj5DcmVhdGVkIGJ5IOyjvO2YhCDrsJU8L3RleHQ+PHRleHQgZm9udC1mYW1pbHk9IidIZWx2ZXRpY2EgTmV1ZScsIEhlbHZldGljYSwgQXJpYWwtVW5pY29kZSwgQXJpYWwsIFNhbnMtc2VyaWYiIGZvbnQtd2VpZ2h0PSJib2xkIiBmb250LXNpemU9IjVweCIgZmlsbD0iIzAwMDAwMCIgeT0iMjAyMCIgeD0iMCI+ZnJvbSB0aGUgTm91biBQcm9qZWN0PC90ZXh0Pjwvc3ZnPg==;clipPath=inset(0% 0% 19.33% 45.5%);" vertex="1" parent="1">
          <mxGeometry x="480" y="160" width="65" height="130" as="geometry" />
        </mxCell>
        <mxCell id="D-IpPesiXdzC2x0YU6nD-10" value="" style="shape=image;verticalLabelPosition=bottom;labelBackgroundColor=default;verticalAlign=top;aspect=fixed;imageAspect=0;image=data:image/svg+xml,PHN2ZyB4bWxucz0iaHR0cDovL3d3dy53My5vcmcvMjAwMC9zdmciIHk9IjBweCIgeD0iMHB4IiBwcmVzZXJ2ZUFzcGVjdFJhdGlvPSJ4TWlkWU1pZCBtZWV0IiB2aWV3Qm94PSItMC44MDAwMDAwMTE5MjA5MjkgMjMxLjA2MTExMTQ1MDE5NTMgMTMyNi4yMDY1NDI5Njg3NSAxNzg5LjczODg5MTYwMTU2MjUiIHZlcnNpb249IjEuMCIgd2lkdGg9IjEzMjYuMjA2NTQyOTY4NzUiIGhlaWdodD0iMTc4OS43Mzg4OTE2MDE1NjI1Ij48ZyBzdHJva2U9Im5vbmUiIGZpbGw9IiMwMDAwMDAiIHRyYW5zZm9ybT0idHJhbnNsYXRlKDAuMDAwMDAwLDIwMDAuMDAwMDAwKSBzY2FsZSgwLjEwMDAwMCwtMC4xMDAwMDApIj48cGF0aCBkPSJNOTc4MSAxNzY2OCBjLTMwIC0xNSAtNjQgLTQ3IC0xMDcgLTEwMiAtMzUgLTQ0IC02NCAtODYgLTY0IC05MyAwIC03IC04IC0xNyAtMTkgLTIyIC0xMCAtNiAtMjQgLTIzIC0zMiAtMzggLTggLTE1IC01MSAtODIgLTk3IC0xNDggLTExOCAtMTcyIC0yMjIgLTMzMyAtMjIyIC0zNDQgMCAtNSAtMyAtMTEgLTcgLTEzIC01IC0xIC0xNyAtMTkgLTI3IC0zOCAtMTEgLTE5IC0zOSAtNjUgLTYzIC0xMDIgLTI0IC0zNyAtNDMgLTcxIC00MyAtNzYgMCAtNCAtMTQgLTMwIC0zMSAtNTYgLTQ4IC03NyAtMjM5IC00NTcgLTIzOSAtNDc3IDAgLTUgLTEzIC0zNiAtMjkgLTY4IC0xNSAtMzIgLTQzIC0xMDcgLTYwIC0xNjcgLTE3IC02MCAtMzYgLTExNyAtNDEgLTEyNiAtMTkgLTMzIC00MSAtMjExIC00MSAtMzI1IDAgLTExOSAxNyAtMjE0IDUxIC0yODggMTAgLTIyIDMwIC02NSA0MyAtOTUgNTQgLTEyMCAyNjAgLTMzMCAzODYgLTM5NCAyOCAtMTQgNzAgLTM2IDk0IC01MCAyMyAtMTQgNjUgLTMyIDkyIC00MSAyOCAtMTAgNjggLTI1IDkwIC0zNSAyMiAtMTAgODQgLTI2IDEzNyAtMzYgbDk4IC0xOSAwIC0yMjcgMCAtMjI4IC01NSAwIGMtMzAgMCAtNTUgLTQgLTU1IC0xMCAwIC01IC0yNCAtMTAgLTUyIC0xMCAtMTE4IDAgLTU5MCAtNjIgLTYxMyAtODAgLTUgLTQgLTI4IC0xMSAtNTAgLTE0IC03NCAtMTMgLTI5MCAtNjcgLTMwMCAtNzYgLTUgLTQgLTU2IC0yMiAtMTEyIC0zOCAtNTYgLTE3IC0xMTIgLTM4IC0xMjUgLTQ2IC0zOCAtMjUgLTE1OSAtNjMgLTIzNSAtNzUgLTM3IC01IC0xNDcgLTEzIC0yNDMgLTE2IC0zMTEgLTExIC01MDMgLTQ1IC02ODUgLTEyMCAtMjk0IC0xMjAgLTU1OSAtMzY2IC03MDMgLTY1MCAtMjE5IC00MzYgLTI0NiAtOTk4IC02NiAtMTM1OCAxNDAgLTI3OCA0MzMgLTUxMyA2OTggLTU1OSAzMyAtNiA2NiAtMTYgNzMgLTIyIDYgLTYgMjYgLTU2IDQ1IC0xMTEgbDMzIC0xMDAgMyAtMzA3OSBjMSAtMjE2MCAtMSAtMzA4MiAtOCAtMzA5MSAtNiAtOCAtNyAtMTYgLTIgLTE5IDUgLTMgMTIgLTQ1IDE1IC05MyA5IC0xMjYgMzkgLTIyOSAxMDUgLTM1MSA0OCAtOTAgNzMgLTEyMyAxNTcgLTIwNyA4NCAtODQgMTE3IC0xMDkgMjA3IC0xNTcgMTI0IC02NyAyMjYgLTk3IDM1NiAtMTA1IDU0IC00IDkyIC0xMCA5MiAtMTYgMCAtNyA1IC02IDEyIDEgOSA5IDQyNCAxMiAxODA4IDEyIDEyMzAgMCAxODE1IDMgMTg1NiAxMSAxMzQgMjQgMjY5IDgzIDM2NiAxNjAgMjAgMTYgNDAgMjkgNDUgMjkgMTAgMCAxMzMgMTI0IDEzMyAxMzQgMCA0IDE4IDMwIDM5IDU5IDM5IDUyIDEwOSAxOTAgMTI5IDI1NyAzMSAxMDAgMzIgMTc3IDMyIDIwOTIgbDAgMTkzOCAyNyA2IGMxNjIgMzUgMjg1IDEyMyAzODAgMjcxIDE0NSAyMjggMTgyIDU2MiAxMzkgMTI2MyAtMjcgNDQ2IC0zOCA4NDkgLTMzIDExOTUgNiAzOTAgMTAgNDE2IDEyMiA4MTAgNjAgMjEyIDcwIDI3NiA2OSA0NDAgMCAxMzYgLTMgMTU4IC0yNyAyMzIgLTU0IDE2MiAtMTM3IDMxOSAtMjE0IDQwNCAtNzQgODIgLTIxMSAxNTAgLTQ3MCAyMzUgLTcyIDIzIC0xNjQgNjIgLTIwNSA4NSAtNDAgMjMgLTk5IDU3IC0xMzEgNzUgLTMxIDE4IC03OSA1MSAtMTA1IDc0IC0yNyAyMiAtNTIgNDAgLTU2IDQwIC01IDAgLTI1IDEzIC00NSAyOSAtODkgNzAgLTMxMyAxOTEgLTQ1NiAyNDYgLTM4IDE1IC04MSAzMyAtOTUgNDAgLTE0IDcgLTY1IDI1IC0xMTUgNDAgLTQ5IDE1IC05NCAzMSAtMTAwIDM1IC05IDggLTIxNCA1OSAtMjk1IDc1IC0xOSAzIC00NCAxMCAtNTUgMTUgLTQzIDE5IC0zODEgNjYgLTU1NCA3NiAtNjEgNCAtMTE0IDExIC0xMTcgMTYgLTMgNCAtMzAgOCAtNjAgOCBsLTU0IDAgMCAyMzAgMCAyMzAgMjYgMCBjMzIgMCAyMDcgNDAgMjE0IDQ5IDMgMyAzNyAxNyA3NSAzMCAzOSAxMyAxMDUgNDMgMTQ3IDY3IDQyIDI0IDgyIDQ0IDg3IDQ0IDYgMCAxNiA5IDIzIDIwIDcgMTEgMTggMjAgMjQgMjAgMzAgMCAyNjQgMjMzIDI2NCAyNjMgMCAzIDE2IDMyIDM1IDY0IDIwIDMyIDQ1IDkwIDU3IDEyOCAxMSAzOSAyNSA3NSAyOSA4MSAyNSAzMSAyNSAzNTYgMCA0MDkgLTUgMTEgLTIxIDY4IC0zNSAxMjggLTE0IDU5IC0zNCAxMjYgLTQ1IDE1MCAtMTAgMjMgLTIyIDUzIC0yNiA2NyAtMTAgMzMgLTUwIDEzMCAtODUgMjA1IC0xNSAzMyAtMzcgODAgLTQ4IDEwNSAtMjggNjEgLTEzMiAyNTMgLTE3MSAzMTUgLTE3IDI4IC0zNiA2MSAtNDMgNzUgLTcgMTQgLTM4IDY2IC03MCAxMTcgLTMyIDUxIC01OCA5NSAtNTggOTkgMCAzIC0zOCA2MiAtODUgMTMwIC00NyA2OCAtODUgMTI2IC04NSAxMzAgMCAzIC0zNyA1NyAtODIgMTIwIC00NiA2MyAtOTMgMTMxIC0xMDUgMTUxIC0xMiAyMCAtMjggNDAgLTM3IDQ1IC05IDUgLTE2IDE1IC0xNiAyMyAwIDI2IC05NSAxMTMgLTEzNiAxMjQgLTYxIDE3IC0xMjUgMTMgLTE3MyAtMTF6IG0xNDYgLTY1MSBjODMgLTEyMSAyMjMgLTMzNiAyMjMgLTM0MiAwIC0zIDIwIC0zNiA0NCAtNzMgMjQgLTM3IDUyIC04NCA2MiAtMTA0IDExIC0yMCAzOCAtNzAgNjIgLTExMSAyMyAtNDEgNDIgLTc5IDQyIC04NSAwIC02IDQgLTEyIDggLTE0IDUgLTEgMjYgLTQxIDQ3IC04OCAyMiAtNDcgNDMgLTg3IDQ2IC05MCA0IC0zIDI0IC00NSA0NCAtOTUgMjAgLTQ5IDQ1IC0xMDggNTUgLTEzMCAxMCAtMjIgMjggLTc2IDQwIC0xMjAgMTIgLTQ0IDI2IC04NyAzMCAtOTYgMTUgLTI5IDMzIC0xODAgMjcgLTIyOSAtMyAtMjcgLTE1IC02OSAtMjYgLTk0IC0xMiAtMjUgLTIxIC00OCAtMjEgLTUyIDAgLTE5IC04MSAtMTEyIC0xMzkgLTE1OCAtOTggLTc4IC0yODggLTE2NiAtMzU5IC0xNjYgLTcgMCAtMTIgNzYgLTE0IDIxOCAtMyAyMDggLTQgMjE5IC0yOCAyNjcgLTE0IDI3IC0zNCA1NCAtNDYgNjAgLTExIDYgLTI4IDE4IC0zNyAyNyAtMjEgMjAgLTkzIDMyIC0xNDkgMjUgLTU0IC03IC0xMTYgLTUzIC0xNTMgLTExMyBsLTMwIC00OSAtMyAtMjE3IGMtMiAtMTIwIC03IC0yMTggLTExIC0yMTggLTE5IDAgLTEyNyAzMiAtMTUwIDQ1IC0xNCA3IC01MCAyNSAtODAgNDAgLTc2IDM2IC0xNzMgMTE2IC0yMjggMTg4IC01MSA2NiAtODMgMTU4IC04MyAyMzcgMCA1OSAyOCAyMTcgNDUgMjU1IDcgMTcgMjUgNjYgMzkgMTEwIDMxIDkzIDUzIDE0MiAxNTcgMzQ5IDEwNyAyMTMgMTQzIDI3OSAxNjYgMzEyIDExIDE2IDMzIDUzIDQ4IDgyIDE1IDI4IDMxIDUyIDM2IDUyIDUgMCA5IDYgOSAxNCAwIDcgMjkgNTcgNjUgMTEwIDM2IDUzIDY1IDk5IDY1IDEwMiAwIDkgMTQ0IDIxNCAxNTAgMjEzIDMgMCAyNCAtMjggNDcgLTYyeiBtLTI3NSAtMzc4NCBsMyAtMzc4IDMwIC00OSBjMTcgLTI2IDUwIC02MiA3NCAtODAgMzkgLTI4IDQ5IC0zMSAxMjEgLTMxIDcxIDAgODIgMyAxMjIgMzEgMjYgMTkgNTMgNTAgNjggODAgbDI1IDQ5IDUgMzc1IDUgMzc1IDcwIDMgYzM4IDIgNzkgLTEgOTAgLTYgMTEgLTYgNzYgLTE1IDE0NSAtMjEgMTU1IC0xNCA0NDQgLTYxIDQ0OCAtNzIgMiAtNSAxMSAtOSAyMCAtOSAyNiAwIDI1MyAtNjAgMjg3IC03NSAxNiAtOCAxMDMgLTM5IDE5MyAtNjkgODkgLTMwIDE5MCAtNzEgMjI1IC05MCAzNCAtMTkgOTggLTQ4IDE0MiAtNjYgNDQgLTE3IDExMiAtNTMgMTUwIC04MCA3NyAtNTQgMjc1IC0xNzUgMzQ0IC0yMTAgMjUgLTEyIDEyMiAtNDkgMjE3IC04MSAyNjggLTkwIDMwMSAtMTEzIDM2MiAtMjQyIDg5IC0xODggOTMgLTI2OSAyNiAtNTIyIC0xNTcgLTU5OCAtMTQ5IC01MzUgLTE0OCAtMTE1NSAxIC0zNTkgNyAtNjA5IDIyIC05MTIgMzQgLTY0OCAyOCAtOTAwIC0yNCAtMTA1OCAtNDYgLTEzOCAtMTA3IC0yMDAgLTE5OCAtMjAwIGwtNTIgMCAtMzYgNjMgYy0xMTAgMTkwIC0xNjcgMzQ5IC0xODggNTI0IC0xMyAxMDUgLTcgMzUzIDI3IDEwOTAgMTggNDAxIDE0IDQ3NyAtMzIgNjM4IC02MiAyMTIgLTE2NSAzMzkgLTMxNCAzODUgLTE0NiA0NiAtMjgxIDEyIC00ODEgLTEyMiAtMTY4IC0xMTMgLTI3MiAtMTk4IC00MDMgLTMzMiAtMjEwIC0yMTMgLTIzNCAtMjUwIC0zNDggLTUyMCAtMzMgLTc3IC03NSAtMTY1IC05NCAtMTk0IC0zOSAtNTggLTEwNiAtMTEyIC0xNDAgLTExMiAtNjAgMCAtMjAwIDEzNSAtMzAzIDI5NSAtMTI5IDE5NyAtMjAyIDI2MCAtMzM5IDI5MSAtMTc3IDM5IC0zNDUgLTE3IC01MDEgLTE2OSAtMTcxIC0xNjYgLTIzNyAtMzMyIC0zMjcgLTgyMCAtNTQgLTI5MiAtMTQzIC00MDEgLTI3OCAtMzQzIC04MSAzNCAtMTMzIDEyOSAtMTc5IDMyNCAtMTQ3IDYxOCAtMTk1IDc0MCAtMzc3IDk2OSAtMTg5IDIzNiAtMzk2IDM4OSAtNzcwIDU2NSAtMjQzIDExNSAtMzg2IDE5MSAtNDQzIDIzNSAtMTA4IDg2IC0xODcgMTk4IC0yMzMgMzM1IC0yNCA3MiAtMjkgMTAzIC0zMyAyMzAgLTkgMjgzIDQ0IDUxMyAxNjkgNzM1IDYwIDEwNiAyMzMgMjc5IDM0NSAzNDYgMTAxIDYwIDI1OCAxMTQgMzgzIDEzMiAxNjAgMjIgNDA1IDI4IDQ4NiAxMCA5OCAtMjEgMjMzIC0xOSAzMzAgNCAxMTYgMjggMzkzIDEyNSA2MTAgMjE0IDYzIDI2IDI4MCA2MiA0NDQgNzQgNTEgMyA5NCAxMCA5NyAxNSAzIDQgMzggOCA3OSA4IGw3NCAwIDMgLTM3N3ogbTIxMjcgLTIxODkgYzExIC0xNCAyOCAtNDkgMzggLTc3IDIzIC02NyAyNCAtMzM2IDMgLTkzNyAtMjUgLTcxMSAtMTkgLTgxMyA2MiAtMTA2MCA0MSAtMTIxIDEyNiAtMzAxIDE5NCAtNDA4IGwzNCAtNTMgLTIgLTIwMTcgLTMgLTIwMTcgLTIxIC01MSBjLTEyIC0yOSAtMzMgLTY3IC00OCAtODYgLTE0IC0xOSAtMjYgLTQwIC0yNiAtNDUgMCAtMTAgLTE4IC0yNyAtOTcgLTkyIC0zOSAtMzMgLTEyNSAtNzEgLTE3NSAtNzcgLTI3IC00IC01MSAtMTEgLTU0IC0xNSAtOCAtMTMgLTM2MDEgLTEyIC0zNjA5IDEgLTMgNiAtMTkgMTAgLTM1IDEwIC04NCAwIC0yMTkgODEgLTI5NCAxNzYgLTQzIDU1IC04NiAxNTggLTg2IDIwNSAwIDE0IC01IDMwIC0xMCAzNSAtMTMgMTMgLTkgNjEwOCAzIDYxMjEgMjEgMjAgMTg1IC0yMDQgMjYwIC0zNTIgNTEgLTEwMyAxMDUgLTI2NSAxMzcgLTQxMCA3OCAtMzY1IDEzNyAtNTM0IDIyOSAtNjU1IDExMCAtMTQ2IDI3NiAtMjMwIDQ1MSAtMjMwIDE0OSAxIDI1NSA0NSAzNjUgMTU0IDEzOSAxMzggMTg0IDI1NCAyNjUgNjgxIDIzIDEyMyA3MiAyOTAgMTAxIDM0OCA0MSA3OSAxNTQgMTc3IDIwNSAxNzcgMjUgMCA2MyAtNDAgMTE0IC0xMjAgMTUyIC0yNDMgMzU2IC00MjEgNTMwIC00NjYgMjA1IC01MiA0MzEgNTkgNTczIDI4MSAyNCAzOSA1NCA4OCA2NSAxMTAgMTEgMjIgMzggNTkgNjAgODMgNDYgNTAgOTUgMTM4IDExMiAyMDIgMzIgMTI2IDIxNCAzMzQgNDE3IDQ3OSA5NCA2NyAxOTkgMTMwIDIxNSAxMzEgNCAwIDE2IC0xMiAyNyAtMjZ6Ii8+PHBhdGggZD0iTTgwOTIgMTI2NjAgYy0xNDAgLTYzIC0xNzcgLTE2MyAtMTMwIC0zNjAgOSAtMzkgNjIgLTE0NCAxMDEgLTIwMyAxNSAtMjMgMTc1IC0xODcgMTgyIC0xODcgMyAwIDMwIC0xOCA2MCAtNDAgNjggLTUwIDI0OCAtMTQ0IDM0MCAtMTc3IDM5IC0xNCA3NSAtMjkgODAgLTMzIDYgLTUgNjQgLTIzIDEzMCAtNDAgNjYgLTE3IDEyOSAtMzUgMTQwIC00MSAzNCAtMTYgMzA1IC01OCA0NTIgLTcwIDc2IC02IDE0NiAtMTUgMTU1IC0yMCAyNSAtMTMgNTM1IC0xMiA1NDMgMSAzIDYgMzAgMTAgNTggMTAgMTA4IDAgNTE1IDU4IDU1NSA4MCAxNSA3IDE3OSA1MiAyNTAgNjcgMTIgMyAyMiA5IDIyIDEzIDAgNCAxMCAxMCAyMyAxMyA5MyAyMSAzMTUgMTMzIDQyMiAyMTIgMTE4IDg4IDI4NSAyNzkgMjg1IDMyNyAwIDUgOSAyOCAyMSA1MSAyOSA2MCA0NSAxOTAgMzAgMjQ1IC0xNiA1OSAtMTAxIDE0NiAtMTU2IDE2MSAtNTMgMTQgLTc2IDE0IC0xMjggLTQgLTg3IC0yOSAtMTU3IC0xMjUgLTE1NyAtMjE2IDAgLTQzIC0yMSAtNzYgLTg3IC0xNDAgLTcxIC02OSAtMTY0IC0xMzIgLTIzNSAtMTYwIC0yOSAtMTEgLTYyIC0yNiAtNzMgLTMzIC0yNCAtMTUgLTE3NCAtNjYgLTE5NSAtNjYgLTggMCAtMjggLTcgLTQzIC0xNSAtMzkgLTIwIC0yNTUgLTYwIC00MDIgLTc1IC02NiAtNyAtMTMxIC0xNyAtMTQzIC0yMyAtMTYgLTggLTEyMSAtMTEgLTMxMiAtMTEgLTE5MSAwIC0yOTYgMyAtMzEyIDExIC0xMiA2IC03NyAxNiAtMTQzIDIzIC02NiA2IC0xNDAgMTUgLTE2NSAyMCAtMjUgNSAtODIgMTYgLTEyNyAyNSAtNDQgOCAtOTQgMjIgLTExMCAzMCAtMTUgOCAtMzUgMTUgLTQzIDE1IC0yMSAwIC0xNzIgNTAgLTE4NiA2MSAtNyA1IC0zOSAyMCAtNzIgMzMgLTMzIDEzIC04NyA0MiAtMTIwIDY1IC0zNCAyMiAtNjMgNDEgLTY2IDQxIC00IDAgLTMyIDI2IC02MyA1OCAtNjIgNjEgLTgzIDk3IC04MyAxNDAgMCA1OCAtMjIgMTA0IC03MyAxNTcgLTc0IDc1IC0xNDEgOTIgLTIyNSA1NXoiLz48cGF0aCBkPSJNMTA4NDIgOTQxOCBjLTUgLTcgLTE1IC00OSAtMjIgLTkzIC0zMyAtMjI2IC0xMDUgLTUwMiAtMTk1IC03NTAgLTE2MSAtNDQxIC0yNjAgLTY4NSAtMzcxIC05MDcgLTE5MSAtMzgzIC0yNTQgLTU3NiAtMjU0IC03ODIgMSAtMzIxIDE4MyAtNTYwIDQ4NCAtNjM2IDk5IC0yNSAyNzUgLTI3IDM3OSAtNCAyNTAgNTUgNDUxIDI0NSA2MTggNTg0IDEyMyAyNTAgMTc3IDQ2MyAxODYgNzM2IDggMjYxIC0xNCA0MTggLTk0IDY1OSAtOTEgMjc0IC0xNzcgNDQzIC0zODMgNzUxIC0xMTkgMTc4IC0zMjMgNDU0IC0zMzYgNDU0IC0xIDAgLTYgLTYgLTEyIC0xMnogbTI5NyAtMTE0MyBjMTEwIC0yNzYgMTQxIC00MTggMTQxIC02NDUgMCAtMjE0IC0zNiAtMzgyIC0xMjUgLTU3OSAtODcgLTE5NCAtMTg3IC0zMjkgLTI5MCAtMzkxIC01NCAtMzIgLTY2IC0zNSAtMTU0IC0zOCAtMTEwIC01IC0xNTcgNSAtMjIyIDQ3IC03MCA0NCAtOTQgMTAwIC05MyAyMjEgMSAxNDcgMjggMjMzIDE2NyA1MjAgMTY2IDM0NCAyMjEgNDc2IDM5MyA5NDggMjUgNjcgNDkgMTM1IDU1IDE1MCBsMTEgMjcgMjggLTU1IGMxNiAtMzAgNTYgLTEyMiA4OSAtMjA1eiIvPjwvZz48dGV4dCBmb250LWZhbWlseT0iJ0hlbHZldGljYSBOZXVlJywgSGVsdmV0aWNhLCBBcmlhbC1Vbmljb2RlLCBBcmlhbCwgU2Fucy1zZXJpZiIgZm9udC13ZWlnaHQ9ImJvbGQiIGZvbnQtc2l6ZT0iNXB4IiBmaWxsPSIjMDAwMDAwIiB5PSIyMDE1IiB4PSIwIj5DcmVhdGVkIGJ5IOyjvO2YhCDrsJU8L3RleHQ+PHRleHQgZm9udC1mYW1pbHk9IidIZWx2ZXRpY2EgTmV1ZScsIEhlbHZldGljYSwgQXJpYWwtVW5pY29kZSwgQXJpYWwsIFNhbnMtc2VyaWYiIGZvbnQtd2VpZ2h0PSJib2xkIiBmb250LXNpemU9IjVweCIgZmlsbD0iIzAwMDAwMCIgeT0iMjAyMCIgeD0iMCI+ZnJvbSB0aGUgTm91biBQcm9qZWN0PC90ZXh0Pjwvc3ZnPg==;clipPath=inset(0% 0% 19.33% 45.5%);fillColor=#000066;imageBackground=none;imageBorder=none;" vertex="1" parent="1">
          <mxGeometry x="220" y="485" width="65" height="130" as="geometry" />
        </mxCell>
        <mxCell id="D-IpPesiXdzC2x0YU6nD-11" value="" style="shape=image;verticalLabelPosition=bottom;labelBackgroundColor=default;verticalAlign=top;aspect=fixed;imageAspect=0;image=data:image/svg+xml,PHN2ZyB4bWxucz0iaHR0cDovL3d3dy53My5vcmcvMjAwMC9zdmciIHk9IjBweCIgeD0iMHB4IiBwcmVzZXJ2ZUFzcGVjdFJhdGlvPSJ4TWlkWU1pZCBtZWV0IiB2aWV3Qm94PSItMC44MDAwMDAwMTE5MjA5MjkgMjMxLjA2MTExMTQ1MDE5NTMgMTMyNi4yMDY1NDI5Njg3NSAxNzg5LjczODg5MTYwMTU2MjUiIHZlcnNpb249IjEuMCIgd2lkdGg9IjEzMjYuMjA2NTQyOTY4NzUiIGhlaWdodD0iMTc4OS43Mzg4OTE2MDE1NjI1Ij48ZyBzdHJva2U9Im5vbmUiIGZpbGw9IiMwMDAwMDAiIHRyYW5zZm9ybT0idHJhbnNsYXRlKDAuMDAwMDAwLDIwMDAuMDAwMDAwKSBzY2FsZSgwLjEwMDAwMCwtMC4xMDAwMDApIj48cGF0aCBkPSJNOTc4MSAxNzY2OCBjLTMwIC0xNSAtNjQgLTQ3IC0xMDcgLTEwMiAtMzUgLTQ0IC02NCAtODYgLTY0IC05MyAwIC03IC04IC0xNyAtMTkgLTIyIC0xMCAtNiAtMjQgLTIzIC0zMiAtMzggLTggLTE1IC01MSAtODIgLTk3IC0xNDggLTExOCAtMTcyIC0yMjIgLTMzMyAtMjIyIC0zNDQgMCAtNSAtMyAtMTEgLTcgLTEzIC01IC0xIC0xNyAtMTkgLTI3IC0zOCAtMTEgLTE5IC0zOSAtNjUgLTYzIC0xMDIgLTI0IC0zNyAtNDMgLTcxIC00MyAtNzYgMCAtNCAtMTQgLTMwIC0zMSAtNTYgLTQ4IC03NyAtMjM5IC00NTcgLTIzOSAtNDc3IDAgLTUgLTEzIC0zNiAtMjkgLTY4IC0xNSAtMzIgLTQzIC0xMDcgLTYwIC0xNjcgLTE3IC02MCAtMzYgLTExNyAtNDEgLTEyNiAtMTkgLTMzIC00MSAtMjExIC00MSAtMzI1IDAgLTExOSAxNyAtMjE0IDUxIC0yODggMTAgLTIyIDMwIC02NSA0MyAtOTUgNTQgLTEyMCAyNjAgLTMzMCAzODYgLTM5NCAyOCAtMTQgNzAgLTM2IDk0IC01MCAyMyAtMTQgNjUgLTMyIDkyIC00MSAyOCAtMTAgNjggLTI1IDkwIC0zNSAyMiAtMTAgODQgLTI2IDEzNyAtMzYgbDk4IC0xOSAwIC0yMjcgMCAtMjI4IC01NSAwIGMtMzAgMCAtNTUgLTQgLTU1IC0xMCAwIC01IC0yNCAtMTAgLTUyIC0xMCAtMTE4IDAgLTU5MCAtNjIgLTYxMyAtODAgLTUgLTQgLTI4IC0xMSAtNTAgLTE0IC03NCAtMTMgLTI5MCAtNjcgLTMwMCAtNzYgLTUgLTQgLTU2IC0yMiAtMTEyIC0zOCAtNTYgLTE3IC0xMTIgLTM4IC0xMjUgLTQ2IC0zOCAtMjUgLTE1OSAtNjMgLTIzNSAtNzUgLTM3IC01IC0xNDcgLTEzIC0yNDMgLTE2IC0zMTEgLTExIC01MDMgLTQ1IC02ODUgLTEyMCAtMjk0IC0xMjAgLTU1OSAtMzY2IC03MDMgLTY1MCAtMjE5IC00MzYgLTI0NiAtOTk4IC02NiAtMTM1OCAxNDAgLTI3OCA0MzMgLTUxMyA2OTggLTU1OSAzMyAtNiA2NiAtMTYgNzMgLTIyIDYgLTYgMjYgLTU2IDQ1IC0xMTEgbDMzIC0xMDAgMyAtMzA3OSBjMSAtMjE2MCAtMSAtMzA4MiAtOCAtMzA5MSAtNiAtOCAtNyAtMTYgLTIgLTE5IDUgLTMgMTIgLTQ1IDE1IC05MyA5IC0xMjYgMzkgLTIyOSAxMDUgLTM1MSA0OCAtOTAgNzMgLTEyMyAxNTcgLTIwNyA4NCAtODQgMTE3IC0xMDkgMjA3IC0xNTcgMTI0IC02NyAyMjYgLTk3IDM1NiAtMTA1IDU0IC00IDkyIC0xMCA5MiAtMTYgMCAtNyA1IC02IDEyIDEgOSA5IDQyNCAxMiAxODA4IDEyIDEyMzAgMCAxODE1IDMgMTg1NiAxMSAxMzQgMjQgMjY5IDgzIDM2NiAxNjAgMjAgMTYgNDAgMjkgNDUgMjkgMTAgMCAxMzMgMTI0IDEzMyAxMzQgMCA0IDE4IDMwIDM5IDU5IDM5IDUyIDEwOSAxOTAgMTI5IDI1NyAzMSAxMDAgMzIgMTc3IDMyIDIwOTIgbDAgMTkzOCAyNyA2IGMxNjIgMzUgMjg1IDEyMyAzODAgMjcxIDE0NSAyMjggMTgyIDU2MiAxMzkgMTI2MyAtMjcgNDQ2IC0zOCA4NDkgLTMzIDExOTUgNiAzOTAgMTAgNDE2IDEyMiA4MTAgNjAgMjEyIDcwIDI3NiA2OSA0NDAgMCAxMzYgLTMgMTU4IC0yNyAyMzIgLTU0IDE2MiAtMTM3IDMxOSAtMjE0IDQwNCAtNzQgODIgLTIxMSAxNTAgLTQ3MCAyMzUgLTcyIDIzIC0xNjQgNjIgLTIwNSA4NSAtNDAgMjMgLTk5IDU3IC0xMzEgNzUgLTMxIDE4IC03OSA1MSAtMTA1IDc0IC0yNyAyMiAtNTIgNDAgLTU2IDQwIC01IDAgLTI1IDEzIC00NSAyOSAtODkgNzAgLTMxMyAxOTEgLTQ1NiAyNDYgLTM4IDE1IC04MSAzMyAtOTUgNDAgLTE0IDcgLTY1IDI1IC0xMTUgNDAgLTQ5IDE1IC05NCAzMSAtMTAwIDM1IC05IDggLTIxNCA1OSAtMjk1IDc1IC0xOSAzIC00NCAxMCAtNTUgMTUgLTQzIDE5IC0zODEgNjYgLTU1NCA3NiAtNjEgNCAtMTE0IDExIC0xMTcgMTYgLTMgNCAtMzAgOCAtNjAgOCBsLTU0IDAgMCAyMzAgMCAyMzAgMjYgMCBjMzIgMCAyMDcgNDAgMjE0IDQ5IDMgMyAzNyAxNyA3NSAzMCAzOSAxMyAxMDUgNDMgMTQ3IDY3IDQyIDI0IDgyIDQ0IDg3IDQ0IDYgMCAxNiA5IDIzIDIwIDcgMTEgMTggMjAgMjQgMjAgMzAgMCAyNjQgMjMzIDI2NCAyNjMgMCAzIDE2IDMyIDM1IDY0IDIwIDMyIDQ1IDkwIDU3IDEyOCAxMSAzOSAyNSA3NSAyOSA4MSAyNSAzMSAyNSAzNTYgMCA0MDkgLTUgMTEgLTIxIDY4IC0zNSAxMjggLTE0IDU5IC0zNCAxMjYgLTQ1IDE1MCAtMTAgMjMgLTIyIDUzIC0yNiA2NyAtMTAgMzMgLTUwIDEzMCAtODUgMjA1IC0xNSAzMyAtMzcgODAgLTQ4IDEwNSAtMjggNjEgLTEzMiAyNTMgLTE3MSAzMTUgLTE3IDI4IC0zNiA2MSAtNDMgNzUgLTcgMTQgLTM4IDY2IC03MCAxMTcgLTMyIDUxIC01OCA5NSAtNTggOTkgMCAzIC0zOCA2MiAtODUgMTMwIC00NyA2OCAtODUgMTI2IC04NSAxMzAgMCAzIC0zNyA1NyAtODIgMTIwIC00NiA2MyAtOTMgMTMxIC0xMDUgMTUxIC0xMiAyMCAtMjggNDAgLTM3IDQ1IC05IDUgLTE2IDE1IC0xNiAyMyAwIDI2IC05NSAxMTMgLTEzNiAxMjQgLTYxIDE3IC0xMjUgMTMgLTE3MyAtMTF6IG0xNDYgLTY1MSBjODMgLTEyMSAyMjMgLTMzNiAyMjMgLTM0MiAwIC0zIDIwIC0zNiA0NCAtNzMgMjQgLTM3IDUyIC04NCA2MiAtMTA0IDExIC0yMCAzOCAtNzAgNjIgLTExMSAyMyAtNDEgNDIgLTc5IDQyIC04NSAwIC02IDQgLTEyIDggLTE0IDUgLTEgMjYgLTQxIDQ3IC04OCAyMiAtNDcgNDMgLTg3IDQ2IC05MCA0IC0zIDI0IC00NSA0NCAtOTUgMjAgLTQ5IDQ1IC0xMDggNTUgLTEzMCAxMCAtMjIgMjggLTc2IDQwIC0xMjAgMTIgLTQ0IDI2IC04NyAzMCAtOTYgMTUgLTI5IDMzIC0xODAgMjcgLTIyOSAtMyAtMjcgLTE1IC02OSAtMjYgLTk0IC0xMiAtMjUgLTIxIC00OCAtMjEgLTUyIDAgLTE5IC04MSAtMTEyIC0xMzkgLTE1OCAtOTggLTc4IC0yODggLTE2NiAtMzU5IC0xNjYgLTcgMCAtMTIgNzYgLTE0IDIxOCAtMyAyMDggLTQgMjE5IC0yOCAyNjcgLTE0IDI3IC0zNCA1NCAtNDYgNjAgLTExIDYgLTI4IDE4IC0zNyAyNyAtMjEgMjAgLTkzIDMyIC0xNDkgMjUgLTU0IC03IC0xMTYgLTUzIC0xNTMgLTExMyBsLTMwIC00OSAtMyAtMjE3IGMtMiAtMTIwIC03IC0yMTggLTExIC0yMTggLTE5IDAgLTEyNyAzMiAtMTUwIDQ1IC0xNCA3IC01MCAyNSAtODAgNDAgLTc2IDM2IC0xNzMgMTE2IC0yMjggMTg4IC01MSA2NiAtODMgMTU4IC04MyAyMzcgMCA1OSAyOCAyMTcgNDUgMjU1IDcgMTcgMjUgNjYgMzkgMTEwIDMxIDkzIDUzIDE0MiAxNTcgMzQ5IDEwNyAyMTMgMTQzIDI3OSAxNjYgMzEyIDExIDE2IDMzIDUzIDQ4IDgyIDE1IDI4IDMxIDUyIDM2IDUyIDUgMCA5IDYgOSAxNCAwIDcgMjkgNTcgNjUgMTEwIDM2IDUzIDY1IDk5IDY1IDEwMiAwIDkgMTQ0IDIxNCAxNTAgMjEzIDMgMCAyNCAtMjggNDcgLTYyeiBtLTI3NSAtMzc4NCBsMyAtMzc4IDMwIC00OSBjMTcgLTI2IDUwIC02MiA3NCAtODAgMzkgLTI4IDQ5IC0zMSAxMjEgLTMxIDcxIDAgODIgMyAxMjIgMzEgMjYgMTkgNTMgNTAgNjggODAgbDI1IDQ5IDUgMzc1IDUgMzc1IDcwIDMgYzM4IDIgNzkgLTEgOTAgLTYgMTEgLTYgNzYgLTE1IDE0NSAtMjEgMTU1IC0xNCA0NDQgLTYxIDQ0OCAtNzIgMiAtNSAxMSAtOSAyMCAtOSAyNiAwIDI1MyAtNjAgMjg3IC03NSAxNiAtOCAxMDMgLTM5IDE5MyAtNjkgODkgLTMwIDE5MCAtNzEgMjI1IC05MCAzNCAtMTkgOTggLTQ4IDE0MiAtNjYgNDQgLTE3IDExMiAtNTMgMTUwIC04MCA3NyAtNTQgMjc1IC0xNzUgMzQ0IC0yMTAgMjUgLTEyIDEyMiAtNDkgMjE3IC04MSAyNjggLTkwIDMwMSAtMTEzIDM2MiAtMjQyIDg5IC0xODggOTMgLTI2OSAyNiAtNTIyIC0xNTcgLTU5OCAtMTQ5IC01MzUgLTE0OCAtMTE1NSAxIC0zNTkgNyAtNjA5IDIyIC05MTIgMzQgLTY0OCAyOCAtOTAwIC0yNCAtMTA1OCAtNDYgLTEzOCAtMTA3IC0yMDAgLTE5OCAtMjAwIGwtNTIgMCAtMzYgNjMgYy0xMTAgMTkwIC0xNjcgMzQ5IC0xODggNTI0IC0xMyAxMDUgLTcgMzUzIDI3IDEwOTAgMTggNDAxIDE0IDQ3NyAtMzIgNjM4IC02MiAyMTIgLTE2NSAzMzkgLTMxNCAzODUgLTE0NiA0NiAtMjgxIDEyIC00ODEgLTEyMiAtMTY4IC0xMTMgLTI3MiAtMTk4IC00MDMgLTMzMiAtMjEwIC0yMTMgLTIzNCAtMjUwIC0zNDggLTUyMCAtMzMgLTc3IC03NSAtMTY1IC05NCAtMTk0IC0zOSAtNTggLTEwNiAtMTEyIC0xNDAgLTExMiAtNjAgMCAtMjAwIDEzNSAtMzAzIDI5NSAtMTI5IDE5NyAtMjAyIDI2MCAtMzM5IDI5MSAtMTc3IDM5IC0zNDUgLTE3IC01MDEgLTE2OSAtMTcxIC0xNjYgLTIzNyAtMzMyIC0zMjcgLTgyMCAtNTQgLTI5MiAtMTQzIC00MDEgLTI3OCAtMzQzIC04MSAzNCAtMTMzIDEyOSAtMTc5IDMyNCAtMTQ3IDYxOCAtMTk1IDc0MCAtMzc3IDk2OSAtMTg5IDIzNiAtMzk2IDM4OSAtNzcwIDU2NSAtMjQzIDExNSAtMzg2IDE5MSAtNDQzIDIzNSAtMTA4IDg2IC0xODcgMTk4IC0yMzMgMzM1IC0yNCA3MiAtMjkgMTAzIC0zMyAyMzAgLTkgMjgzIDQ0IDUxMyAxNjkgNzM1IDYwIDEwNiAyMzMgMjc5IDM0NSAzNDYgMTAxIDYwIDI1OCAxMTQgMzgzIDEzMiAxNjAgMjIgNDA1IDI4IDQ4NiAxMCA5OCAtMjEgMjMzIC0xOSAzMzAgNCAxMTYgMjggMzkzIDEyNSA2MTAgMjE0IDYzIDI2IDI4MCA2MiA0NDQgNzQgNTEgMyA5NCAxMCA5NyAxNSAzIDQgMzggOCA3OSA4IGw3NCAwIDMgLTM3N3ogbTIxMjcgLTIxODkgYzExIC0xNCAyOCAtNDkgMzggLTc3IDIzIC02NyAyNCAtMzM2IDMgLTkzNyAtMjUgLTcxMSAtMTkgLTgxMyA2MiAtMTA2MCA0MSAtMTIxIDEyNiAtMzAxIDE5NCAtNDA4IGwzNCAtNTMgLTIgLTIwMTcgLTMgLTIwMTcgLTIxIC01MSBjLTEyIC0yOSAtMzMgLTY3IC00OCAtODYgLTE0IC0xOSAtMjYgLTQwIC0yNiAtNDUgMCAtMTAgLTE4IC0yNyAtOTcgLTkyIC0zOSAtMzMgLTEyNSAtNzEgLTE3NSAtNzcgLTI3IC00IC01MSAtMTEgLTU0IC0xNSAtOCAtMTMgLTM2MDEgLTEyIC0zNjA5IDEgLTMgNiAtMTkgMTAgLTM1IDEwIC04NCAwIC0yMTkgODEgLTI5NCAxNzYgLTQzIDU1IC04NiAxNTggLTg2IDIwNSAwIDE0IC01IDMwIC0xMCAzNSAtMTMgMTMgLTkgNjEwOCAzIDYxMjEgMjEgMjAgMTg1IC0yMDQgMjYwIC0zNTIgNTEgLTEwMyAxMDUgLTI2NSAxMzcgLTQxMCA3OCAtMzY1IDEzNyAtNTM0IDIyOSAtNjU1IDExMCAtMTQ2IDI3NiAtMjMwIDQ1MSAtMjMwIDE0OSAxIDI1NSA0NSAzNjUgMTU0IDEzOSAxMzggMTg0IDI1NCAyNjUgNjgxIDIzIDEyMyA3MiAyOTAgMTAxIDM0OCA0MSA3OSAxNTQgMTc3IDIwNSAxNzcgMjUgMCA2MyAtNDAgMTE0IC0xMjAgMTUyIC0yNDMgMzU2IC00MjEgNTMwIC00NjYgMjA1IC01MiA0MzEgNTkgNTczIDI4MSAyNCAzOSA1NCA4OCA2NSAxMTAgMTEgMjIgMzggNTkgNjAgODMgNDYgNTAgOTUgMTM4IDExMiAyMDIgMzIgMTI2IDIxNCAzMzQgNDE3IDQ3OSA5NCA2NyAxOTkgMTMwIDIxNSAxMzEgNCAwIDE2IC0xMiAyNyAtMjZ6Ii8+PHBhdGggZD0iTTgwOTIgMTI2NjAgYy0xNDAgLTYzIC0xNzcgLTE2MyAtMTMwIC0zNjAgOSAtMzkgNjIgLTE0NCAxMDEgLTIwMyAxNSAtMjMgMTc1IC0xODcgMTgyIC0xODcgMyAwIDMwIC0xOCA2MCAtNDAgNjggLTUwIDI0OCAtMTQ0IDM0MCAtMTc3IDM5IC0xNCA3NSAtMjkgODAgLTMzIDYgLTUgNjQgLTIzIDEzMCAtNDAgNjYgLTE3IDEyOSAtMzUgMTQwIC00MSAzNCAtMTYgMzA1IC01OCA0NTIgLTcwIDc2IC02IDE0NiAtMTUgMTU1IC0yMCAyNSAtMTMgNTM1IC0xMiA1NDMgMSAzIDYgMzAgMTAgNTggMTAgMTA4IDAgNTE1IDU4IDU1NSA4MCAxNSA3IDE3OSA1MiAyNTAgNjcgMTIgMyAyMiA5IDIyIDEzIDAgNCAxMCAxMCAyMyAxMyA5MyAyMSAzMTUgMTMzIDQyMiAyMTIgMTE4IDg4IDI4NSAyNzkgMjg1IDMyNyAwIDUgOSAyOCAyMSA1MSAyOSA2MCA0NSAxOTAgMzAgMjQ1IC0xNiA1OSAtMTAxIDE0NiAtMTU2IDE2MSAtNTMgMTQgLTc2IDE0IC0xMjggLTQgLTg3IC0yOSAtMTU3IC0xMjUgLTE1NyAtMjE2IDAgLTQzIC0yMSAtNzYgLTg3IC0xNDAgLTcxIC02OSAtMTY0IC0xMzIgLTIzNSAtMTYwIC0yOSAtMTEgLTYyIC0yNiAtNzMgLTMzIC0yNCAtMTUgLTE3NCAtNjYgLTE5NSAtNjYgLTggMCAtMjggLTcgLTQzIC0xNSAtMzkgLTIwIC0yNTUgLTYwIC00MDIgLTc1IC02NiAtNyAtMTMxIC0xNyAtMTQzIC0yMyAtMTYgLTggLTEyMSAtMTEgLTMxMiAtMTEgLTE5MSAwIC0yOTYgMyAtMzEyIDExIC0xMiA2IC03NyAxNiAtMTQzIDIzIC02NiA2IC0xNDAgMTUgLTE2NSAyMCAtMjUgNSAtODIgMTYgLTEyNyAyNSAtNDQgOCAtOTQgMjIgLTExMCAzMCAtMTUgOCAtMzUgMTUgLTQzIDE1IC0yMSAwIC0xNzIgNTAgLTE4NiA2MSAtNyA1IC0zOSAyMCAtNzIgMzMgLTMzIDEzIC04NyA0MiAtMTIwIDY1IC0zNCAyMiAtNjMgNDEgLTY2IDQxIC00IDAgLTMyIDI2IC02MyA1OCAtNjIgNjEgLTgzIDk3IC04MyAxNDAgMCA1OCAtMjIgMTA0IC03MyAxNTcgLTc0IDc1IC0xNDEgOTIgLTIyNSA1NXoiLz48cGF0aCBkPSJNMTA4NDIgOTQxOCBjLTUgLTcgLTE1IC00OSAtMjIgLTkzIC0zMyAtMjI2IC0xMDUgLTUwMiAtMTk1IC03NTAgLTE2MSAtNDQxIC0yNjAgLTY4NSAtMzcxIC05MDcgLTE5MSAtMzgzIC0yNTQgLTU3NiAtMjU0IC03ODIgMSAtMzIxIDE4MyAtNTYwIDQ4NCAtNjM2IDk5IC0yNSAyNzUgLTI3IDM3OSAtNCAyNTAgNTUgNDUxIDI0NSA2MTggNTg0IDEyMyAyNTAgMTc3IDQ2MyAxODYgNzM2IDggMjYxIC0xNCA0MTggLTk0IDY1OSAtOTEgMjc0IC0xNzcgNDQzIC0zODMgNzUxIC0xMTkgMTc4IC0zMjMgNDU0IC0zMzYgNDU0IC0xIDAgLTYgLTYgLTEyIC0xMnogbTI5NyAtMTE0MyBjMTEwIC0yNzYgMTQxIC00MTggMTQxIC02NDUgMCAtMjE0IC0zNiAtMzgyIC0xMjUgLTU3OSAtODcgLTE5NCAtMTg3IC0zMjkgLTI5MCAtMzkxIC01NCAtMzIgLTY2IC0zNSAtMTU0IC0zOCAtMTEwIC01IC0xNTcgNSAtMjIyIDQ3IC03MCA0NCAtOTQgMTAwIC05MyAyMjEgMSAxNDcgMjggMjMzIDE2NyA1MjAgMTY2IDM0NCAyMjEgNDc2IDM5MyA5NDggMjUgNjcgNDkgMTM1IDU1IDE1MCBsMTEgMjcgMjggLTU1IGMxNiAtMzAgNTYgLTEyMiA4OSAtMjA1eiIvPjwvZz48dGV4dCBmb250LWZhbWlseT0iJ0hlbHZldGljYSBOZXVlJywgSGVsdmV0aWNhLCBBcmlhbC1Vbmljb2RlLCBBcmlhbCwgU2Fucy1zZXJpZiIgZm9udC13ZWlnaHQ9ImJvbGQiIGZvbnQtc2l6ZT0iNXB4IiBmaWxsPSIjMDAwMDAwIiB5PSIyMDE1IiB4PSIwIj5DcmVhdGVkIGJ5IOyjvO2YhCDrsJU8L3RleHQ+PHRleHQgZm9udC1mYW1pbHk9IidIZWx2ZXRpY2EgTmV1ZScsIEhlbHZldGljYSwgQXJpYWwtVW5pY29kZSwgQXJpYWwsIFNhbnMtc2VyaWYiIGZvbnQtd2VpZ2h0PSJib2xkIiBmb250LXNpemU9IjVweCIgZmlsbD0iIzAwMDAwMCIgeT0iMjAyMCIgeD0iMCI+ZnJvbSB0aGUgTm91biBQcm9qZWN0PC90ZXh0Pjwvc3ZnPg==;clipPath=inset(0% 0% 19.33% 45.5%);" vertex="1" parent="1">
          <mxGeometry x="490" y="485" width="65" height="130" as="geometry" />
        </mxCell>
        <mxCell id="D-IpPesiXdzC2x0YU6nD-13" value="" style="shape=image;verticalLabelPosition=bottom;labelBackgroundColor=default;verticalAlign=top;aspect=fixed;imageAspect=0;image=data:image/svg+xml,PHN2ZyB4bWxucz0iaHR0cDovL3d3dy53My5vcmcvMjAwMC9zdmciIHk9IjBweCIgeD0iMHB4IiB2aWV3Qm94PSIwIDAgNjQgODAiIGRhdGEtbmFtZT0iU29saWQgTGluZSI+PHBhdGggZD0iTTQzLjgsMTcuM2EzLjYyMSwzLjYyMSwwLDAsMC0yLjI4Ni0yLjIzM0M0MC44ODQsMTMuNDQ3LDM5LjYzOSwxMiwzOCwxMmEyLjksMi45LDAsMCwwLTEuNTQzLjQ3OEMzNS41NTQsMTAuNjY0LDM0LjAzMiw5LDMyLDlzLTMuNTU2LDEuNjY1LTQuNDU4LDMuNDc3QTIuOSwyLjksMCwwLDAsMjYsMTJjLTEuNiwwLTIuODY1LDEuNDI5LTMuNTA4LDMuMDU3QTIuMjUsMi4yNSwwLDAsMCwyMiwxNWEzLjM2NywzLjM2NywwLDAsMC0yLjgyNSwyLjM2Qy4wMTMsMTguNDU3LDAsMjEuMTE4LDAsMjJWNTFjMCwxLjMxNywxLjIwNiwyLjY5Miw5Ljk1MiwzLjgyQTE4MS42NDksMTgxLjY0OSwwLDAsMCwzMiw1NmMyLjI0NCwwLDQuNDU4LS4wMyw2LjU5My0uMDlhMy41LDMuNSwwLDAsMCwzLjI3MS0yLjU5MmwxOS4wNC42MTFjLjAzNywwLC4wNzQsMCwuMTEsMGEzLDMsMCwwLDAsMi45ODYtM1YyMkM2NCwyMS4xLDYzLjk4NiwxOC4zNjIsNDMuOCwxNy4zWk0yNi43OTIsMjAuNzU1YTEuODU2LDEuODU2LDAsMCwxLS4wNDItLjQxNSwyLjgwNywyLjgwNywwLDAsMSwxLjEzLTIuMzA4TDI3Ljk0NywxOGMuNDE4LS4wNjksMS4zLDEuMTI4LDEuMywyLjMzNmExLjk0NCwxLjk0NCwwLDAsMS0uMTQuNzUyQTEuMjg3LDEuMjg3LDAsMCwxLDI4LDIyLDEuNCwxLjQsMCwwLDEsMjYuNzkyLDIwLjc1NVptMTcuNDU3LTEuNDI5YzEwLjY4OC42LDE2LjA5MSwxLjgyNywxNy40NzcsMi42MzNMNDMuNywyMS4zNzdhMy45NywzLjk3LDAsMCwwLC41NTItMi4wMzdabS0yLC4wMTRjMCwuOS0uNTcyLDEuNjYtMS4yNSwxLjY2YS45NTMuOTUzLDAsMCwxLS40LS4xLDQuNjkxLDQuNjkxLDAsMCwwLDEuMzU1LTIuOCwzLjQ0LDMuNDQsMCwwLDEsLjE2OS40MzRBMy4xMzEsMy4xMzEsMCwwLDEsNDIuMjUsMTkuMzRabS0yLjQyNS0zLjAyNEEzLjg4NSwzLjg4NSwwLDAsMSw0MCwxNy40NWEyLjU5LDIuNTksMCwwLDEtMS4zMzcsMi40LDEuNiwxLjYsMCwwLDEtMS43NzYtLjI4OEE2Ljk4LDYuOTgsMCwwLDAsMzcuNSwxNi42OGE4Ljg4NCw4Ljg4NCwwLDAsMC0uMzExLTIuMjUxQTEuMjQzLDEuMjQzLDAsMCwxLDM4LDE0QzM4LjY1MywxNCwzOS40NjksMTUuMDI1LDM5LjgyNSwxNi4zMTZaTTMyLDExYzEuMTYyLDAsMi40NzgsMS40NzEsMy4xMywzLjVhNy4yLDcuMiwwLDAsMSwuMzcsMi4xNzcsNC44NjEsNC44NjEsMCwwLDEtLjY3NSwyLjUyOEEzLjMzMywzLjMzMywwLDAsMSwzMiwyMWEyLjgxLDIuODEsMCwwLDEtLjgtLjEyMyw0LjMsNC4zLDAsMCwwLC4wNDktLjUzN2MwLTEuNjM5LTEuMDEzLTMuODU2LTIuNy00LjI2N2E3LjQ1NCw3LjQ1NCwwLDAsMSwuMzE4LTEuNTc3QzI5LjUyMiwxMi40NzEsMzAuODM4LDExLDMyLDExWm0tNiwzYTEuMjQzLDEuMjQzLDAsMCwxLC44MTEuNDI5LDguOTU4LDguOTU4LDAsMCwwLS4zLDIuMTA2LDQuOTI5LDQuOTI5LDAsMCwwLTEuNjcsMi45ODJjLS4wMDktLjAwOS0uMDIyLS4wMTgtLjAzLS4wMjZBMi43ODYsMi43ODYsMCwwLDEsMjQsMTcuNDVhMy41NiwzLjU2LDAsMCwxLC4wODMtLjc1OUMyNC4zNDQsMTUuMjgzLDI1LjI1OCwxNCwyNiwxNFptLTUuMTMyLDQuNTcyQzIxLjExOCwxNy42MTIsMjEuNzA1LDE3LDIyLDE3YS4yMDkuMjA5LDAsMCwxLC4wMjMuMDA4Yy0uMDEyLjE0Ny0uMDIzLjI5NC0uMDIzLjQ0MmE0LjksNC45LDAsMCwwLC45NjEsMi45NEExLjE2NiwxLjE2NiwwLDAsMSwyMiwyMWMtLjY3OCwwLTEuMjUtLjc2MS0xLjI1LTEuNjZBMi43MzIsMi43MzIsMCwwLDEsMjAuODY4LDE4LjU3MlptLTIuMTEzLjgxOUEzLjQ2OSwzLjQ2OSwwLDAsMCwyMiwyM2EzLjEwNywzLjEwNywwLDAsMCwyLjUtMS4zMzQsMy41NzYsMy41NzYsMCwwLDAsLjU0Mi4xOTRBMy4yMjcsMy4yMjcsMCwwLDAsMjgsMjRhMy4xMTcsMy4xMTcsMCwwLDAsMi40NTgtMS4yNjUsNC44MjIsNC44MjIsMCwwLDAsMS4yOTEuMjQ4TDM2LjIsMjQuOTYxYy0xLjQxLjAyNS0yLjgxNC4wMzktNC4yLjAzOS00Ljg5MywwLTkuNzc3LS4xNTEtMTQuMTIzLS40MzhDNy4yODUsMjMuODUxLDMuMjU1LDIyLjYxNywyLjIwOSwyMiwzLjI5MiwyMS4zNDQsNy41NjQsMjAuMDY2LDE4Ljc1NSwxOS4zOTFaTTM4LjUyMSw1My45MWMtMi4xLjA2LTQuMy4wOS02LjUyMS4wOUMxNC40ODEsNTQsMy4yODgsNTIuMTYyLDIsNTAuODUzdi0xMy41YTIuNDUsMi40NSwwLDAsMCwuNTEuMDYyQTIuNSwyLjUsMCwwLDAsNSwzNC45MlYyOS4xOWEuOTg5Ljk4OSwwLDAsMSwuMzU4LS43NjMuOTI2LjkyNiwwLDAsMSwuNzY4LS4yMDcuNTIyLjUyMiwwLDAsMCwuMDU3LjAxMWgwQS45OTEuOTkxLDAsMCwxLDcsMjkuMTl2My43M0EyLjQ4NiwyLjQ4NiwwLDAsMCw4LjczMywzNS4zLDIuNjE1LDIuNjE1LDAsMCwwLDEwLDM1LjM3N1Y0MS40NGEyLjk4NywyLjk4NywwLDAsMCwyLjI2OCwyLjkxLDMuMDYzLDMuMDYzLDAsMCwwLC43MzIuMDksMywzLDAsMCwwLDMtM1YzMS4wMWExLjQ2MiwxLjQ2MiwwLDAsMSwuNDY0LTEuMDc2LDEuNDgxLDEuNDgxLDAsMCwxLDEuMDQ5LS40aC4wMDdhLjkzMi45MzIsMCwwLDAsLjEuMDEyQTEuNDcsMS40NywwLDAsMSwxOSwzMS4wMXY0LjQzYTIuOTg3LDIuOTg3LDAsMCwwLDIuMjY4LDIuOTEsMy4wNjMsMy4wNjMsMCwwLDAsLjczMi4wOSwzLDMsMCwwLDAsMy0zVjMxLjQxYTEuNDYyLDEuNDYyLDAsMCwxLC40NDYtMS4wNTksMS40LDEuNCwwLDAsMSwxLjExMy0uNDExQTEuNDgsMS40OCwwLDAsMSwyOCwzMS40MVY0NS44OWEzLjA3MiwzLjA3MiwwLDAsMCwyLjcyNSwzLjA5NSwyLjgsMi44LDAsMCwwLC4yODkuMDE1QTMuMDE1LDMuMDE1LDAsMCwwLDM0LDQ2VjQxLjgxMmEyLjc2MiwyLjc2MiwwLDAsMCwuNzI1LjE3MywyLjgsMi44LDAsMCwwLC4yODkuMDE1QTMuMDE1LDMuMDE1LDAsMCwwLDM4LDM5VjMyLjU2YTIuNywyLjcsMCwwLDEsMi0yLjYxNVY1Mi40MUExLjUwNSwxLjUwNSwwLDAsMSwzOC41MjEsNTMuOTFabTIzLjE3LTIuMjU4YTEsMSwwLDAsMS0uNzE4LjI3OUw0Miw1MS4zMjJ2LS44N2wxNS45NS41MThoLjAzOGEyLjAyNiwyLjAyNiwwLDAsMCwxLjQxMi0uNTc3QTEuOTc5LDEuOTc5LDAsMCwwLDYwLDQ4Ljk3di00YTIsMiwwLDAsMC0xLjkzOC0yTDQyLDQyLjQ1MnYtMWwxNS45NS41MThoLjAzOGEyLjAyNiwyLjAyNiwwLDAsMCwxLjQxMi0uNTc3QTEuOTc5LDEuOTc5LDAsMCwwLDYwLDM5Ljk3di00YTIsMiwwLDAsMC0xLjkzOC0yTDQyLDMzLjQ1MnYtMWwxNS45NS41MThoLjAzOGEyLjAyNiwyLjAyNiwwLDAsMCwxLjQxMi0uNTc3QTEuOTc5LDEuOTc5LDAsMCwwLDYwLDMwLjk3di00YTIsMiwwLDAsMC0xLjkzOC0ybC0xOC4yNDktLjU5NC0yLjcyNi0xLjIxMiwyNC45MTMuOFY1MC45M0EuOTkuOTksMCwwLDEsNjEuNjkxLDUxLjY1MloiLz48dGV4dCBmb250LWZhbWlseT0iJ0hlbHZldGljYSBOZXVlJywgSGVsdmV0aWNhLCBBcmlhbC1Vbmljb2RlLCBBcmlhbCwgU2Fucy1zZXJpZiIgZm9udC13ZWlnaHQ9ImJvbGQiIGZvbnQtc2l6ZT0iNXB4IiBmaWxsPSIjMDAwMDAwIiB5PSI3OSIgeD0iMCI+Q3JlYXRlZCBieSBUb1pJY29uPC90ZXh0Pjx0ZXh0IGZvbnQtZmFtaWx5PSInSGVsdmV0aWNhIE5ldWUnLCBIZWx2ZXRpY2EsIEFyaWFsLVVuaWNvZGUsIEFyaWFsLCBTYW5zLXNlcmlmIiBmb250LXdlaWdodD0iYm9sZCIgZm9udC1zaXplPSI1cHgiIGZpbGw9IiMwMDAwMDAiIHk9Ijg0IiB4PSIwIj5mcm9tIHRoZSBOb3VuIFByb2plY3Q8L3RleHQ+PC9zdmc+;clipPath=inset(10% 0% 29.33% 0%);" vertex="1" parent="1">
          <mxGeometry x="295" y="320" width="171.43" height="130" as="geometry" />
        </mxCell>
      </root>
    </mxGraphModel>
  </diagram>
  <diagram id="29kMmQ4HztWJj-5ggef7" name="MatchCakeV2">
    <mxGraphModel dx="1050" dy="621" grid="1" gridSize="10" guides="1" tooltips="1" connect="1" arrows="1" fold="1" page="1" pageScale="1" pageWidth="850" pageHeight="1100" math="0" shadow="0">
      <root>
        <mxCell id="0" />
        <mxCell id="1" parent="0" />
        <mxCell id="VHak7YDD-5bLV2AzD9XF-21" value="" style="line;strokeWidth=1;html=1;gradientColor=none;fillColor=none;opacity=50;" parent="1" vertex="1">
          <mxGeometry x="160" y="274" width="440" height="10" as="geometry" />
        </mxCell>
        <mxCell id="VHak7YDD-5bLV2AzD9XF-22" value="" style="line;strokeWidth=1;html=1;gradientColor=none;fillColor=none;opacity=50;" parent="1" vertex="1">
          <mxGeometry x="160" y="354.5" width="440" height="10" as="geometry" />
        </mxCell>
        <mxCell id="VHak7YDD-5bLV2AzD9XF-23" value="" style="line;strokeWidth=1;html=1;gradientColor=none;fillColor=none;strokeColor=default;opacity=50;" parent="1" vertex="1">
          <mxGeometry x="160" y="435" width="440" height="10" as="geometry" />
        </mxCell>
        <mxCell id="VHak7YDD-5bLV2AzD9XF-32" value="" style="line;strokeWidth=2;direction=south;html=1;opacity=50;" parent="1" vertex="1">
          <mxGeometry x="275.21" y="160" width="10" height="400" as="geometry" />
        </mxCell>
        <mxCell id="VHak7YDD-5bLV2AzD9XF-33" value="" style="line;strokeWidth=2;direction=south;html=1;opacity=50;" parent="1" vertex="1">
          <mxGeometry x="476" y="160.5" width="10" height="400" as="geometry" />
        </mxCell>
        <mxCell id="VHak7YDD-5bLV2AzD9XF-34" value="" style="line;strokeWidth=2;direction=south;html=1;opacity=50;" parent="1" vertex="1">
          <mxGeometry x="375" y="160.5" width="10" height="400" as="geometry" />
        </mxCell>
        <mxCell id="VHak7YDD-5bLV2AzD9XF-7" value="" style="shape=image;verticalLabelPosition=bottom;labelBackgroundColor=default;verticalAlign=top;aspect=fixed;imageAspect=0;image=data:image/svg+xml,PHN2ZyB4bWxucz0iaHR0cDovL3d3dy53My5vcmcvMjAwMC9zdmciIHk9IjBweCIgeD0iMHB4IiB2aWV3Qm94PSIwIDAgNjQgODAiIGRhdGEtbmFtZT0iU29saWQgTGluZSI+PHBhdGggZD0iTTQzLjgsMTcuM2EzLjYyMSwzLjYyMSwwLDAsMC0yLjI4Ni0yLjIzM0M0MC44ODQsMTMuNDQ3LDM5LjYzOSwxMiwzOCwxMmEyLjksMi45LDAsMCwwLTEuNTQzLjQ3OEMzNS41NTQsMTAuNjY0LDM0LjAzMiw5LDMyLDlzLTMuNTU2LDEuNjY1LTQuNDU4LDMuNDc3QTIuOSwyLjksMCwwLDAsMjYsMTJjLTEuNiwwLTIuODY1LDEuNDI5LTMuNTA4LDMuMDU3QTIuMjUsMi4yNSwwLDAsMCwyMiwxNWEzLjM2NywzLjM2NywwLDAsMC0yLjgyNSwyLjM2Qy4wMTMsMTguNDU3LDAsMjEuMTE4LDAsMjJWNTFjMCwxLjMxNywxLjIwNiwyLjY5Miw5Ljk1MiwzLjgyQTE4MS42NDksMTgxLjY0OSwwLDAsMCwzMiw1NmMyLjI0NCwwLDQuNDU4LS4wMyw2LjU5My0uMDlhMy41LDMuNSwwLDAsMCwzLjI3MS0yLjU5MmwxOS4wNC42MTFjLjAzNywwLC4wNzQsMCwuMTEsMGEzLDMsMCwwLDAsMi45ODYtM1YyMkM2NCwyMS4xLDYzLjk4NiwxOC4zNjIsNDMuOCwxNy4zWk0yNi43OTIsMjAuNzU1YTEuODU2LDEuODU2LDAsMCwxLS4wNDItLjQxNSwyLjgwNywyLjgwNywwLDAsMSwxLjEzLTIuMzA4TDI3Ljk0NywxOGMuNDE4LS4wNjksMS4zLDEuMTI4LDEuMywyLjMzNmExLjk0NCwxLjk0NCwwLDAsMS0uMTQuNzUyQTEuMjg3LDEuMjg3LDAsMCwxLDI4LDIyLDEuNCwxLjQsMCwwLDEsMjYuNzkyLDIwLjc1NVptMTcuNDU3LTEuNDI5YzEwLjY4OC42LDE2LjA5MSwxLjgyNywxNy40NzcsMi42MzNMNDMuNywyMS4zNzdhMy45NywzLjk3LDAsMCwwLC41NTItMi4wMzdabS0yLC4wMTRjMCwuOS0uNTcyLDEuNjYtMS4yNSwxLjY2YS45NTMuOTUzLDAsMCwxLS40LS4xLDQuNjkxLDQuNjkxLDAsMCwwLDEuMzU1LTIuOCwzLjQ0LDMuNDQsMCwwLDEsLjE2OS40MzRBMy4xMzEsMy4xMzEsMCwwLDEsNDIuMjUsMTkuMzRabS0yLjQyNS0zLjAyNEEzLjg4NSwzLjg4NSwwLDAsMSw0MCwxNy40NWEyLjU5LDIuNTksMCwwLDEtMS4zMzcsMi40LDEuNiwxLjYsMCwwLDEtMS43NzYtLjI4OEE2Ljk4LDYuOTgsMCwwLDAsMzcuNSwxNi42OGE4Ljg4NCw4Ljg4NCwwLDAsMC0uMzExLTIuMjUxQTEuMjQzLDEuMjQzLDAsMCwxLDM4LDE0QzM4LjY1MywxNCwzOS40NjksMTUuMDI1LDM5LjgyNSwxNi4zMTZaTTMyLDExYzEuMTYyLDAsMi40NzgsMS40NzEsMy4xMywzLjVhNy4yLDcuMiwwLDAsMSwuMzcsMi4xNzcsNC44NjEsNC44NjEsMCwwLDEtLjY3NSwyLjUyOEEzLjMzMywzLjMzMywwLDAsMSwzMiwyMWEyLjgxLDIuODEsMCwwLDEtLjgtLjEyMyw0LjMsNC4zLDAsMCwwLC4wNDktLjUzN2MwLTEuNjM5LTEuMDEzLTMuODU2LTIuNy00LjI2N2E3LjQ1NCw3LjQ1NCwwLDAsMSwuMzE4LTEuNTc3QzI5LjUyMiwxMi40NzEsMzAuODM4LDExLDMyLDExWm0tNiwzYTEuMjQzLDEuMjQzLDAsMCwxLC44MTEuNDI5LDguOTU4LDguOTU4LDAsMCwwLS4zLDIuMTA2LDQuOTI5LDQuOTI5LDAsMCwwLTEuNjcsMi45ODJjLS4wMDktLjAwOS0uMDIyLS4wMTgtLjAzLS4wMjZBMi43ODYsMi43ODYsMCwwLDEsMjQsMTcuNDVhMy41NiwzLjU2LDAsMCwxLC4wODMtLjc1OUMyNC4zNDQsMTUuMjgzLDI1LjI1OCwxNCwyNiwxNFptLTUuMTMyLDQuNTcyQzIxLjExOCwxNy42MTIsMjEuNzA1LDE3LDIyLDE3YS4yMDkuMjA5LDAsMCwxLC4wMjMuMDA4Yy0uMDEyLjE0Ny0uMDIzLjI5NC0uMDIzLjQ0MmE0LjksNC45LDAsMCwwLC45NjEsMi45NEExLjE2NiwxLjE2NiwwLDAsMSwyMiwyMWMtLjY3OCwwLTEuMjUtLjc2MS0xLjI1LTEuNjZBMi43MzIsMi43MzIsMCwwLDEsMjAuODY4LDE4LjU3MlptLTIuMTEzLjgxOUEzLjQ2OSwzLjQ2OSwwLDAsMCwyMiwyM2EzLjEwNywzLjEwNywwLDAsMCwyLjUtMS4zMzQsMy41NzYsMy41NzYsMCwwLDAsLjU0Mi4xOTRBMy4yMjcsMy4yMjcsMCwwLDAsMjgsMjRhMy4xMTcsMy4xMTcsMCwwLDAsMi40NTgtMS4yNjUsNC44MjIsNC44MjIsMCwwLDAsMS4yOTEuMjQ4TDM2LjIsMjQuOTYxYy0xLjQxLjAyNS0yLjgxNC4wMzktNC4yLjAzOS00Ljg5MywwLTkuNzc3LS4xNTEtMTQuMTIzLS40MzhDNy4yODUsMjMuODUxLDMuMjU1LDIyLjYxNywyLjIwOSwyMiwzLjI5MiwyMS4zNDQsNy41NjQsMjAuMDY2LDE4Ljc1NSwxOS4zOTFaTTM4LjUyMSw1My45MWMtMi4xLjA2LTQuMy4wOS02LjUyMS4wOUMxNC40ODEsNTQsMy4yODgsNTIuMTYyLDIsNTAuODUzdi0xMy41YTIuNDUsMi40NSwwLDAsMCwuNTEuMDYyQTIuNSwyLjUsMCwwLDAsNSwzNC45MlYyOS4xOWEuOTg5Ljk4OSwwLDAsMSwuMzU4LS43NjMuOTI2LjkyNiwwLDAsMSwuNzY4LS4yMDcuNTIyLjUyMiwwLDAsMCwuMDU3LjAxMWgwQS45OTEuOTkxLDAsMCwxLDcsMjkuMTl2My43M0EyLjQ4NiwyLjQ4NiwwLDAsMCw4LjczMywzNS4zLDIuNjE1LDIuNjE1LDAsMCwwLDEwLDM1LjM3N1Y0MS40NGEyLjk4NywyLjk4NywwLDAsMCwyLjI2OCwyLjkxLDMuMDYzLDMuMDYzLDAsMCwwLC43MzIuMDksMywzLDAsMCwwLDMtM1YzMS4wMWExLjQ2MiwxLjQ2MiwwLDAsMSwuNDY0LTEuMDc2LDEuNDgxLDEuNDgxLDAsMCwxLDEuMDQ5LS40aC4wMDdhLjkzMi45MzIsMCwwLDAsLjEuMDEyQTEuNDcsMS40NywwLDAsMSwxOSwzMS4wMXY0LjQzYTIuOTg3LDIuOTg3LDAsMCwwLDIuMjY4LDIuOTEsMy4wNjMsMy4wNjMsMCwwLDAsLjczMi4wOSwzLDMsMCwwLDAsMy0zVjMxLjQxYTEuNDYyLDEuNDYyLDAsMCwxLC40NDYtMS4wNTksMS40LDEuNCwwLDAsMSwxLjExMy0uNDExQTEuNDgsMS40OCwwLDAsMSwyOCwzMS40MVY0NS44OWEzLjA3MiwzLjA3MiwwLDAsMCwyLjcyNSwzLjA5NSwyLjgsMi44LDAsMCwwLC4yODkuMDE1QTMuMDE1LDMuMDE1LDAsMCwwLDM0LDQ2VjQxLjgxMmEyLjc2MiwyLjc2MiwwLDAsMCwuNzI1LjE3MywyLjgsMi44LDAsMCwwLC4yODkuMDE1QTMuMDE1LDMuMDE1LDAsMCwwLDM4LDM5VjMyLjU2YTIuNywyLjcsMCwwLDEsMi0yLjYxNVY1Mi40MUExLjUwNSwxLjUwNSwwLDAsMSwzOC41MjEsNTMuOTFabTIzLjE3LTIuMjU4YTEsMSwwLDAsMS0uNzE4LjI3OUw0Miw1MS4zMjJ2LS44N2wxNS45NS41MThoLjAzOGEyLjAyNiwyLjAyNiwwLDAsMCwxLjQxMi0uNTc3QTEuOTc5LDEuOTc5LDAsMCwwLDYwLDQ4Ljk3di00YTIsMiwwLDAsMC0xLjkzOC0yTDQyLDQyLjQ1MnYtMWwxNS45NS41MThoLjAzOGEyLjAyNiwyLjAyNiwwLDAsMCwxLjQxMi0uNTc3QTEuOTc5LDEuOTc5LDAsMCwwLDYwLDM5Ljk3di00YTIsMiwwLDAsMC0xLjkzOC0yTDQyLDMzLjQ1MnYtMWwxNS45NS41MThoLjAzOGEyLjAyNiwyLjAyNiwwLDAsMCwxLjQxMi0uNTc3QTEuOTc5LDEuOTc5LDAsMCwwLDYwLDMwLjk3di00YTIsMiwwLDAsMC0xLjkzOC0ybC0xOC4yNDktLjU5NC0yLjcyNi0xLjIxMiwyNC45MTMuOFY1MC45M0EuOTkuOTksMCwwLDEsNjEuNjkxLDUxLjY1MloiLz48dGV4dCBmb250LWZhbWlseT0iJ0hlbHZldGljYSBOZXVlJywgSGVsdmV0aWNhLCBBcmlhbC1Vbmljb2RlLCBBcmlhbCwgU2Fucy1zZXJpZiIgZm9udC13ZWlnaHQ9ImJvbGQiIGZvbnQtc2l6ZT0iNXB4IiBmaWxsPSIjMDAwMDAwIiB5PSI3OSIgeD0iMCI+Q3JlYXRlZCBieSBUb1pJY29uPC90ZXh0Pjx0ZXh0IGZvbnQtZmFtaWx5PSInSGVsdmV0aWNhIE5ldWUnLCBIZWx2ZXRpY2EsIEFyaWFsLVVuaWNvZGUsIEFyaWFsLCBTYW5zLXNlcmlmIiBmb250LXdlaWdodD0iYm9sZCIgZm9udC1zaXplPSI1cHgiIGZpbGw9IiMwMDAwMDAiIHk9Ijg0IiB4PSIwIj5mcm9tIHRoZSBOb3VuIFByb2plY3Q8L3RleHQ+PC9zdmc+;clipPath=inset(10% 0% 29.33% 0%);" parent="1" vertex="1">
          <mxGeometry x="285" y="286" width="190" height="144.08" as="geometry" />
        </mxCell>
        <mxCell id="VHak7YDD-5bLV2AzD9XF-25" value="" style="shape=image;verticalLabelPosition=bottom;labelBackgroundColor=default;verticalAlign=top;aspect=fixed;imageAspect=0;image=data:image/svg+xml,PHN2ZyB4bWxuczp4bGluaz0iaHR0cDovL3d3dy53My5vcmcvMTk5OS94bGluayIgeG1sbnM9Imh0dHA6Ly93d3cudzMub3JnLzIwMDAvc3ZnIiB4bWw6c3BhY2U9InByZXNlcnZlIiB2aWV3Qm94PSIwIDAgMTAwIDEyNSIgeT0iMHB4IiB4PSIwcHgiIHZlcnNpb249IjEuMSI+PGc+PGc+PHBhdGggZD0iTTQ4LjI2Nyw1Mi44MTJjLTkuODg3LDAtMjguNTg2LTEuNjM2LTI4LjU4Ni03LjgyNGMwLTQuMjk4LDguNzQyLTYuMjQ2LDE2LjA3Ni03LjEyMmMwLjgyNC0wLjA5OCwxLjU3LDAuNDg5LDEuNjY3LDEuMzExICAgIGMwLjA5OSwwLjgyMy0wLjQ4OSwxLjU2OS0xLjMxMSwxLjY2N2MtMTAuMTI1LDEuMjEtMTMuNDMzLDMuNDkzLTEzLjQzMyw0LjE0NGMwLDEuNDQzLDguNzA1LDQuODI0LDI1LjU4Niw0LjgyNCAgICBjMTYuODgsMCwyNS41ODQtMy4zODEsMjUuNTg0LTQuODI0cy04LjcwNC00LjgyNS0yNS41ODQtNC44MjVjLTAuOTQsMC0xLjg2OCwwLjAxMS0yLjc4MywwLjAzMyAgICBjLTAuODE1LDAuMDU2LTEuNTE2LTAuNjM1LTEuNTM2LTEuNDYzczAuNjM1LTEuNTE2LDEuNDYzLTEuNTM2YzAuOTM4LTAuMDIzLDEuODkxLTAuMDM0LDIuODU1LTAuMDM0ICAgIGM5Ljg4NywwLDI4LjU4NCwxLjYzNSwyOC41ODQsNy44MjVDNzYuODUyLDUxLjE3Niw1OC4xNTQsNTIuODEyLDQ4LjI2Nyw1Mi44MTJ6Ii8+PC9nPjxnPjxwYXRoIGQ9Ik00OC4yNjEsODQuNzkyYy0xNS43NjUsMC0yOC41OTEtMTUuMTM1LTI4LjU5MS0zMy43MzhjMC0xLjQyNCwwLjA3Ni0yLjg1NiwwLjIyNi00LjI1NiAgICBjMC4wODgtMC44MjUsMC44MzQtMS40MTIsMS42NTEtMS4zMzJjMC44MjQsMC4wODgsMS40MiwwLjgyOCwxLjMzMiwxLjY1MWMtMC4xMzksMS4yOTQtMC4yMDksMi42MTktMC4yMDksMy45MzcgICAgYzAsMTYuOTQ5LDExLjQ4LDMwLjczOCwyNS41OTEsMzAuNzM4YzE0LjExMSwwLDI1LjU5LTEzLjc4OSwyNS41OS0zMC43MzhjMC0xLjUxMi0wLjA5Mi0zLjAzNC0wLjI3NC00LjUyMyAgICBjLTAuMTAxLTAuODIyLDAuNDg1LTEuNTcsMS4zMDgtMS42N2MwLjgyMi0wLjEwMywxLjU3LDAuNDg0LDEuNjcxLDEuMzA3YzAuMTk2LDEuNjA5LDAuMjk2LDMuMjUzLDAuMjk2LDQuODg3ICAgIEM3Ni44NTIsNjkuNjU3LDY0LjAyNiw4NC43OTIsNDguMjYxLDg0Ljc5MnoiLz48L2c+PGc+PHBhdGggZD0iTTQ4LjM0NCw5My40NjFjLTE3LjUzOCwwLTM2LjE3Ny00LjM1Mi0zNi4xNzctMTIuNDE1YzAtMi4wNTYsMS4yODktNS4wNjksNy40MjctNy43NDkgICAgYzAuNzYtMC4zMjksMS42NDMsMC4wMTcsMS45NzUsMC43NzVzLTAuMDE1LDEuNjQzLTAuNzc0LDEuOTc1Yy0zLjU3NiwxLjU2MS01LjYyNywzLjM4My01LjYyNyw0Ljk5OSAgICBjMCw0LjQ0NCwxNC4xODgsOS40MTUsMzMuMTc3LDkuNDE1YzE4Ljk4OSwwLDMzLjE3Ny00Ljk3MSwzMy4xNzctOS40MTVjMC0xLjU2Ni0xLjk0NC0zLjM0Mi01LjMzNS00Ljg3MSAgICBjLTAuNzU2LTAuMzQtMS4wOTItMS4yMjktMC43NTEtMS45ODNjMC4zNC0wLjc1NiwxLjIyNy0xLjA5NSwxLjk4My0wLjc1MWM1Ljg3LDIuNjQ2LDcuMTAzLDUuNTk3LDcuMTAzLDcuNjA1ICAgIEM4NC41MjEsODkuMTA5LDY1Ljg4Miw5My40NjEsNDguMzQ0LDkzLjQ2MXoiLz48L2c+PGc+PHBhdGggZD0iTTcxLjc2Niw3MC43OTZjLTAuODI4LDAtMS41LTAuNjcyLTEuNS0xLjVzMC42NzItMS41LDEuNS0xLjVjNS4yNzgsMCwxMy4wNjYtNS4wOTYsMTMuMDY2LTkuNjczICAgIGMwLTQuODQ5LTMuOTQzLTguNzkzLTguNzkxLTguNzkzYy0wLjgyOCwwLTEuNS0wLjY3MS0xLjUtMS41czAuNjcyLTEuNSwxLjUtMS41YzYuNTAyLDAsMTEuNzkxLDUuMjkxLDExLjc5MSwxMS43OTMgICAgQzg3LjgzMiw2NC45OTYsNzcuOTY0LDcwLjc5Niw3MS43NjYsNzAuNzk2eiIvPjwvZz48Zz48cGF0aCBkPSJNNDEuMTM5LDQzLjMwNWMtMC40MjIsMC0wLjg0My0wLjE3OC0xLjEzOS0wLjUyNGMtMi45MDctMy4zOTEtMC41MjQtOC4wOTksMS41NzgtMTIuMjUzICAgIGMxLjk5Ni0zLjk0MywzLjE5MS02LjYxMiwxLjY4NC03LjcyNWMtNS45NDYtNC4zODktNC4zMDItMTQuNTgyLTQuMjI5LTE1LjAxNGMwLjEzOC0wLjgxNiwwLjkxLTEuMzY2LDEuNzI3LTEuMjI5ICAgIGMwLjgxNiwwLjEzNywxLjM2NywwLjkxLDEuMjMxLDEuNzI3Yy0wLjAxNSwwLjA4OC0xLjQwOSw4LjgxLDMuMDUyLDEyLjEwMmMzLjY2MSwyLjcwMiwxLjI5Nyw3LjM3My0wLjc4OCwxMS40OTMgICAgYy0xLjc2LDMuNDc5LTMuNTgxLDcuMDc2LTEuOTc4LDguOTQ3YzAuNTQsMC42MjksMC40NjYsMS41NzYtMC4xNjMsMi4xMTVDNDEuODMyLDQzLjE4Nyw0MS40ODQsNDMuMzA1LDQxLjEzOSw0My4zMDV6Ii8+PC9nPjxnPjxwYXRoIGQ9Ik0zMS4yOTcsMzUuNDAyYy0wLjM4OSwwLTAuNzc5LTAuMTQ5LTEuMDc0LTAuNDQ0Yy0xLjkwNC0xLjkwNy0wLjY3NC01LjYzNiwyLjA5NC0xMS40MzQgICAgYzIuMDMtNC4yNTUtMi40ODItNy4zMjYtMi42NzUtNy40NTVjLTAuNjg4LTAuNDU4LTAuODc3LTEuMzg4LTAuNDIyLTIuMDc3YzAuNDU3LTAuNjg4LDEuMzgxLTAuODgxLDIuMDcyLTAuNDI5ICAgIGMyLjM5NywxLjU3Myw2LjI2Myw1Ljk0OCwzLjczMiwxMS4yNTJjLTMuMDcxLDYuNDMyLTIuODE1LDcuNzgtMi42NjQsOC4wNDFjMC41ODUsMC41ODYsMC41NzgsMS41MjYtMC4wMDksMi4xMTIgICAgQzMyLjA2MSwzNS4yNTgsMzEuNjc5LDM1LjQwMiwzMS4yOTcsMzUuNDAyeiIvPjwvZz48Zz48cGF0aCBkPSJNNTMuMTgzLDM0LjgwNGMtMC4zODksMC0wLjc3OC0wLjE0OS0xLjA3NC0wLjQ0NGMtMS45MDMtMS45MDUtMC42NzQtNS42MzUsMi4wOTMtMTEuNDM1ICAgIGMyLjAzMS00LjI1NS0yLjQ3OS03LjMyNi0yLjY3My03LjQ1NWMtMC42ODgtMC40NTgtMC44NzgtMS4zODgtMC40MjItMi4wNzdjMC40NTctMC42ODgsMS4zNzktMC44ODEsMi4wNzItMC40MjkgICAgYzIuMzk2LDEuNTczLDYuMjYyLDUuOTQ5LDMuNzI5LDExLjI1MmMtMy4wNjgsNi40MzQtMi44MTMsNy43ODEtMi42NjIsOC4wNDFjMC41ODYsMC41ODYsMC41NzcsMS41MjctMC4wMDksMi4xMTIgICAgQzUzLjk0NywzNC42Niw1My41NjUsMzQuODA0LDUzLjE4MywzNC44MDR6Ii8+PC9nPjwvZz48dGV4dCBmb250LWZhbWlseT0iJ0hlbHZldGljYSBOZXVlJywgSGVsdmV0aWNhLCBBcmlhbC1Vbmljb2RlLCBBcmlhbCwgU2Fucy1zZXJpZiIgZm9udC13ZWlnaHQ9ImJvbGQiIGZvbnQtc2l6ZT0iNXB4IiBmaWxsPSIjMDAwMDAwIiB5PSIxMTUiIHg9IjAiPkNyZWF0ZWQgYnkgQmVzdGRlc2lnbm1hcmtldDwvdGV4dD48dGV4dCBmb250LWZhbWlseT0iJ0hlbHZldGljYSBOZXVlJywgSGVsdmV0aWNhLCBBcmlhbC1Vbmljb2RlLCBBcmlhbCwgU2Fucy1zZXJpZiIgZm9udC13ZWlnaHQ9ImJvbGQiIGZvbnQtc2l6ZT0iNXB4IiBmaWxsPSIjMDAwMDAwIiB5PSIxMjAiIHg9IjAiPmZyb20gdGhlIE5vdW4gUHJvamVjdDwvdGV4dD48L3N2Zz4=;clipPath=inset(4.67% 10% 24.67% 10%);" parent="1" vertex="1">
          <mxGeometry x="486.79" y="154" width="113.20754716981132" height="125" as="geometry" />
        </mxCell>
        <mxCell id="VHak7YDD-5bLV2AzD9XF-26" value="" style="shape=image;verticalLabelPosition=bottom;labelBackgroundColor=default;verticalAlign=top;aspect=fixed;imageAspect=0;image=data:image/svg+xml,PHN2ZyB4bWxuczp4bGluaz0iaHR0cDovL3d3dy53My5vcmcvMTk5OS94bGluayIgeG1sbnM9Imh0dHA6Ly93d3cudzMub3JnLzIwMDAvc3ZnIiB4bWw6c3BhY2U9InByZXNlcnZlIiB2aWV3Qm94PSIwIDAgMTAwIDEyNSIgeT0iMHB4IiB4PSIwcHgiIHZlcnNpb249IjEuMSI+PGc+PGc+PHBhdGggZD0iTTQ4LjI2Nyw1Mi44MTJjLTkuODg3LDAtMjguNTg2LTEuNjM2LTI4LjU4Ni03LjgyNGMwLTQuMjk4LDguNzQyLTYuMjQ2LDE2LjA3Ni03LjEyMmMwLjgyNC0wLjA5OCwxLjU3LDAuNDg5LDEuNjY3LDEuMzExICAgIGMwLjA5OSwwLjgyMy0wLjQ4OSwxLjU2OS0xLjMxMSwxLjY2N2MtMTAuMTI1LDEuMjEtMTMuNDMzLDMuNDkzLTEzLjQzMyw0LjE0NGMwLDEuNDQzLDguNzA1LDQuODI0LDI1LjU4Niw0LjgyNCAgICBjMTYuODgsMCwyNS41ODQtMy4zODEsMjUuNTg0LTQuODI0cy04LjcwNC00LjgyNS0yNS41ODQtNC44MjVjLTAuOTQsMC0xLjg2OCwwLjAxMS0yLjc4MywwLjAzMyAgICBjLTAuODE1LDAuMDU2LTEuNTE2LTAuNjM1LTEuNTM2LTEuNDYzczAuNjM1LTEuNTE2LDEuNDYzLTEuNTM2YzAuOTM4LTAuMDIzLDEuODkxLTAuMDM0LDIuODU1LTAuMDM0ICAgIGM5Ljg4NywwLDI4LjU4NCwxLjYzNSwyOC41ODQsNy44MjVDNzYuODUyLDUxLjE3Niw1OC4xNTQsNTIuODEyLDQ4LjI2Nyw1Mi44MTJ6Ii8+PC9nPjxnPjxwYXRoIGQ9Ik00OC4yNjEsODQuNzkyYy0xNS43NjUsMC0yOC41OTEtMTUuMTM1LTI4LjU5MS0zMy43MzhjMC0xLjQyNCwwLjA3Ni0yLjg1NiwwLjIyNi00LjI1NiAgICBjMC4wODgtMC44MjUsMC44MzQtMS40MTIsMS42NTEtMS4zMzJjMC44MjQsMC4wODgsMS40MiwwLjgyOCwxLjMzMiwxLjY1MWMtMC4xMzksMS4yOTQtMC4yMDksMi42MTktMC4yMDksMy45MzcgICAgYzAsMTYuOTQ5LDExLjQ4LDMwLjczOCwyNS41OTEsMzAuNzM4YzE0LjExMSwwLDI1LjU5LTEzLjc4OSwyNS41OS0zMC43MzhjMC0xLjUxMi0wLjA5Mi0zLjAzNC0wLjI3NC00LjUyMyAgICBjLTAuMTAxLTAuODIyLDAuNDg1LTEuNTcsMS4zMDgtMS42N2MwLjgyMi0wLjEwMywxLjU3LDAuNDg0LDEuNjcxLDEuMzA3YzAuMTk2LDEuNjA5LDAuMjk2LDMuMjUzLDAuMjk2LDQuODg3ICAgIEM3Ni44NTIsNjkuNjU3LDY0LjAyNiw4NC43OTIsNDguMjYxLDg0Ljc5MnoiLz48L2c+PGc+PHBhdGggZD0iTTQ4LjM0NCw5My40NjFjLTE3LjUzOCwwLTM2LjE3Ny00LjM1Mi0zNi4xNzctMTIuNDE1YzAtMi4wNTYsMS4yODktNS4wNjksNy40MjctNy43NDkgICAgYzAuNzYtMC4zMjksMS42NDMsMC4wMTcsMS45NzUsMC43NzVzLTAuMDE1LDEuNjQzLTAuNzc0LDEuOTc1Yy0zLjU3NiwxLjU2MS01LjYyNywzLjM4My01LjYyNyw0Ljk5OSAgICBjMCw0LjQ0NCwxNC4xODgsOS40MTUsMzMuMTc3LDkuNDE1YzE4Ljk4OSwwLDMzLjE3Ny00Ljk3MSwzMy4xNzctOS40MTVjMC0xLjU2Ni0xLjk0NC0zLjM0Mi01LjMzNS00Ljg3MSAgICBjLTAuNzU2LTAuMzQtMS4wOTItMS4yMjktMC43NTEtMS45ODNjMC4zNC0wLjc1NiwxLjIyNy0xLjA5NSwxLjk4My0wLjc1MWM1Ljg3LDIuNjQ2LDcuMTAzLDUuNTk3LDcuMTAzLDcuNjA1ICAgIEM4NC41MjEsODkuMTA5LDY1Ljg4Miw5My40NjEsNDguMzQ0LDkzLjQ2MXoiLz48L2c+PGc+PHBhdGggZD0iTTcxLjc2Niw3MC43OTZjLTAuODI4LDAtMS41LTAuNjcyLTEuNS0xLjVzMC42NzItMS41LDEuNS0xLjVjNS4yNzgsMCwxMy4wNjYtNS4wOTYsMTMuMDY2LTkuNjczICAgIGMwLTQuODQ5LTMuOTQzLTguNzkzLTguNzkxLTguNzkzYy0wLjgyOCwwLTEuNS0wLjY3MS0xLjUtMS41czAuNjcyLTEuNSwxLjUtMS41YzYuNTAyLDAsMTEuNzkxLDUuMjkxLDExLjc5MSwxMS43OTMgICAgQzg3LjgzMiw2NC45OTYsNzcuOTY0LDcwLjc5Niw3MS43NjYsNzAuNzk2eiIvPjwvZz48Zz48cGF0aCBkPSJNNDEuMTM5LDQzLjMwNWMtMC40MjIsMC0wLjg0My0wLjE3OC0xLjEzOS0wLjUyNGMtMi45MDctMy4zOTEtMC41MjQtOC4wOTksMS41NzgtMTIuMjUzICAgIGMxLjk5Ni0zLjk0MywzLjE5MS02LjYxMiwxLjY4NC03LjcyNWMtNS45NDYtNC4zODktNC4zMDItMTQuNTgyLTQuMjI5LTE1LjAxNGMwLjEzOC0wLjgxNiwwLjkxLTEuMzY2LDEuNzI3LTEuMjI5ICAgIGMwLjgxNiwwLjEzNywxLjM2NywwLjkxLDEuMjMxLDEuNzI3Yy0wLjAxNSwwLjA4OC0xLjQwOSw4LjgxLDMuMDUyLDEyLjEwMmMzLjY2MSwyLjcwMiwxLjI5Nyw3LjM3My0wLjc4OCwxMS40OTMgICAgYy0xLjc2LDMuNDc5LTMuNTgxLDcuMDc2LTEuOTc4LDguOTQ3YzAuNTQsMC42MjksMC40NjYsMS41NzYtMC4xNjMsMi4xMTVDNDEuODMyLDQzLjE4Nyw0MS40ODQsNDMuMzA1LDQxLjEzOSw0My4zMDV6Ii8+PC9nPjxnPjxwYXRoIGQ9Ik0zMS4yOTcsMzUuNDAyYy0wLjM4OSwwLTAuNzc5LTAuMTQ5LTEuMDc0LTAuNDQ0Yy0xLjkwNC0xLjkwNy0wLjY3NC01LjYzNiwyLjA5NC0xMS40MzQgICAgYzIuMDMtNC4yNTUtMi40ODItNy4zMjYtMi42NzUtNy40NTVjLTAuNjg4LTAuNDU4LTAuODc3LTEuMzg4LTAuNDIyLTIuMDc3YzAuNDU3LTAuNjg4LDEuMzgxLTAuODgxLDIuMDcyLTAuNDI5ICAgIGMyLjM5NywxLjU3Myw2LjI2Myw1Ljk0OCwzLjczMiwxMS4yNTJjLTMuMDcxLDYuNDMyLTIuODE1LDcuNzgtMi42NjQsOC4wNDFjMC41ODUsMC41ODYsMC41NzgsMS41MjYtMC4wMDksMi4xMTIgICAgQzMyLjA2MSwzNS4yNTgsMzEuNjc5LDM1LjQwMiwzMS4yOTcsMzUuNDAyeiIvPjwvZz48Zz48cGF0aCBkPSJNNTMuMTgzLDM0LjgwNGMtMC4zODksMC0wLjc3OC0wLjE0OS0xLjA3NC0wLjQ0NGMtMS45MDMtMS45MDUtMC42NzQtNS42MzUsMi4wOTMtMTEuNDM1ICAgIGMyLjAzMS00LjI1NS0yLjQ3OS03LjMyNi0yLjY3My03LjQ1NWMtMC42ODgtMC40NTgtMC44NzgtMS4zODgtMC40MjItMi4wNzdjMC40NTctMC42ODgsMS4zNzktMC44ODEsMi4wNzItMC40MjkgICAgYzIuMzk2LDEuNTczLDYuMjYyLDUuOTQ5LDMuNzI5LDExLjI1MmMtMy4wNjgsNi40MzQtMi44MTMsNy43ODEtMi42NjIsOC4wNDFjMC41ODYsMC41ODYsMC41NzcsMS41MjctMC4wMDksMi4xMTIgICAgQzUzLjk0NywzNC42Niw1My41NjUsMzQuODA0LDUzLjE4MywzNC44MDR6Ii8+PC9nPjwvZz48dGV4dCBmb250LWZhbWlseT0iJ0hlbHZldGljYSBOZXVlJywgSGVsdmV0aWNhLCBBcmlhbC1Vbmljb2RlLCBBcmlhbCwgU2Fucy1zZXJpZiIgZm9udC13ZWlnaHQ9ImJvbGQiIGZvbnQtc2l6ZT0iNXB4IiBmaWxsPSIjMDAwMDAwIiB5PSIxMTUiIHg9IjAiPkNyZWF0ZWQgYnkgQmVzdGRlc2lnbm1hcmtldDwvdGV4dD48dGV4dCBmb250LWZhbWlseT0iJ0hlbHZldGljYSBOZXVlJywgSGVsdmV0aWNhLCBBcmlhbC1Vbmljb2RlLCBBcmlhbCwgU2Fucy1zZXJpZiIgZm9udC13ZWlnaHQ9ImJvbGQiIGZvbnQtc2l6ZT0iNXB4IiBmaWxsPSIjMDAwMDAwIiB5PSIxMjAiIHg9IjAiPmZyb20gdGhlIE5vdW4gUHJvamVjdDwvdGV4dD48L3N2Zz4=;clipPath=inset(4.67% 10% 24.67% 10%);" parent="1" vertex="1">
          <mxGeometry x="160" y="154" width="113.20754716981132" height="125" as="geometry" />
        </mxCell>
        <mxCell id="VHak7YDD-5bLV2AzD9XF-27" value="" style="shape=image;verticalLabelPosition=bottom;labelBackgroundColor=default;verticalAlign=top;aspect=fixed;imageAspect=0;image=data:image/svg+xml,PHN2ZyB4bWxuczp4bGluaz0iaHR0cDovL3d3dy53My5vcmcvMTk5OS94bGluayIgeG1sbnM9Imh0dHA6Ly93d3cudzMub3JnLzIwMDAvc3ZnIiB4bWw6c3BhY2U9InByZXNlcnZlIiB2aWV3Qm94PSIwIDAgMTAwIDEyNSIgeT0iMHB4IiB4PSIwcHgiIHZlcnNpb249IjEuMSI+PGc+PGc+PHBhdGggZD0iTTQ4LjI2Nyw1Mi44MTJjLTkuODg3LDAtMjguNTg2LTEuNjM2LTI4LjU4Ni03LjgyNGMwLTQuMjk4LDguNzQyLTYuMjQ2LDE2LjA3Ni03LjEyMmMwLjgyNC0wLjA5OCwxLjU3LDAuNDg5LDEuNjY3LDEuMzExICAgIGMwLjA5OSwwLjgyMy0wLjQ4OSwxLjU2OS0xLjMxMSwxLjY2N2MtMTAuMTI1LDEuMjEtMTMuNDMzLDMuNDkzLTEzLjQzMyw0LjE0NGMwLDEuNDQzLDguNzA1LDQuODI0LDI1LjU4Niw0LjgyNCAgICBjMTYuODgsMCwyNS41ODQtMy4zODEsMjUuNTg0LTQuODI0cy04LjcwNC00LjgyNS0yNS41ODQtNC44MjVjLTAuOTQsMC0xLjg2OCwwLjAxMS0yLjc4MywwLjAzMyAgICBjLTAuODE1LDAuMDU2LTEuNTE2LTAuNjM1LTEuNTM2LTEuNDYzczAuNjM1LTEuNTE2LDEuNDYzLTEuNTM2YzAuOTM4LTAuMDIzLDEuODkxLTAuMDM0LDIuODU1LTAuMDM0ICAgIGM5Ljg4NywwLDI4LjU4NCwxLjYzNSwyOC41ODQsNy44MjVDNzYuODUyLDUxLjE3Niw1OC4xNTQsNTIuODEyLDQ4LjI2Nyw1Mi44MTJ6Ii8+PC9nPjxnPjxwYXRoIGQ9Ik00OC4yNjEsODQuNzkyYy0xNS43NjUsMC0yOC41OTEtMTUuMTM1LTI4LjU5MS0zMy43MzhjMC0xLjQyNCwwLjA3Ni0yLjg1NiwwLjIyNi00LjI1NiAgICBjMC4wODgtMC44MjUsMC44MzQtMS40MTIsMS42NTEtMS4zMzJjMC44MjQsMC4wODgsMS40MiwwLjgyOCwxLjMzMiwxLjY1MWMtMC4xMzksMS4yOTQtMC4yMDksMi42MTktMC4yMDksMy45MzcgICAgYzAsMTYuOTQ5LDExLjQ4LDMwLjczOCwyNS41OTEsMzAuNzM4YzE0LjExMSwwLDI1LjU5LTEzLjc4OSwyNS41OS0zMC43MzhjMC0xLjUxMi0wLjA5Mi0zLjAzNC0wLjI3NC00LjUyMyAgICBjLTAuMTAxLTAuODIyLDAuNDg1LTEuNTcsMS4zMDgtMS42N2MwLjgyMi0wLjEwMywxLjU3LDAuNDg0LDEuNjcxLDEuMzA3YzAuMTk2LDEuNjA5LDAuMjk2LDMuMjUzLDAuMjk2LDQuODg3ICAgIEM3Ni44NTIsNjkuNjU3LDY0LjAyNiw4NC43OTIsNDguMjYxLDg0Ljc5MnoiLz48L2c+PGc+PHBhdGggZD0iTTQ4LjM0NCw5My40NjFjLTE3LjUzOCwwLTM2LjE3Ny00LjM1Mi0zNi4xNzctMTIuNDE1YzAtMi4wNTYsMS4yODktNS4wNjksNy40MjctNy43NDkgICAgYzAuNzYtMC4zMjksMS42NDMsMC4wMTcsMS45NzUsMC43NzVzLTAuMDE1LDEuNjQzLTAuNzc0LDEuOTc1Yy0zLjU3NiwxLjU2MS01LjYyNywzLjM4My01LjYyNyw0Ljk5OSAgICBjMCw0LjQ0NCwxNC4xODgsOS40MTUsMzMuMTc3LDkuNDE1YzE4Ljk4OSwwLDMzLjE3Ny00Ljk3MSwzMy4xNzctOS40MTVjMC0xLjU2Ni0xLjk0NC0zLjM0Mi01LjMzNS00Ljg3MSAgICBjLTAuNzU2LTAuMzQtMS4wOTItMS4yMjktMC43NTEtMS45ODNjMC4zNC0wLjc1NiwxLjIyNy0xLjA5NSwxLjk4My0wLjc1MWM1Ljg3LDIuNjQ2LDcuMTAzLDUuNTk3LDcuMTAzLDcuNjA1ICAgIEM4NC41MjEsODkuMTA5LDY1Ljg4Miw5My40NjEsNDguMzQ0LDkzLjQ2MXoiLz48L2c+PGc+PHBhdGggZD0iTTcxLjc2Niw3MC43OTZjLTAuODI4LDAtMS41LTAuNjcyLTEuNS0xLjVzMC42NzItMS41LDEuNS0xLjVjNS4yNzgsMCwxMy4wNjYtNS4wOTYsMTMuMDY2LTkuNjczICAgIGMwLTQuODQ5LTMuOTQzLTguNzkzLTguNzkxLTguNzkzYy0wLjgyOCwwLTEuNS0wLjY3MS0xLjUtMS41czAuNjcyLTEuNSwxLjUtMS41YzYuNTAyLDAsMTEuNzkxLDUuMjkxLDExLjc5MSwxMS43OTMgICAgQzg3LjgzMiw2NC45OTYsNzcuOTY0LDcwLjc5Niw3MS43NjYsNzAuNzk2eiIvPjwvZz48Zz48cGF0aCBkPSJNNDEuMTM5LDQzLjMwNWMtMC40MjIsMC0wLjg0My0wLjE3OC0xLjEzOS0wLjUyNGMtMi45MDctMy4zOTEtMC41MjQtOC4wOTksMS41NzgtMTIuMjUzICAgIGMxLjk5Ni0zLjk0MywzLjE5MS02LjYxMiwxLjY4NC03LjcyNWMtNS45NDYtNC4zODktNC4zMDItMTQuNTgyLTQuMjI5LTE1LjAxNGMwLjEzOC0wLjgxNiwwLjkxLTEuMzY2LDEuNzI3LTEuMjI5ICAgIGMwLjgxNiwwLjEzNywxLjM2NywwLjkxLDEuMjMxLDEuNzI3Yy0wLjAxNSwwLjA4OC0xLjQwOSw4LjgxLDMuMDUyLDEyLjEwMmMzLjY2MSwyLjcwMiwxLjI5Nyw3LjM3My0wLjc4OCwxMS40OTMgICAgYy0xLjc2LDMuNDc5LTMuNTgxLDcuMDc2LTEuOTc4LDguOTQ3YzAuNTQsMC42MjksMC40NjYsMS41NzYtMC4xNjMsMi4xMTVDNDEuODMyLDQzLjE4Nyw0MS40ODQsNDMuMzA1LDQxLjEzOSw0My4zMDV6Ii8+PC9nPjxnPjxwYXRoIGQ9Ik0zMS4yOTcsMzUuNDAyYy0wLjM4OSwwLTAuNzc5LTAuMTQ5LTEuMDc0LTAuNDQ0Yy0xLjkwNC0xLjkwNy0wLjY3NC01LjYzNiwyLjA5NC0xMS40MzQgICAgYzIuMDMtNC4yNTUtMi40ODItNy4zMjYtMi42NzUtNy40NTVjLTAuNjg4LTAuNDU4LTAuODc3LTEuMzg4LTAuNDIyLTIuMDc3YzAuNDU3LTAuNjg4LDEuMzgxLTAuODgxLDIuMDcyLTAuNDI5ICAgIGMyLjM5NywxLjU3Myw2LjI2Myw1Ljk0OCwzLjczMiwxMS4yNTJjLTMuMDcxLDYuNDMyLTIuODE1LDcuNzgtMi42NjQsOC4wNDFjMC41ODUsMC41ODYsMC41NzgsMS41MjYtMC4wMDksMi4xMTIgICAgQzMyLjA2MSwzNS4yNTgsMzEuNjc5LDM1LjQwMiwzMS4yOTcsMzUuNDAyeiIvPjwvZz48Zz48cGF0aCBkPSJNNTMuMTgzLDM0LjgwNGMtMC4zODksMC0wLjc3OC0wLjE0OS0xLjA3NC0wLjQ0NGMtMS45MDMtMS45MDUtMC42NzQtNS42MzUsMi4wOTMtMTEuNDM1ICAgIGMyLjAzMS00LjI1NS0yLjQ3OS03LjMyNi0yLjY3My03LjQ1NWMtMC42ODgtMC40NTgtMC44NzgtMS4zODgtMC40MjItMi4wNzdjMC40NTctMC42ODgsMS4zNzktMC44ODEsMi4wNzItMC40MjkgICAgYzIuMzk2LDEuNTczLDYuMjYyLDUuOTQ5LDMuNzI5LDExLjI1MmMtMy4wNjgsNi40MzQtMi44MTMsNy43ODEtMi42NjIsOC4wNDFjMC41ODYsMC41ODYsMC41NzcsMS41MjctMC4wMDksMi4xMTIgICAgQzUzLjk0NywzNC42Niw1My41NjUsMzQuODA0LDUzLjE4MywzNC44MDR6Ii8+PC9nPjwvZz48dGV4dCBmb250LWZhbWlseT0iJ0hlbHZldGljYSBOZXVlJywgSGVsdmV0aWNhLCBBcmlhbC1Vbmljb2RlLCBBcmlhbCwgU2Fucy1zZXJpZiIgZm9udC13ZWlnaHQ9ImJvbGQiIGZvbnQtc2l6ZT0iNXB4IiBmaWxsPSIjMDAwMDAwIiB5PSIxMTUiIHg9IjAiPkNyZWF0ZWQgYnkgQmVzdGRlc2lnbm1hcmtldDwvdGV4dD48dGV4dCBmb250LWZhbWlseT0iJ0hlbHZldGljYSBOZXVlJywgSGVsdmV0aWNhLCBBcmlhbC1Vbmljb2RlLCBBcmlhbCwgU2Fucy1zZXJpZiIgZm9udC13ZWlnaHQ9ImJvbGQiIGZvbnQtc2l6ZT0iNXB4IiBmaWxsPSIjMDAwMDAwIiB5PSIxMjAiIHg9IjAiPmZyb20gdGhlIE5vdW4gUHJvamVjdDwvdGV4dD48L3N2Zz4=;clipPath=inset(4.67% 10% 24.67% 10%);" parent="1" vertex="1">
          <mxGeometry x="160" y="440" width="113.20754716981132" height="125" as="geometry" />
        </mxCell>
        <mxCell id="VHak7YDD-5bLV2AzD9XF-28" value="" style="shape=image;verticalLabelPosition=bottom;labelBackgroundColor=default;verticalAlign=top;aspect=fixed;imageAspect=0;image=data:image/svg+xml,PHN2ZyB4bWxuczp4bGluaz0iaHR0cDovL3d3dy53My5vcmcvMTk5OS94bGluayIgeG1sbnM9Imh0dHA6Ly93d3cudzMub3JnLzIwMDAvc3ZnIiB4bWw6c3BhY2U9InByZXNlcnZlIiB2aWV3Qm94PSIwIDAgMTAwIDEyNSIgeT0iMHB4IiB4PSIwcHgiIHZlcnNpb249IjEuMSI+PGc+PGc+PHBhdGggZD0iTTQ4LjI2Nyw1Mi44MTJjLTkuODg3LDAtMjguNTg2LTEuNjM2LTI4LjU4Ni03LjgyNGMwLTQuMjk4LDguNzQyLTYuMjQ2LDE2LjA3Ni03LjEyMmMwLjgyNC0wLjA5OCwxLjU3LDAuNDg5LDEuNjY3LDEuMzExICAgIGMwLjA5OSwwLjgyMy0wLjQ4OSwxLjU2OS0xLjMxMSwxLjY2N2MtMTAuMTI1LDEuMjEtMTMuNDMzLDMuNDkzLTEzLjQzMyw0LjE0NGMwLDEuNDQzLDguNzA1LDQuODI0LDI1LjU4Niw0LjgyNCAgICBjMTYuODgsMCwyNS41ODQtMy4zODEsMjUuNTg0LTQuODI0cy04LjcwNC00LjgyNS0yNS41ODQtNC44MjVjLTAuOTQsMC0xLjg2OCwwLjAxMS0yLjc4MywwLjAzMyAgICBjLTAuODE1LDAuMDU2LTEuNTE2LTAuNjM1LTEuNTM2LTEuNDYzczAuNjM1LTEuNTE2LDEuNDYzLTEuNTM2YzAuOTM4LTAuMDIzLDEuODkxLTAuMDM0LDIuODU1LTAuMDM0ICAgIGM5Ljg4NywwLDI4LjU4NCwxLjYzNSwyOC41ODQsNy44MjVDNzYuODUyLDUxLjE3Niw1OC4xNTQsNTIuODEyLDQ4LjI2Nyw1Mi44MTJ6Ii8+PC9nPjxnPjxwYXRoIGQ9Ik00OC4yNjEsODQuNzkyYy0xNS43NjUsMC0yOC41OTEtMTUuMTM1LTI4LjU5MS0zMy43MzhjMC0xLjQyNCwwLjA3Ni0yLjg1NiwwLjIyNi00LjI1NiAgICBjMC4wODgtMC44MjUsMC44MzQtMS40MTIsMS42NTEtMS4zMzJjMC44MjQsMC4wODgsMS40MiwwLjgyOCwxLjMzMiwxLjY1MWMtMC4xMzksMS4yOTQtMC4yMDksMi42MTktMC4yMDksMy45MzcgICAgYzAsMTYuOTQ5LDExLjQ4LDMwLjczOCwyNS41OTEsMzAuNzM4YzE0LjExMSwwLDI1LjU5LTEzLjc4OSwyNS41OS0zMC43MzhjMC0xLjUxMi0wLjA5Mi0zLjAzNC0wLjI3NC00LjUyMyAgICBjLTAuMTAxLTAuODIyLDAuNDg1LTEuNTcsMS4zMDgtMS42N2MwLjgyMi0wLjEwMywxLjU3LDAuNDg0LDEuNjcxLDEuMzA3YzAuMTk2LDEuNjA5LDAuMjk2LDMuMjUzLDAuMjk2LDQuODg3ICAgIEM3Ni44NTIsNjkuNjU3LDY0LjAyNiw4NC43OTIsNDguMjYxLDg0Ljc5MnoiLz48L2c+PGc+PHBhdGggZD0iTTQ4LjM0NCw5My40NjFjLTE3LjUzOCwwLTM2LjE3Ny00LjM1Mi0zNi4xNzctMTIuNDE1YzAtMi4wNTYsMS4yODktNS4wNjksNy40MjctNy43NDkgICAgYzAuNzYtMC4zMjksMS42NDMsMC4wMTcsMS45NzUsMC43NzVzLTAuMDE1LDEuNjQzLTAuNzc0LDEuOTc1Yy0zLjU3NiwxLjU2MS01LjYyNywzLjM4My01LjYyNyw0Ljk5OSAgICBjMCw0LjQ0NCwxNC4xODgsOS40MTUsMzMuMTc3LDkuNDE1YzE4Ljk4OSwwLDMzLjE3Ny00Ljk3MSwzMy4xNzctOS40MTVjMC0xLjU2Ni0xLjk0NC0zLjM0Mi01LjMzNS00Ljg3MSAgICBjLTAuNzU2LTAuMzQtMS4wOTItMS4yMjktMC43NTEtMS45ODNjMC4zNC0wLjc1NiwxLjIyNy0xLjA5NSwxLjk4My0wLjc1MWM1Ljg3LDIuNjQ2LDcuMTAzLDUuNTk3LDcuMTAzLDcuNjA1ICAgIEM4NC41MjEsODkuMTA5LDY1Ljg4Miw5My40NjEsNDguMzQ0LDkzLjQ2MXoiLz48L2c+PGc+PHBhdGggZD0iTTcxLjc2Niw3MC43OTZjLTAuODI4LDAtMS41LTAuNjcyLTEuNS0xLjVzMC42NzItMS41LDEuNS0xLjVjNS4yNzgsMCwxMy4wNjYtNS4wOTYsMTMuMDY2LTkuNjczICAgIGMwLTQuODQ5LTMuOTQzLTguNzkzLTguNzkxLTguNzkzYy0wLjgyOCwwLTEuNS0wLjY3MS0xLjUtMS41czAuNjcyLTEuNSwxLjUtMS41YzYuNTAyLDAsMTEuNzkxLDUuMjkxLDExLjc5MSwxMS43OTMgICAgQzg3LjgzMiw2NC45OTYsNzcuOTY0LDcwLjc5Niw3MS43NjYsNzAuNzk2eiIvPjwvZz48Zz48cGF0aCBkPSJNNDEuMTM5LDQzLjMwNWMtMC40MjIsMC0wLjg0My0wLjE3OC0xLjEzOS0wLjUyNGMtMi45MDctMy4zOTEtMC41MjQtOC4wOTksMS41NzgtMTIuMjUzICAgIGMxLjk5Ni0zLjk0MywzLjE5MS02LjYxMiwxLjY4NC03LjcyNWMtNS45NDYtNC4zODktNC4zMDItMTQuNTgyLTQuMjI5LTE1LjAxNGMwLjEzOC0wLjgxNiwwLjkxLTEuMzY2LDEuNzI3LTEuMjI5ICAgIGMwLjgxNiwwLjEzNywxLjM2NywwLjkxLDEuMjMxLDEuNzI3Yy0wLjAxNSwwLjA4OC0xLjQwOSw4LjgxLDMuMDUyLDEyLjEwMmMzLjY2MSwyLjcwMiwxLjI5Nyw3LjM3My0wLjc4OCwxMS40OTMgICAgYy0xLjc2LDMuNDc5LTMuNTgxLDcuMDc2LTEuOTc4LDguOTQ3YzAuNTQsMC42MjksMC40NjYsMS41NzYtMC4xNjMsMi4xMTVDNDEuODMyLDQzLjE4Nyw0MS40ODQsNDMuMzA1LDQxLjEzOSw0My4zMDV6Ii8+PC9nPjxnPjxwYXRoIGQ9Ik0zMS4yOTcsMzUuNDAyYy0wLjM4OSwwLTAuNzc5LTAuMTQ5LTEuMDc0LTAuNDQ0Yy0xLjkwNC0xLjkwNy0wLjY3NC01LjYzNiwyLjA5NC0xMS40MzQgICAgYzIuMDMtNC4yNTUtMi40ODItNy4zMjYtMi42NzUtNy40NTVjLTAuNjg4LTAuNDU4LTAuODc3LTEuMzg4LTAuNDIyLTIuMDc3YzAuNDU3LTAuNjg4LDEuMzgxLTAuODgxLDIuMDcyLTAuNDI5ICAgIGMyLjM5NywxLjU3Myw2LjI2Myw1Ljk0OCwzLjczMiwxMS4yNTJjLTMuMDcxLDYuNDMyLTIuODE1LDcuNzgtMi42NjQsOC4wNDFjMC41ODUsMC41ODYsMC41NzgsMS41MjYtMC4wMDksMi4xMTIgICAgQzMyLjA2MSwzNS4yNTgsMzEuNjc5LDM1LjQwMiwzMS4yOTcsMzUuNDAyeiIvPjwvZz48Zz48cGF0aCBkPSJNNTMuMTgzLDM0LjgwNGMtMC4zODksMC0wLjc3OC0wLjE0OS0xLjA3NC0wLjQ0NGMtMS45MDMtMS45MDUtMC42NzQtNS42MzUsMi4wOTMtMTEuNDM1ICAgIGMyLjAzMS00LjI1NS0yLjQ3OS03LjMyNi0yLjY3My03LjQ1NWMtMC42ODgtMC40NTgtMC44NzgtMS4zODgtMC40MjItMi4wNzdjMC40NTctMC42ODgsMS4zNzktMC44ODEsMi4wNzItMC40MjkgICAgYzIuMzk2LDEuNTczLDYuMjYyLDUuOTQ5LDMuNzI5LDExLjI1MmMtMy4wNjgsNi40MzQtMi44MTMsNy43ODEtMi42NjIsOC4wNDFjMC41ODYsMC41ODYsMC41NzcsMS41MjctMC4wMDksMi4xMTIgICAgQzUzLjk0NywzNC42Niw1My41NjUsMzQuODA0LDUzLjE4MywzNC44MDR6Ii8+PC9nPjwvZz48dGV4dCBmb250LWZhbWlseT0iJ0hlbHZldGljYSBOZXVlJywgSGVsdmV0aWNhLCBBcmlhbC1Vbmljb2RlLCBBcmlhbCwgU2Fucy1zZXJpZiIgZm9udC13ZWlnaHQ9ImJvbGQiIGZvbnQtc2l6ZT0iNXB4IiBmaWxsPSIjMDAwMDAwIiB5PSIxMTUiIHg9IjAiPkNyZWF0ZWQgYnkgQmVzdGRlc2lnbm1hcmtldDwvdGV4dD48dGV4dCBmb250LWZhbWlseT0iJ0hlbHZldGljYSBOZXVlJywgSGVsdmV0aWNhLCBBcmlhbC1Vbmljb2RlLCBBcmlhbCwgU2Fucy1zZXJpZiIgZm9udC13ZWlnaHQ9ImJvbGQiIGZvbnQtc2l6ZT0iNXB4IiBmaWxsPSIjMDAwMDAwIiB5PSIxMjAiIHg9IjAiPmZyb20gdGhlIE5vdW4gUHJvamVjdDwvdGV4dD48L3N2Zz4=;clipPath=inset(4.67% 10% 24.67% 10%);" parent="1" vertex="1">
          <mxGeometry x="496.79" y="440" width="113.20754716981132" height="125" as="geometry" />
        </mxCell>
        <mxCell id="VHak7YDD-5bLV2AzD9XF-29" value="" style="curved=1;endArrow=async;html=1;rounded=0;strokeWidth=6;endFill=1;endSize=18;" parent="1" edge="1">
          <mxGeometry width="50" height="50" relative="1" as="geometry">
            <mxPoint x="180" y="600" as="sourcePoint" />
            <mxPoint x="180" y="120" as="targetPoint" />
            <Array as="points">
              <mxPoint x="100" y="480" />
              <mxPoint x="70" y="360" />
              <mxPoint x="100" y="240" />
            </Array>
          </mxGeometry>
        </mxCell>
        <mxCell id="VHak7YDD-5bLV2AzD9XF-30" value="" style="curved=1;endArrow=async;html=1;rounded=0;strokeWidth=6;endFill=1;endSize=18;startArrow=none;startFill=0;" parent="1" edge="1">
          <mxGeometry width="50" height="50" relative="1" as="geometry">
            <mxPoint x="581" y="120" as="sourcePoint" />
            <mxPoint x="581" y="600" as="targetPoint" />
            <Array as="points">
              <mxPoint x="661" y="240" />
              <mxPoint x="691" y="360" />
              <mxPoint x="661" y="480" />
            </Array>
          </mxGeometry>
        </mxCell>
      </root>
    </mxGraphModel>
  </diagram>
  <diagram id="TziJ9JCT-CcjJPIN2aXL" name="MatchCakeV3">
    <mxGraphModel dx="1050" dy="621" grid="1" gridSize="10" guides="1" tooltips="1" connect="1" arrows="1" fold="1" page="1" pageScale="1" pageWidth="850" pageHeight="1100" math="0" shadow="0">
      <root>
        <mxCell id="0" />
        <mxCell id="1" parent="0" />
        <mxCell id="uWEDP0JBUVGUq8DG8V6v-8" value="" style="shape=image;verticalLabelPosition=bottom;labelBackgroundColor=default;verticalAlign=top;aspect=fixed;imageAspect=0;image=data:image/svg+xml,PHN2ZyB4bWxuczp4bGluaz0iaHR0cDovL3d3dy53My5vcmcvMTk5OS94bGluayIgeG1sbnM9Imh0dHA6Ly93d3cudzMub3JnLzIwMDAvc3ZnIiB4bWw6c3BhY2U9InByZXNlcnZlIiB2aWV3Qm94PSIwIDAgMTAwIDEyNSIgeT0iMHB4IiB4PSIwcHgiIHZlcnNpb249IjEuMSI+PGc+PGc+PHBhdGggZD0iTTQ4LjI2Nyw1Mi44MTJjLTkuODg3LDAtMjguNTg2LTEuNjM2LTI4LjU4Ni03LjgyNGMwLTQuMjk4LDguNzQyLTYuMjQ2LDE2LjA3Ni03LjEyMmMwLjgyNC0wLjA5OCwxLjU3LDAuNDg5LDEuNjY3LDEuMzExICAgIGMwLjA5OSwwLjgyMy0wLjQ4OSwxLjU2OS0xLjMxMSwxLjY2N2MtMTAuMTI1LDEuMjEtMTMuNDMzLDMuNDkzLTEzLjQzMyw0LjE0NGMwLDEuNDQzLDguNzA1LDQuODI0LDI1LjU4Niw0LjgyNCAgICBjMTYuODgsMCwyNS41ODQtMy4zODEsMjUuNTg0LTQuODI0cy04LjcwNC00LjgyNS0yNS41ODQtNC44MjVjLTAuOTQsMC0xLjg2OCwwLjAxMS0yLjc4MywwLjAzMyAgICBjLTAuODE1LDAuMDU2LTEuNTE2LTAuNjM1LTEuNTM2LTEuNDYzczAuNjM1LTEuNTE2LDEuNDYzLTEuNTM2YzAuOTM4LTAuMDIzLDEuODkxLTAuMDM0LDIuODU1LTAuMDM0ICAgIGM5Ljg4NywwLDI4LjU4NCwxLjYzNSwyOC41ODQsNy44MjVDNzYuODUyLDUxLjE3Niw1OC4xNTQsNTIuODEyLDQ4LjI2Nyw1Mi44MTJ6Ii8+PC9nPjxnPjxwYXRoIGQ9Ik00OC4yNjEsODQuNzkyYy0xNS43NjUsMC0yOC41OTEtMTUuMTM1LTI4LjU5MS0zMy43MzhjMC0xLjQyNCwwLjA3Ni0yLjg1NiwwLjIyNi00LjI1NiAgICBjMC4wODgtMC44MjUsMC44MzQtMS40MTIsMS42NTEtMS4zMzJjMC44MjQsMC4wODgsMS40MiwwLjgyOCwxLjMzMiwxLjY1MWMtMC4xMzksMS4yOTQtMC4yMDksMi42MTktMC4yMDksMy45MzcgICAgYzAsMTYuOTQ5LDExLjQ4LDMwLjczOCwyNS41OTEsMzAuNzM4YzE0LjExMSwwLDI1LjU5LTEzLjc4OSwyNS41OS0zMC43MzhjMC0xLjUxMi0wLjA5Mi0zLjAzNC0wLjI3NC00LjUyMyAgICBjLTAuMTAxLTAuODIyLDAuNDg1LTEuNTcsMS4zMDgtMS42N2MwLjgyMi0wLjEwMywxLjU3LDAuNDg0LDEuNjcxLDEuMzA3YzAuMTk2LDEuNjA5LDAuMjk2LDMuMjUzLDAuMjk2LDQuODg3ICAgIEM3Ni44NTIsNjkuNjU3LDY0LjAyNiw4NC43OTIsNDguMjYxLDg0Ljc5MnoiLz48L2c+PGc+PHBhdGggZD0iTTQ4LjM0NCw5My40NjFjLTE3LjUzOCwwLTM2LjE3Ny00LjM1Mi0zNi4xNzctMTIuNDE1YzAtMi4wNTYsMS4yODktNS4wNjksNy40MjctNy43NDkgICAgYzAuNzYtMC4zMjksMS42NDMsMC4wMTcsMS45NzUsMC43NzVzLTAuMDE1LDEuNjQzLTAuNzc0LDEuOTc1Yy0zLjU3NiwxLjU2MS01LjYyNywzLjM4My01LjYyNyw0Ljk5OSAgICBjMCw0LjQ0NCwxNC4xODgsOS40MTUsMzMuMTc3LDkuNDE1YzE4Ljk4OSwwLDMzLjE3Ny00Ljk3MSwzMy4xNzctOS40MTVjMC0xLjU2Ni0xLjk0NC0zLjM0Mi01LjMzNS00Ljg3MSAgICBjLTAuNzU2LTAuMzQtMS4wOTItMS4yMjktMC43NTEtMS45ODNjMC4zNC0wLjc1NiwxLjIyNy0xLjA5NSwxLjk4My0wLjc1MWM1Ljg3LDIuNjQ2LDcuMTAzLDUuNTk3LDcuMTAzLDcuNjA1ICAgIEM4NC41MjEsODkuMTA5LDY1Ljg4Miw5My40NjEsNDguMzQ0LDkzLjQ2MXoiLz48L2c+PGc+PHBhdGggZD0iTTcxLjc2Niw3MC43OTZjLTAuODI4LDAtMS41LTAuNjcyLTEuNS0xLjVzMC42NzItMS41LDEuNS0xLjVjNS4yNzgsMCwxMy4wNjYtNS4wOTYsMTMuMDY2LTkuNjczICAgIGMwLTQuODQ5LTMuOTQzLTguNzkzLTguNzkxLTguNzkzYy0wLjgyOCwwLTEuNS0wLjY3MS0xLjUtMS41czAuNjcyLTEuNSwxLjUtMS41YzYuNTAyLDAsMTEuNzkxLDUuMjkxLDExLjc5MSwxMS43OTMgICAgQzg3LjgzMiw2NC45OTYsNzcuOTY0LDcwLjc5Niw3MS43NjYsNzAuNzk2eiIvPjwvZz48Zz48cGF0aCBkPSJNNDEuMTM5LDQzLjMwNWMtMC40MjIsMC0wLjg0My0wLjE3OC0xLjEzOS0wLjUyNGMtMi45MDctMy4zOTEtMC41MjQtOC4wOTksMS41NzgtMTIuMjUzICAgIGMxLjk5Ni0zLjk0MywzLjE5MS02LjYxMiwxLjY4NC03LjcyNWMtNS45NDYtNC4zODktNC4zMDItMTQuNTgyLTQuMjI5LTE1LjAxNGMwLjEzOC0wLjgxNiwwLjkxLTEuMzY2LDEuNzI3LTEuMjI5ICAgIGMwLjgxNiwwLjEzNywxLjM2NywwLjkxLDEuMjMxLDEuNzI3Yy0wLjAxNSwwLjA4OC0xLjQwOSw4LjgxLDMuMDUyLDEyLjEwMmMzLjY2MSwyLjcwMiwxLjI5Nyw3LjM3My0wLjc4OCwxMS40OTMgICAgYy0xLjc2LDMuNDc5LTMuNTgxLDcuMDc2LTEuOTc4LDguOTQ3YzAuNTQsMC42MjksMC40NjYsMS41NzYtMC4xNjMsMi4xMTVDNDEuODMyLDQzLjE4Nyw0MS40ODQsNDMuMzA1LDQxLjEzOSw0My4zMDV6Ii8+PC9nPjxnPjxwYXRoIGQ9Ik0zMS4yOTcsMzUuNDAyYy0wLjM4OSwwLTAuNzc5LTAuMTQ5LTEuMDc0LTAuNDQ0Yy0xLjkwNC0xLjkwNy0wLjY3NC01LjYzNiwyLjA5NC0xMS40MzQgICAgYzIuMDMtNC4yNTUtMi40ODItNy4zMjYtMi42NzUtNy40NTVjLTAuNjg4LTAuNDU4LTAuODc3LTEuMzg4LTAuNDIyLTIuMDc3YzAuNDU3LTAuNjg4LDEuMzgxLTAuODgxLDIuMDcyLTAuNDI5ICAgIGMyLjM5NywxLjU3Myw2LjI2Myw1Ljk0OCwzLjczMiwxMS4yNTJjLTMuMDcxLDYuNDMyLTIuODE1LDcuNzgtMi42NjQsOC4wNDFjMC41ODUsMC41ODYsMC41NzgsMS41MjYtMC4wMDksMi4xMTIgICAgQzMyLjA2MSwzNS4yNTgsMzEuNjc5LDM1LjQwMiwzMS4yOTcsMzUuNDAyeiIvPjwvZz48Zz48cGF0aCBkPSJNNTMuMTgzLDM0LjgwNGMtMC4zODksMC0wLjc3OC0wLjE0OS0xLjA3NC0wLjQ0NGMtMS45MDMtMS45MDUtMC42NzQtNS42MzUsMi4wOTMtMTEuNDM1ICAgIGMyLjAzMS00LjI1NS0yLjQ3OS03LjMyNi0yLjY3My03LjQ1NWMtMC42ODgtMC40NTgtMC44NzgtMS4zODgtMC40MjItMi4wNzdjMC40NTctMC42ODgsMS4zNzktMC44ODEsMi4wNzItMC40MjkgICAgYzIuMzk2LDEuNTczLDYuMjYyLDUuOTQ5LDMuNzI5LDExLjI1MmMtMy4wNjgsNi40MzQtMi44MTMsNy43ODEtMi42NjIsOC4wNDFjMC41ODYsMC41ODYsMC41NzcsMS41MjctMC4wMDksMi4xMTIgICAgQzUzLjk0NywzNC42Niw1My41NjUsMzQuODA0LDUzLjE4MywzNC44MDR6Ii8+PC9nPjwvZz48dGV4dCBmb250LWZhbWlseT0iJ0hlbHZldGljYSBOZXVlJywgSGVsdmV0aWNhLCBBcmlhbC1Vbmljb2RlLCBBcmlhbCwgU2Fucy1zZXJpZiIgZm9udC13ZWlnaHQ9ImJvbGQiIGZvbnQtc2l6ZT0iNXB4IiBmaWxsPSIjMDAwMDAwIiB5PSIxMTUiIHg9IjAiPkNyZWF0ZWQgYnkgQmVzdGRlc2lnbm1hcmtldDwvdGV4dD48dGV4dCBmb250LWZhbWlseT0iJ0hlbHZldGljYSBOZXVlJywgSGVsdmV0aWNhLCBBcmlhbC1Vbmljb2RlLCBBcmlhbCwgU2Fucy1zZXJpZiIgZm9udC13ZWlnaHQ9ImJvbGQiIGZvbnQtc2l6ZT0iNXB4IiBmaWxsPSIjMDAwMDAwIiB5PSIxMjAiIHg9IjAiPmZyb20gdGhlIE5vdW4gUHJvamVjdDwvdGV4dD48L3N2Zz4=;clipPath=inset(4.67% 10% 24.67% 10%);" vertex="1" parent="1">
          <mxGeometry x="486.79" y="154" width="113.20754716981132" height="125" as="geometry" />
        </mxCell>
        <mxCell id="uWEDP0JBUVGUq8DG8V6v-9" value="" style="shape=image;verticalLabelPosition=bottom;labelBackgroundColor=default;verticalAlign=top;aspect=fixed;imageAspect=0;image=data:image/svg+xml,PHN2ZyB4bWxuczp4bGluaz0iaHR0cDovL3d3dy53My5vcmcvMTk5OS94bGluayIgeG1sbnM9Imh0dHA6Ly93d3cudzMub3JnLzIwMDAvc3ZnIiB4bWw6c3BhY2U9InByZXNlcnZlIiB2aWV3Qm94PSIwIDAgMTAwIDEyNSIgeT0iMHB4IiB4PSIwcHgiIHZlcnNpb249IjEuMSI+PGc+PGc+PHBhdGggZD0iTTQ4LjI2Nyw1Mi44MTJjLTkuODg3LDAtMjguNTg2LTEuNjM2LTI4LjU4Ni03LjgyNGMwLTQuMjk4LDguNzQyLTYuMjQ2LDE2LjA3Ni03LjEyMmMwLjgyNC0wLjA5OCwxLjU3LDAuNDg5LDEuNjY3LDEuMzExICAgIGMwLjA5OSwwLjgyMy0wLjQ4OSwxLjU2OS0xLjMxMSwxLjY2N2MtMTAuMTI1LDEuMjEtMTMuNDMzLDMuNDkzLTEzLjQzMyw0LjE0NGMwLDEuNDQzLDguNzA1LDQuODI0LDI1LjU4Niw0LjgyNCAgICBjMTYuODgsMCwyNS41ODQtMy4zODEsMjUuNTg0LTQuODI0cy04LjcwNC00LjgyNS0yNS41ODQtNC44MjVjLTAuOTQsMC0xLjg2OCwwLjAxMS0yLjc4MywwLjAzMyAgICBjLTAuODE1LDAuMDU2LTEuNTE2LTAuNjM1LTEuNTM2LTEuNDYzczAuNjM1LTEuNTE2LDEuNDYzLTEuNTM2YzAuOTM4LTAuMDIzLDEuODkxLTAuMDM0LDIuODU1LTAuMDM0ICAgIGM5Ljg4NywwLDI4LjU4NCwxLjYzNSwyOC41ODQsNy44MjVDNzYuODUyLDUxLjE3Niw1OC4xNTQsNTIuODEyLDQ4LjI2Nyw1Mi44MTJ6Ii8+PC9nPjxnPjxwYXRoIGQ9Ik00OC4yNjEsODQuNzkyYy0xNS43NjUsMC0yOC41OTEtMTUuMTM1LTI4LjU5MS0zMy43MzhjMC0xLjQyNCwwLjA3Ni0yLjg1NiwwLjIyNi00LjI1NiAgICBjMC4wODgtMC44MjUsMC44MzQtMS40MTIsMS42NTEtMS4zMzJjMC44MjQsMC4wODgsMS40MiwwLjgyOCwxLjMzMiwxLjY1MWMtMC4xMzksMS4yOTQtMC4yMDksMi42MTktMC4yMDksMy45MzcgICAgYzAsMTYuOTQ5LDExLjQ4LDMwLjczOCwyNS41OTEsMzAuNzM4YzE0LjExMSwwLDI1LjU5LTEzLjc4OSwyNS41OS0zMC43MzhjMC0xLjUxMi0wLjA5Mi0zLjAzNC0wLjI3NC00LjUyMyAgICBjLTAuMTAxLTAuODIyLDAuNDg1LTEuNTcsMS4zMDgtMS42N2MwLjgyMi0wLjEwMywxLjU3LDAuNDg0LDEuNjcxLDEuMzA3YzAuMTk2LDEuNjA5LDAuMjk2LDMuMjUzLDAuMjk2LDQuODg3ICAgIEM3Ni44NTIsNjkuNjU3LDY0LjAyNiw4NC43OTIsNDguMjYxLDg0Ljc5MnoiLz48L2c+PGc+PHBhdGggZD0iTTQ4LjM0NCw5My40NjFjLTE3LjUzOCwwLTM2LjE3Ny00LjM1Mi0zNi4xNzctMTIuNDE1YzAtMi4wNTYsMS4yODktNS4wNjksNy40MjctNy43NDkgICAgYzAuNzYtMC4zMjksMS42NDMsMC4wMTcsMS45NzUsMC43NzVzLTAuMDE1LDEuNjQzLTAuNzc0LDEuOTc1Yy0zLjU3NiwxLjU2MS01LjYyNywzLjM4My01LjYyNyw0Ljk5OSAgICBjMCw0LjQ0NCwxNC4xODgsOS40MTUsMzMuMTc3LDkuNDE1YzE4Ljk4OSwwLDMzLjE3Ny00Ljk3MSwzMy4xNzctOS40MTVjMC0xLjU2Ni0xLjk0NC0zLjM0Mi01LjMzNS00Ljg3MSAgICBjLTAuNzU2LTAuMzQtMS4wOTItMS4yMjktMC43NTEtMS45ODNjMC4zNC0wLjc1NiwxLjIyNy0xLjA5NSwxLjk4My0wLjc1MWM1Ljg3LDIuNjQ2LDcuMTAzLDUuNTk3LDcuMTAzLDcuNjA1ICAgIEM4NC41MjEsODkuMTA5LDY1Ljg4Miw5My40NjEsNDguMzQ0LDkzLjQ2MXoiLz48L2c+PGc+PHBhdGggZD0iTTcxLjc2Niw3MC43OTZjLTAuODI4LDAtMS41LTAuNjcyLTEuNS0xLjVzMC42NzItMS41LDEuNS0xLjVjNS4yNzgsMCwxMy4wNjYtNS4wOTYsMTMuMDY2LTkuNjczICAgIGMwLTQuODQ5LTMuOTQzLTguNzkzLTguNzkxLTguNzkzYy0wLjgyOCwwLTEuNS0wLjY3MS0xLjUtMS41czAuNjcyLTEuNSwxLjUtMS41YzYuNTAyLDAsMTEuNzkxLDUuMjkxLDExLjc5MSwxMS43OTMgICAgQzg3LjgzMiw2NC45OTYsNzcuOTY0LDcwLjc5Niw3MS43NjYsNzAuNzk2eiIvPjwvZz48Zz48cGF0aCBkPSJNNDEuMTM5LDQzLjMwNWMtMC40MjIsMC0wLjg0My0wLjE3OC0xLjEzOS0wLjUyNGMtMi45MDctMy4zOTEtMC41MjQtOC4wOTksMS41NzgtMTIuMjUzICAgIGMxLjk5Ni0zLjk0MywzLjE5MS02LjYxMiwxLjY4NC03LjcyNWMtNS45NDYtNC4zODktNC4zMDItMTQuNTgyLTQuMjI5LTE1LjAxNGMwLjEzOC0wLjgxNiwwLjkxLTEuMzY2LDEuNzI3LTEuMjI5ICAgIGMwLjgxNiwwLjEzNywxLjM2NywwLjkxLDEuMjMxLDEuNzI3Yy0wLjAxNSwwLjA4OC0xLjQwOSw4LjgxLDMuMDUyLDEyLjEwMmMzLjY2MSwyLjcwMiwxLjI5Nyw3LjM3My0wLjc4OCwxMS40OTMgICAgYy0xLjc2LDMuNDc5LTMuNTgxLDcuMDc2LTEuOTc4LDguOTQ3YzAuNTQsMC42MjksMC40NjYsMS41NzYtMC4xNjMsMi4xMTVDNDEuODMyLDQzLjE4Nyw0MS40ODQsNDMuMzA1LDQxLjEzOSw0My4zMDV6Ii8+PC9nPjxnPjxwYXRoIGQ9Ik0zMS4yOTcsMzUuNDAyYy0wLjM4OSwwLTAuNzc5LTAuMTQ5LTEuMDc0LTAuNDQ0Yy0xLjkwNC0xLjkwNy0wLjY3NC01LjYzNiwyLjA5NC0xMS40MzQgICAgYzIuMDMtNC4yNTUtMi40ODItNy4zMjYtMi42NzUtNy40NTVjLTAuNjg4LTAuNDU4LTAuODc3LTEuMzg4LTAuNDIyLTIuMDc3YzAuNDU3LTAuNjg4LDEuMzgxLTAuODgxLDIuMDcyLTAuNDI5ICAgIGMyLjM5NywxLjU3Myw2LjI2Myw1Ljk0OCwzLjczMiwxMS4yNTJjLTMuMDcxLDYuNDMyLTIuODE1LDcuNzgtMi42NjQsOC4wNDFjMC41ODUsMC41ODYsMC41NzgsMS41MjYtMC4wMDksMi4xMTIgICAgQzMyLjA2MSwzNS4yNTgsMzEuNjc5LDM1LjQwMiwzMS4yOTcsMzUuNDAyeiIvPjwvZz48Zz48cGF0aCBkPSJNNTMuMTgzLDM0LjgwNGMtMC4zODksMC0wLjc3OC0wLjE0OS0xLjA3NC0wLjQ0NGMtMS45MDMtMS45MDUtMC42NzQtNS42MzUsMi4wOTMtMTEuNDM1ICAgIGMyLjAzMS00LjI1NS0yLjQ3OS03LjMyNi0yLjY3My03LjQ1NWMtMC42ODgtMC40NTgtMC44NzgtMS4zODgtMC40MjItMi4wNzdjMC40NTctMC42ODgsMS4zNzktMC44ODEsMi4wNzItMC40MjkgICAgYzIuMzk2LDEuNTczLDYuMjYyLDUuOTQ5LDMuNzI5LDExLjI1MmMtMy4wNjgsNi40MzQtMi44MTMsNy43ODEtMi42NjIsOC4wNDFjMC41ODYsMC41ODYsMC41NzcsMS41MjctMC4wMDksMi4xMTIgICAgQzUzLjk0NywzNC42Niw1My41NjUsMzQuODA0LDUzLjE4MywzNC44MDR6Ii8+PC9nPjwvZz48dGV4dCBmb250LWZhbWlseT0iJ0hlbHZldGljYSBOZXVlJywgSGVsdmV0aWNhLCBBcmlhbC1Vbmljb2RlLCBBcmlhbCwgU2Fucy1zZXJpZiIgZm9udC13ZWlnaHQ9ImJvbGQiIGZvbnQtc2l6ZT0iNXB4IiBmaWxsPSIjMDAwMDAwIiB5PSIxMTUiIHg9IjAiPkNyZWF0ZWQgYnkgQmVzdGRlc2lnbm1hcmtldDwvdGV4dD48dGV4dCBmb250LWZhbWlseT0iJ0hlbHZldGljYSBOZXVlJywgSGVsdmV0aWNhLCBBcmlhbC1Vbmljb2RlLCBBcmlhbCwgU2Fucy1zZXJpZiIgZm9udC13ZWlnaHQ9ImJvbGQiIGZvbnQtc2l6ZT0iNXB4IiBmaWxsPSIjMDAwMDAwIiB5PSIxMjAiIHg9IjAiPmZyb20gdGhlIE5vdW4gUHJvamVjdDwvdGV4dD48L3N2Zz4=;clipPath=inset(4.67% 10% 24.67% 10%);" vertex="1" parent="1">
          <mxGeometry x="160" y="154" width="113.20754716981132" height="125" as="geometry" />
        </mxCell>
        <mxCell id="uWEDP0JBUVGUq8DG8V6v-10" value="" style="shape=image;verticalLabelPosition=bottom;labelBackgroundColor=default;verticalAlign=top;aspect=fixed;imageAspect=0;image=data:image/svg+xml,PHN2ZyB4bWxuczp4bGluaz0iaHR0cDovL3d3dy53My5vcmcvMTk5OS94bGluayIgeG1sbnM9Imh0dHA6Ly93d3cudzMub3JnLzIwMDAvc3ZnIiB4bWw6c3BhY2U9InByZXNlcnZlIiB2aWV3Qm94PSIwIDAgMTAwIDEyNSIgeT0iMHB4IiB4PSIwcHgiIHZlcnNpb249IjEuMSI+PGc+PGc+PHBhdGggZD0iTTQ4LjI2Nyw1Mi44MTJjLTkuODg3LDAtMjguNTg2LTEuNjM2LTI4LjU4Ni03LjgyNGMwLTQuMjk4LDguNzQyLTYuMjQ2LDE2LjA3Ni03LjEyMmMwLjgyNC0wLjA5OCwxLjU3LDAuNDg5LDEuNjY3LDEuMzExICAgIGMwLjA5OSwwLjgyMy0wLjQ4OSwxLjU2OS0xLjMxMSwxLjY2N2MtMTAuMTI1LDEuMjEtMTMuNDMzLDMuNDkzLTEzLjQzMyw0LjE0NGMwLDEuNDQzLDguNzA1LDQuODI0LDI1LjU4Niw0LjgyNCAgICBjMTYuODgsMCwyNS41ODQtMy4zODEsMjUuNTg0LTQuODI0cy04LjcwNC00LjgyNS0yNS41ODQtNC44MjVjLTAuOTQsMC0xLjg2OCwwLjAxMS0yLjc4MywwLjAzMyAgICBjLTAuODE1LDAuMDU2LTEuNTE2LTAuNjM1LTEuNTM2LTEuNDYzczAuNjM1LTEuNTE2LDEuNDYzLTEuNTM2YzAuOTM4LTAuMDIzLDEuODkxLTAuMDM0LDIuODU1LTAuMDM0ICAgIGM5Ljg4NywwLDI4LjU4NCwxLjYzNSwyOC41ODQsNy44MjVDNzYuODUyLDUxLjE3Niw1OC4xNTQsNTIuODEyLDQ4LjI2Nyw1Mi44MTJ6Ii8+PC9nPjxnPjxwYXRoIGQ9Ik00OC4yNjEsODQuNzkyYy0xNS43NjUsMC0yOC41OTEtMTUuMTM1LTI4LjU5MS0zMy43MzhjMC0xLjQyNCwwLjA3Ni0yLjg1NiwwLjIyNi00LjI1NiAgICBjMC4wODgtMC44MjUsMC44MzQtMS40MTIsMS42NTEtMS4zMzJjMC44MjQsMC4wODgsMS40MiwwLjgyOCwxLjMzMiwxLjY1MWMtMC4xMzksMS4yOTQtMC4yMDksMi42MTktMC4yMDksMy45MzcgICAgYzAsMTYuOTQ5LDExLjQ4LDMwLjczOCwyNS41OTEsMzAuNzM4YzE0LjExMSwwLDI1LjU5LTEzLjc4OSwyNS41OS0zMC43MzhjMC0xLjUxMi0wLjA5Mi0zLjAzNC0wLjI3NC00LjUyMyAgICBjLTAuMTAxLTAuODIyLDAuNDg1LTEuNTcsMS4zMDgtMS42N2MwLjgyMi0wLjEwMywxLjU3LDAuNDg0LDEuNjcxLDEuMzA3YzAuMTk2LDEuNjA5LDAuMjk2LDMuMjUzLDAuMjk2LDQuODg3ICAgIEM3Ni44NTIsNjkuNjU3LDY0LjAyNiw4NC43OTIsNDguMjYxLDg0Ljc5MnoiLz48L2c+PGc+PHBhdGggZD0iTTQ4LjM0NCw5My40NjFjLTE3LjUzOCwwLTM2LjE3Ny00LjM1Mi0zNi4xNzctMTIuNDE1YzAtMi4wNTYsMS4yODktNS4wNjksNy40MjctNy43NDkgICAgYzAuNzYtMC4zMjksMS42NDMsMC4wMTcsMS45NzUsMC43NzVzLTAuMDE1LDEuNjQzLTAuNzc0LDEuOTc1Yy0zLjU3NiwxLjU2MS01LjYyNywzLjM4My01LjYyNyw0Ljk5OSAgICBjMCw0LjQ0NCwxNC4xODgsOS40MTUsMzMuMTc3LDkuNDE1YzE4Ljk4OSwwLDMzLjE3Ny00Ljk3MSwzMy4xNzctOS40MTVjMC0xLjU2Ni0xLjk0NC0zLjM0Mi01LjMzNS00Ljg3MSAgICBjLTAuNzU2LTAuMzQtMS4wOTItMS4yMjktMC43NTEtMS45ODNjMC4zNC0wLjc1NiwxLjIyNy0xLjA5NSwxLjk4My0wLjc1MWM1Ljg3LDIuNjQ2LDcuMTAzLDUuNTk3LDcuMTAzLDcuNjA1ICAgIEM4NC41MjEsODkuMTA5LDY1Ljg4Miw5My40NjEsNDguMzQ0LDkzLjQ2MXoiLz48L2c+PGc+PHBhdGggZD0iTTcxLjc2Niw3MC43OTZjLTAuODI4LDAtMS41LTAuNjcyLTEuNS0xLjVzMC42NzItMS41LDEuNS0xLjVjNS4yNzgsMCwxMy4wNjYtNS4wOTYsMTMuMDY2LTkuNjczICAgIGMwLTQuODQ5LTMuOTQzLTguNzkzLTguNzkxLTguNzkzYy0wLjgyOCwwLTEuNS0wLjY3MS0xLjUtMS41czAuNjcyLTEuNSwxLjUtMS41YzYuNTAyLDAsMTEuNzkxLDUuMjkxLDExLjc5MSwxMS43OTMgICAgQzg3LjgzMiw2NC45OTYsNzcuOTY0LDcwLjc5Niw3MS43NjYsNzAuNzk2eiIvPjwvZz48Zz48cGF0aCBkPSJNNDEuMTM5LDQzLjMwNWMtMC40MjIsMC0wLjg0My0wLjE3OC0xLjEzOS0wLjUyNGMtMi45MDctMy4zOTEtMC41MjQtOC4wOTksMS41NzgtMTIuMjUzICAgIGMxLjk5Ni0zLjk0MywzLjE5MS02LjYxMiwxLjY4NC03LjcyNWMtNS45NDYtNC4zODktNC4zMDItMTQuNTgyLTQuMjI5LTE1LjAxNGMwLjEzOC0wLjgxNiwwLjkxLTEuMzY2LDEuNzI3LTEuMjI5ICAgIGMwLjgxNiwwLjEzNywxLjM2NywwLjkxLDEuMjMxLDEuNzI3Yy0wLjAxNSwwLjA4OC0xLjQwOSw4LjgxLDMuMDUyLDEyLjEwMmMzLjY2MSwyLjcwMiwxLjI5Nyw3LjM3My0wLjc4OCwxMS40OTMgICAgYy0xLjc2LDMuNDc5LTMuNTgxLDcuMDc2LTEuOTc4LDguOTQ3YzAuNTQsMC42MjksMC40NjYsMS41NzYtMC4xNjMsMi4xMTVDNDEuODMyLDQzLjE4Nyw0MS40ODQsNDMuMzA1LDQxLjEzOSw0My4zMDV6Ii8+PC9nPjxnPjxwYXRoIGQ9Ik0zMS4yOTcsMzUuNDAyYy0wLjM4OSwwLTAuNzc5LTAuMTQ5LTEuMDc0LTAuNDQ0Yy0xLjkwNC0xLjkwNy0wLjY3NC01LjYzNiwyLjA5NC0xMS40MzQgICAgYzIuMDMtNC4yNTUtMi40ODItNy4zMjYtMi42NzUtNy40NTVjLTAuNjg4LTAuNDU4LTAuODc3LTEuMzg4LTAuNDIyLTIuMDc3YzAuNDU3LTAuNjg4LDEuMzgxLTAuODgxLDIuMDcyLTAuNDI5ICAgIGMyLjM5NywxLjU3Myw2LjI2Myw1Ljk0OCwzLjczMiwxMS4yNTJjLTMuMDcxLDYuNDMyLTIuODE1LDcuNzgtMi42NjQsOC4wNDFjMC41ODUsMC41ODYsMC41NzgsMS41MjYtMC4wMDksMi4xMTIgICAgQzMyLjA2MSwzNS4yNTgsMzEuNjc5LDM1LjQwMiwzMS4yOTcsMzUuNDAyeiIvPjwvZz48Zz48cGF0aCBkPSJNNTMuMTgzLDM0LjgwNGMtMC4zODksMC0wLjc3OC0wLjE0OS0xLjA3NC0wLjQ0NGMtMS45MDMtMS45MDUtMC42NzQtNS42MzUsMi4wOTMtMTEuNDM1ICAgIGMyLjAzMS00LjI1NS0yLjQ3OS03LjMyNi0yLjY3My03LjQ1NWMtMC42ODgtMC40NTgtMC44NzgtMS4zODgtMC40MjItMi4wNzdjMC40NTctMC42ODgsMS4zNzktMC44ODEsMi4wNzItMC40MjkgICAgYzIuMzk2LDEuNTczLDYuMjYyLDUuOTQ5LDMuNzI5LDExLjI1MmMtMy4wNjgsNi40MzQtMi44MTMsNy43ODEtMi42NjIsOC4wNDFjMC41ODYsMC41ODYsMC41NzcsMS41MjctMC4wMDksMi4xMTIgICAgQzUzLjk0NywzNC42Niw1My41NjUsMzQuODA0LDUzLjE4MywzNC44MDR6Ii8+PC9nPjwvZz48dGV4dCBmb250LWZhbWlseT0iJ0hlbHZldGljYSBOZXVlJywgSGVsdmV0aWNhLCBBcmlhbC1Vbmljb2RlLCBBcmlhbCwgU2Fucy1zZXJpZiIgZm9udC13ZWlnaHQ9ImJvbGQiIGZvbnQtc2l6ZT0iNXB4IiBmaWxsPSIjMDAwMDAwIiB5PSIxMTUiIHg9IjAiPkNyZWF0ZWQgYnkgQmVzdGRlc2lnbm1hcmtldDwvdGV4dD48dGV4dCBmb250LWZhbWlseT0iJ0hlbHZldGljYSBOZXVlJywgSGVsdmV0aWNhLCBBcmlhbC1Vbmljb2RlLCBBcmlhbCwgU2Fucy1zZXJpZiIgZm9udC13ZWlnaHQ9ImJvbGQiIGZvbnQtc2l6ZT0iNXB4IiBmaWxsPSIjMDAwMDAwIiB5PSIxMjAiIHg9IjAiPmZyb20gdGhlIE5vdW4gUHJvamVjdDwvdGV4dD48L3N2Zz4=;clipPath=inset(4.67% 10% 24.67% 10%);" vertex="1" parent="1">
          <mxGeometry x="160" y="440" width="113.20754716981132" height="125" as="geometry" />
        </mxCell>
        <mxCell id="uWEDP0JBUVGUq8DG8V6v-11" value="" style="shape=image;verticalLabelPosition=bottom;labelBackgroundColor=default;verticalAlign=top;aspect=fixed;imageAspect=0;image=data:image/svg+xml,PHN2ZyB4bWxuczp4bGluaz0iaHR0cDovL3d3dy53My5vcmcvMTk5OS94bGluayIgeG1sbnM9Imh0dHA6Ly93d3cudzMub3JnLzIwMDAvc3ZnIiB4bWw6c3BhY2U9InByZXNlcnZlIiB2aWV3Qm94PSIwIDAgMTAwIDEyNSIgeT0iMHB4IiB4PSIwcHgiIHZlcnNpb249IjEuMSI+PGc+PGc+PHBhdGggZD0iTTQ4LjI2Nyw1Mi44MTJjLTkuODg3LDAtMjguNTg2LTEuNjM2LTI4LjU4Ni03LjgyNGMwLTQuMjk4LDguNzQyLTYuMjQ2LDE2LjA3Ni03LjEyMmMwLjgyNC0wLjA5OCwxLjU3LDAuNDg5LDEuNjY3LDEuMzExICAgIGMwLjA5OSwwLjgyMy0wLjQ4OSwxLjU2OS0xLjMxMSwxLjY2N2MtMTAuMTI1LDEuMjEtMTMuNDMzLDMuNDkzLTEzLjQzMyw0LjE0NGMwLDEuNDQzLDguNzA1LDQuODI0LDI1LjU4Niw0LjgyNCAgICBjMTYuODgsMCwyNS41ODQtMy4zODEsMjUuNTg0LTQuODI0cy04LjcwNC00LjgyNS0yNS41ODQtNC44MjVjLTAuOTQsMC0xLjg2OCwwLjAxMS0yLjc4MywwLjAzMyAgICBjLTAuODE1LDAuMDU2LTEuNTE2LTAuNjM1LTEuNTM2LTEuNDYzczAuNjM1LTEuNTE2LDEuNDYzLTEuNTM2YzAuOTM4LTAuMDIzLDEuODkxLTAuMDM0LDIuODU1LTAuMDM0ICAgIGM5Ljg4NywwLDI4LjU4NCwxLjYzNSwyOC41ODQsNy44MjVDNzYuODUyLDUxLjE3Niw1OC4xNTQsNTIuODEyLDQ4LjI2Nyw1Mi44MTJ6Ii8+PC9nPjxnPjxwYXRoIGQ9Ik00OC4yNjEsODQuNzkyYy0xNS43NjUsMC0yOC41OTEtMTUuMTM1LTI4LjU5MS0zMy43MzhjMC0xLjQyNCwwLjA3Ni0yLjg1NiwwLjIyNi00LjI1NiAgICBjMC4wODgtMC44MjUsMC44MzQtMS40MTIsMS42NTEtMS4zMzJjMC44MjQsMC4wODgsMS40MiwwLjgyOCwxLjMzMiwxLjY1MWMtMC4xMzksMS4yOTQtMC4yMDksMi42MTktMC4yMDksMy45MzcgICAgYzAsMTYuOTQ5LDExLjQ4LDMwLjczOCwyNS41OTEsMzAuNzM4YzE0LjExMSwwLDI1LjU5LTEzLjc4OSwyNS41OS0zMC43MzhjMC0xLjUxMi0wLjA5Mi0zLjAzNC0wLjI3NC00LjUyMyAgICBjLTAuMTAxLTAuODIyLDAuNDg1LTEuNTcsMS4zMDgtMS42N2MwLjgyMi0wLjEwMywxLjU3LDAuNDg0LDEuNjcxLDEuMzA3YzAuMTk2LDEuNjA5LDAuMjk2LDMuMjUzLDAuMjk2LDQuODg3ICAgIEM3Ni44NTIsNjkuNjU3LDY0LjAyNiw4NC43OTIsNDguMjYxLDg0Ljc5MnoiLz48L2c+PGc+PHBhdGggZD0iTTQ4LjM0NCw5My40NjFjLTE3LjUzOCwwLTM2LjE3Ny00LjM1Mi0zNi4xNzctMTIuNDE1YzAtMi4wNTYsMS4yODktNS4wNjksNy40MjctNy43NDkgICAgYzAuNzYtMC4zMjksMS42NDMsMC4wMTcsMS45NzUsMC43NzVzLTAuMDE1LDEuNjQzLTAuNzc0LDEuOTc1Yy0zLjU3NiwxLjU2MS01LjYyNywzLjM4My01LjYyNyw0Ljk5OSAgICBjMCw0LjQ0NCwxNC4xODgsOS40MTUsMzMuMTc3LDkuNDE1YzE4Ljk4OSwwLDMzLjE3Ny00Ljk3MSwzMy4xNzctOS40MTVjMC0xLjU2Ni0xLjk0NC0zLjM0Mi01LjMzNS00Ljg3MSAgICBjLTAuNzU2LTAuMzQtMS4wOTItMS4yMjktMC43NTEtMS45ODNjMC4zNC0wLjc1NiwxLjIyNy0xLjA5NSwxLjk4My0wLjc1MWM1Ljg3LDIuNjQ2LDcuMTAzLDUuNTk3LDcuMTAzLDcuNjA1ICAgIEM4NC41MjEsODkuMTA5LDY1Ljg4Miw5My40NjEsNDguMzQ0LDkzLjQ2MXoiLz48L2c+PGc+PHBhdGggZD0iTTcxLjc2Niw3MC43OTZjLTAuODI4LDAtMS41LTAuNjcyLTEuNS0xLjVzMC42NzItMS41LDEuNS0xLjVjNS4yNzgsMCwxMy4wNjYtNS4wOTYsMTMuMDY2LTkuNjczICAgIGMwLTQuODQ5LTMuOTQzLTguNzkzLTguNzkxLTguNzkzYy0wLjgyOCwwLTEuNS0wLjY3MS0xLjUtMS41czAuNjcyLTEuNSwxLjUtMS41YzYuNTAyLDAsMTEuNzkxLDUuMjkxLDExLjc5MSwxMS43OTMgICAgQzg3LjgzMiw2NC45OTYsNzcuOTY0LDcwLjc5Niw3MS43NjYsNzAuNzk2eiIvPjwvZz48Zz48cGF0aCBkPSJNNDEuMTM5LDQzLjMwNWMtMC40MjIsMC0wLjg0My0wLjE3OC0xLjEzOS0wLjUyNGMtMi45MDctMy4zOTEtMC41MjQtOC4wOTksMS41NzgtMTIuMjUzICAgIGMxLjk5Ni0zLjk0MywzLjE5MS02LjYxMiwxLjY4NC03LjcyNWMtNS45NDYtNC4zODktNC4zMDItMTQuNTgyLTQuMjI5LTE1LjAxNGMwLjEzOC0wLjgxNiwwLjkxLTEuMzY2LDEuNzI3LTEuMjI5ICAgIGMwLjgxNiwwLjEzNywxLjM2NywwLjkxLDEuMjMxLDEuNzI3Yy0wLjAxNSwwLjA4OC0xLjQwOSw4LjgxLDMuMDUyLDEyLjEwMmMzLjY2MSwyLjcwMiwxLjI5Nyw3LjM3My0wLjc4OCwxMS40OTMgICAgYy0xLjc2LDMuNDc5LTMuNTgxLDcuMDc2LTEuOTc4LDguOTQ3YzAuNTQsMC42MjksMC40NjYsMS41NzYtMC4xNjMsMi4xMTVDNDEuODMyLDQzLjE4Nyw0MS40ODQsNDMuMzA1LDQxLjEzOSw0My4zMDV6Ii8+PC9nPjxnPjxwYXRoIGQ9Ik0zMS4yOTcsMzUuNDAyYy0wLjM4OSwwLTAuNzc5LTAuMTQ5LTEuMDc0LTAuNDQ0Yy0xLjkwNC0xLjkwNy0wLjY3NC01LjYzNiwyLjA5NC0xMS40MzQgICAgYzIuMDMtNC4yNTUtMi40ODItNy4zMjYtMi42NzUtNy40NTVjLTAuNjg4LTAuNDU4LTAuODc3LTEuMzg4LTAuNDIyLTIuMDc3YzAuNDU3LTAuNjg4LDEuMzgxLTAuODgxLDIuMDcyLTAuNDI5ICAgIGMyLjM5NywxLjU3Myw2LjI2Myw1Ljk0OCwzLjczMiwxMS4yNTJjLTMuMDcxLDYuNDMyLTIuODE1LDcuNzgtMi42NjQsOC4wNDFjMC41ODUsMC41ODYsMC41NzgsMS41MjYtMC4wMDksMi4xMTIgICAgQzMyLjA2MSwzNS4yNTgsMzEuNjc5LDM1LjQwMiwzMS4yOTcsMzUuNDAyeiIvPjwvZz48Zz48cGF0aCBkPSJNNTMuMTgzLDM0LjgwNGMtMC4zODksMC0wLjc3OC0wLjE0OS0xLjA3NC0wLjQ0NGMtMS45MDMtMS45MDUtMC42NzQtNS42MzUsMi4wOTMtMTEuNDM1ICAgIGMyLjAzMS00LjI1NS0yLjQ3OS03LjMyNi0yLjY3My03LjQ1NWMtMC42ODgtMC40NTgtMC44NzgtMS4zODgtMC40MjItMi4wNzdjMC40NTctMC42ODgsMS4zNzktMC44ODEsMi4wNzItMC40MjkgICAgYzIuMzk2LDEuNTczLDYuMjYyLDUuOTQ5LDMuNzI5LDExLjI1MmMtMy4wNjgsNi40MzQtMi44MTMsNy43ODEtMi42NjIsOC4wNDFjMC41ODYsMC41ODYsMC41NzcsMS41MjctMC4wMDksMi4xMTIgICAgQzUzLjk0NywzNC42Niw1My41NjUsMzQuODA0LDUzLjE4MywzNC44MDR6Ii8+PC9nPjwvZz48dGV4dCBmb250LWZhbWlseT0iJ0hlbHZldGljYSBOZXVlJywgSGVsdmV0aWNhLCBBcmlhbC1Vbmljb2RlLCBBcmlhbCwgU2Fucy1zZXJpZiIgZm9udC13ZWlnaHQ9ImJvbGQiIGZvbnQtc2l6ZT0iNXB4IiBmaWxsPSIjMDAwMDAwIiB5PSIxMTUiIHg9IjAiPkNyZWF0ZWQgYnkgQmVzdGRlc2lnbm1hcmtldDwvdGV4dD48dGV4dCBmb250LWZhbWlseT0iJ0hlbHZldGljYSBOZXVlJywgSGVsdmV0aWNhLCBBcmlhbC1Vbmljb2RlLCBBcmlhbCwgU2Fucy1zZXJpZiIgZm9udC13ZWlnaHQ9ImJvbGQiIGZvbnQtc2l6ZT0iNXB4IiBmaWxsPSIjMDAwMDAwIiB5PSIxMjAiIHg9IjAiPmZyb20gdGhlIE5vdW4gUHJvamVjdDwvdGV4dD48L3N2Zz4=;clipPath=inset(4.67% 10% 24.67% 10%);" vertex="1" parent="1">
          <mxGeometry x="496.79" y="440" width="113.20754716981132" height="125" as="geometry" />
        </mxCell>
        <mxCell id="uWEDP0JBUVGUq8DG8V6v-12" value="" style="curved=1;endArrow=async;html=1;rounded=0;strokeWidth=6;endFill=1;endSize=18;" edge="1" parent="1">
          <mxGeometry width="50" height="50" relative="1" as="geometry">
            <mxPoint x="180" y="600" as="sourcePoint" />
            <mxPoint x="180" y="120" as="targetPoint" />
            <Array as="points">
              <mxPoint x="100" y="480" />
              <mxPoint x="70" y="360" />
              <mxPoint x="100" y="240" />
            </Array>
          </mxGeometry>
        </mxCell>
        <mxCell id="uWEDP0JBUVGUq8DG8V6v-13" value="" style="curved=1;endArrow=async;html=1;rounded=0;strokeWidth=6;endFill=1;endSize=18;startArrow=none;startFill=0;" edge="1" parent="1">
          <mxGeometry width="50" height="50" relative="1" as="geometry">
            <mxPoint x="581" y="120" as="sourcePoint" />
            <mxPoint x="581" y="600" as="targetPoint" />
            <Array as="points">
              <mxPoint x="661" y="240" />
              <mxPoint x="691" y="360" />
              <mxPoint x="661" y="480" />
            </Array>
          </mxGeometry>
        </mxCell>
        <mxCell id="uWEDP0JBUVGUq8DG8V6v-1" value="" style="line;strokeWidth=2;html=1;gradientColor=none;fillColor=none;opacity=50;dashed=1;" vertex="1" parent="1">
          <mxGeometry x="160" y="274" width="440" height="10" as="geometry" />
        </mxCell>
        <mxCell id="uWEDP0JBUVGUq8DG8V6v-2" value="" style="line;strokeWidth=2;html=1;gradientColor=none;fillColor=none;opacity=50;dashed=1;gradientDirection=radial;" vertex="1" parent="1">
          <mxGeometry x="160" y="354.5" width="440" height="10" as="geometry" />
        </mxCell>
        <mxCell id="uWEDP0JBUVGUq8DG8V6v-3" value="" style="line;strokeWidth=2;html=1;gradientColor=none;fillColor=none;strokeColor=default;opacity=50;dashed=1;" vertex="1" parent="1">
          <mxGeometry x="160" y="435" width="440" height="10" as="geometry" />
        </mxCell>
        <mxCell id="uWEDP0JBUVGUq8DG8V6v-4" value="" style="line;strokeWidth=2;direction=south;html=1;opacity=50;dashed=1;" vertex="1" parent="1">
          <mxGeometry x="275.21" y="160" width="10" height="400" as="geometry" />
        </mxCell>
        <mxCell id="uWEDP0JBUVGUq8DG8V6v-5" value="" style="line;strokeWidth=2;direction=south;html=1;opacity=50;dashed=1;" vertex="1" parent="1">
          <mxGeometry x="476" y="160.5" width="10" height="400" as="geometry" />
        </mxCell>
        <mxCell id="uWEDP0JBUVGUq8DG8V6v-6" value="" style="line;strokeWidth=2;direction=south;html=1;opacity=50;dashed=1;" vertex="1" parent="1">
          <mxGeometry x="375" y="160.5" width="10" height="400" as="geometry" />
        </mxCell>
        <mxCell id="uWEDP0JBUVGUq8DG8V6v-7" value="" style="shape=image;verticalLabelPosition=bottom;labelBackgroundColor=none;verticalAlign=top;aspect=fixed;imageAspect=0;image=data:image/svg+xml,PHN2ZyB4bWxucz0iaHR0cDovL3d3dy53My5vcmcvMjAwMC9zdmciIHk9IjBweCIgeD0iMHB4IiB2aWV3Qm94PSIwIDAgNjQgODAiIGRhdGEtbmFtZT0iU29saWQgTGluZSI+PHBhdGggZD0iTTQzLjgsMTcuM2EzLjYyMSwzLjYyMSwwLDAsMC0yLjI4Ni0yLjIzM0M0MC44ODQsMTMuNDQ3LDM5LjYzOSwxMiwzOCwxMmEyLjksMi45LDAsMCwwLTEuNTQzLjQ3OEMzNS41NTQsMTAuNjY0LDM0LjAzMiw5LDMyLDlzLTMuNTU2LDEuNjY1LTQuNDU4LDMuNDc3QTIuOSwyLjksMCwwLDAsMjYsMTJjLTEuNiwwLTIuODY1LDEuNDI5LTMuNTA4LDMuMDU3QTIuMjUsMi4yNSwwLDAsMCwyMiwxNWEzLjM2NywzLjM2NywwLDAsMC0yLjgyNSwyLjM2Qy4wMTMsMTguNDU3LDAsMjEuMTE4LDAsMjJWNTFjMCwxLjMxNywxLjIwNiwyLjY5Miw5Ljk1MiwzLjgyQTE4MS42NDksMTgxLjY0OSwwLDAsMCwzMiw1NmMyLjI0NCwwLDQuNDU4LS4wMyw2LjU5My0uMDlhMy41LDMuNSwwLDAsMCwzLjI3MS0yLjU5MmwxOS4wNC42MTFjLjAzNywwLC4wNzQsMCwuMTEsMGEzLDMsMCwwLDAsMi45ODYtM1YyMkM2NCwyMS4xLDYzLjk4NiwxOC4zNjIsNDMuOCwxNy4zWk0yNi43OTIsMjAuNzU1YTEuODU2LDEuODU2LDAsMCwxLS4wNDItLjQxNSwyLjgwNywyLjgwNywwLDAsMSwxLjEzLTIuMzA4TDI3Ljk0NywxOGMuNDE4LS4wNjksMS4zLDEuMTI4LDEuMywyLjMzNmExLjk0NCwxLjk0NCwwLDAsMS0uMTQuNzUyQTEuMjg3LDEuMjg3LDAsMCwxLDI4LDIyLDEuNCwxLjQsMCwwLDEsMjYuNzkyLDIwLjc1NVptMTcuNDU3LTEuNDI5YzEwLjY4OC42LDE2LjA5MSwxLjgyNywxNy40NzcsMi42MzNMNDMuNywyMS4zNzdhMy45NywzLjk3LDAsMCwwLC41NTItMi4wMzdabS0yLC4wMTRjMCwuOS0uNTcyLDEuNjYtMS4yNSwxLjY2YS45NTMuOTUzLDAsMCwxLS40LS4xLDQuNjkxLDQuNjkxLDAsMCwwLDEuMzU1LTIuOCwzLjQ0LDMuNDQsMCwwLDEsLjE2OS40MzRBMy4xMzEsMy4xMzEsMCwwLDEsNDIuMjUsMTkuMzRabS0yLjQyNS0zLjAyNEEzLjg4NSwzLjg4NSwwLDAsMSw0MCwxNy40NWEyLjU5LDIuNTksMCwwLDEtMS4zMzcsMi40LDEuNiwxLjYsMCwwLDEtMS43NzYtLjI4OEE2Ljk4LDYuOTgsMCwwLDAsMzcuNSwxNi42OGE4Ljg4NCw4Ljg4NCwwLDAsMC0uMzExLTIuMjUxQTEuMjQzLDEuMjQzLDAsMCwxLDM4LDE0QzM4LjY1MywxNCwzOS40NjksMTUuMDI1LDM5LjgyNSwxNi4zMTZaTTMyLDExYzEuMTYyLDAsMi40NzgsMS40NzEsMy4xMywzLjVhNy4yLDcuMiwwLDAsMSwuMzcsMi4xNzcsNC44NjEsNC44NjEsMCwwLDEtLjY3NSwyLjUyOEEzLjMzMywzLjMzMywwLDAsMSwzMiwyMWEyLjgxLDIuODEsMCwwLDEtLjgtLjEyMyw0LjMsNC4zLDAsMCwwLC4wNDktLjUzN2MwLTEuNjM5LTEuMDEzLTMuODU2LTIuNy00LjI2N2E3LjQ1NCw3LjQ1NCwwLDAsMSwuMzE4LTEuNTc3QzI5LjUyMiwxMi40NzEsMzAuODM4LDExLDMyLDExWm0tNiwzYTEuMjQzLDEuMjQzLDAsMCwxLC44MTEuNDI5LDguOTU4LDguOTU4LDAsMCwwLS4zLDIuMTA2LDQuOTI5LDQuOTI5LDAsMCwwLTEuNjcsMi45ODJjLS4wMDktLjAwOS0uMDIyLS4wMTgtLjAzLS4wMjZBMi43ODYsMi43ODYsMCwwLDEsMjQsMTcuNDVhMy41NiwzLjU2LDAsMCwxLC4wODMtLjc1OUMyNC4zNDQsMTUuMjgzLDI1LjI1OCwxNCwyNiwxNFptLTUuMTMyLDQuNTcyQzIxLjExOCwxNy42MTIsMjEuNzA1LDE3LDIyLDE3YS4yMDkuMjA5LDAsMCwxLC4wMjMuMDA4Yy0uMDEyLjE0Ny0uMDIzLjI5NC0uMDIzLjQ0MmE0LjksNC45LDAsMCwwLC45NjEsMi45NEExLjE2NiwxLjE2NiwwLDAsMSwyMiwyMWMtLjY3OCwwLTEuMjUtLjc2MS0xLjI1LTEuNjZBMi43MzIsMi43MzIsMCwwLDEsMjAuODY4LDE4LjU3MlptLTIuMTEzLjgxOUEzLjQ2OSwzLjQ2OSwwLDAsMCwyMiwyM2EzLjEwNywzLjEwNywwLDAsMCwyLjUtMS4zMzQsMy41NzYsMy41NzYsMCwwLDAsLjU0Mi4xOTRBMy4yMjcsMy4yMjcsMCwwLDAsMjgsMjRhMy4xMTcsMy4xMTcsMCwwLDAsMi40NTgtMS4yNjUsNC44MjIsNC44MjIsMCwwLDAsMS4yOTEuMjQ4TDM2LjIsMjQuOTYxYy0xLjQxLjAyNS0yLjgxNC4wMzktNC4yLjAzOS00Ljg5MywwLTkuNzc3LS4xNTEtMTQuMTIzLS40MzhDNy4yODUsMjMuODUxLDMuMjU1LDIyLjYxNywyLjIwOSwyMiwzLjI5MiwyMS4zNDQsNy41NjQsMjAuMDY2LDE4Ljc1NSwxOS4zOTFaTTM4LjUyMSw1My45MWMtMi4xLjA2LTQuMy4wOS02LjUyMS4wOUMxNC40ODEsNTQsMy4yODgsNTIuMTYyLDIsNTAuODUzdi0xMy41YTIuNDUsMi40NSwwLDAsMCwuNTEuMDYyQTIuNSwyLjUsMCwwLDAsNSwzNC45MlYyOS4xOWEuOTg5Ljk4OSwwLDAsMSwuMzU4LS43NjMuOTI2LjkyNiwwLDAsMSwuNzY4LS4yMDcuNTIyLjUyMiwwLDAsMCwuMDU3LjAxMWgwQS45OTEuOTkxLDAsMCwxLDcsMjkuMTl2My43M0EyLjQ4NiwyLjQ4NiwwLDAsMCw4LjczMywzNS4zLDIuNjE1LDIuNjE1LDAsMCwwLDEwLDM1LjM3N1Y0MS40NGEyLjk4NywyLjk4NywwLDAsMCwyLjI2OCwyLjkxLDMuMDYzLDMuMDYzLDAsMCwwLC43MzIuMDksMywzLDAsMCwwLDMtM1YzMS4wMWExLjQ2MiwxLjQ2MiwwLDAsMSwuNDY0LTEuMDc2LDEuNDgxLDEuNDgxLDAsMCwxLDEuMDQ5LS40aC4wMDdhLjkzMi45MzIsMCwwLDAsLjEuMDEyQTEuNDcsMS40NywwLDAsMSwxOSwzMS4wMXY0LjQzYTIuOTg3LDIuOTg3LDAsMCwwLDIuMjY4LDIuOTEsMy4wNjMsMy4wNjMsMCwwLDAsLjczMi4wOSwzLDMsMCwwLDAsMy0zVjMxLjQxYTEuNDYyLDEuNDYyLDAsMCwxLC40NDYtMS4wNTksMS40LDEuNCwwLDAsMSwxLjExMy0uNDExQTEuNDgsMS40OCwwLDAsMSwyOCwzMS40MVY0NS44OWEzLjA3MiwzLjA3MiwwLDAsMCwyLjcyNSwzLjA5NSwyLjgsMi44LDAsMCwwLC4yODkuMDE1QTMuMDE1LDMuMDE1LDAsMCwwLDM0LDQ2VjQxLjgxMmEyLjc2MiwyLjc2MiwwLDAsMCwuNzI1LjE3MywyLjgsMi44LDAsMCwwLC4yODkuMDE1QTMuMDE1LDMuMDE1LDAsMCwwLDM4LDM5VjMyLjU2YTIuNywyLjcsMCwwLDEsMi0yLjYxNVY1Mi40MUExLjUwNSwxLjUwNSwwLDAsMSwzOC41MjEsNTMuOTFabTIzLjE3LTIuMjU4YTEsMSwwLDAsMS0uNzE4LjI3OUw0Miw1MS4zMjJ2LS44N2wxNS45NS41MThoLjAzOGEyLjAyNiwyLjAyNiwwLDAsMCwxLjQxMi0uNTc3QTEuOTc5LDEuOTc5LDAsMCwwLDYwLDQ4Ljk3di00YTIsMiwwLDAsMC0xLjkzOC0yTDQyLDQyLjQ1MnYtMWwxNS45NS41MThoLjAzOGEyLjAyNiwyLjAyNiwwLDAsMCwxLjQxMi0uNTc3QTEuOTc5LDEuOTc5LDAsMCwwLDYwLDM5Ljk3di00YTIsMiwwLDAsMC0xLjkzOC0yTDQyLDMzLjQ1MnYtMWwxNS45NS41MThoLjAzOGEyLjAyNiwyLjAyNiwwLDAsMCwxLjQxMi0uNTc3QTEuOTc5LDEuOTc5LDAsMCwwLDYwLDMwLjk3di00YTIsMiwwLDAsMC0xLjkzOC0ybC0xOC4yNDktLjU5NC0yLjcyNi0xLjIxMiwyNC45MTMuOFY1MC45M0EuOTkuOTksMCwwLDEsNjEuNjkxLDUxLjY1MloiLz48dGV4dCBmb250LWZhbWlseT0iJ0hlbHZldGljYSBOZXVlJywgSGVsdmV0aWNhLCBBcmlhbC1Vbmljb2RlLCBBcmlhbCwgU2Fucy1zZXJpZiIgZm9udC13ZWlnaHQ9ImJvbGQiIGZvbnQtc2l6ZT0iNXB4IiBmaWxsPSIjMDAwMDAwIiB5PSI3OSIgeD0iMCI+Q3JlYXRlZCBieSBUb1pJY29uPC90ZXh0Pjx0ZXh0IGZvbnQtZmFtaWx5PSInSGVsdmV0aWNhIE5ldWUnLCBIZWx2ZXRpY2EsIEFyaWFsLVVuaWNvZGUsIEFyaWFsLCBTYW5zLXNlcmlmIiBmb250LXdlaWdodD0iYm9sZCIgZm9udC1zaXplPSI1cHgiIGZpbGw9IiMwMDAwMDAiIHk9Ijg0IiB4PSIwIj5mcm9tIHRoZSBOb3VuIFByb2plY3Q8L3RleHQ+PC9zdmc+;clipPath=inset(10% 0% 29.33% 0%);imageBackground=none;fontColor=none;noLabel=1;" vertex="1" parent="1">
          <mxGeometry x="285" y="286" width="190" height="144.08" as="geometry" />
        </mxCell>
      </root>
    </mxGraphModel>
  </diagram>
  <diagram id="fd2jXRZ33dXDw6gZ3wFL" name="MatchCakeV4">
    <mxGraphModel dx="875" dy="518" grid="1" gridSize="10" guides="1" tooltips="1" connect="1" arrows="1" fold="1" page="1" pageScale="1" pageWidth="850" pageHeight="1100" math="0" shadow="0">
      <root>
        <mxCell id="0" />
        <mxCell id="1" parent="0" />
        <mxCell id="y5XVMU7300RkX7haZ8rY-3" value="" style="shape=image;verticalLabelPosition=bottom;labelBackgroundColor=default;verticalAlign=top;aspect=fixed;imageAspect=0;image=data:image/svg+xml,PHN2ZyB4bWxuczp4bGluaz0iaHR0cDovL3d3dy53My5vcmcvMTk5OS94bGluayIgeG1sbnM9Imh0dHA6Ly93d3cudzMub3JnLzIwMDAvc3ZnIiB4bWw6c3BhY2U9InByZXNlcnZlIiB2aWV3Qm94PSIwIDAgMTAwIDEyNSIgeT0iMHB4IiB4PSIwcHgiIHZlcnNpb249IjEuMSI+PGc+PGc+PHBhdGggZD0iTTQ4LjI2Nyw1Mi44MTJjLTkuODg3LDAtMjguNTg2LTEuNjM2LTI4LjU4Ni03LjgyNGMwLTQuMjk4LDguNzQyLTYuMjQ2LDE2LjA3Ni03LjEyMmMwLjgyNC0wLjA5OCwxLjU3LDAuNDg5LDEuNjY3LDEuMzExICAgIGMwLjA5OSwwLjgyMy0wLjQ4OSwxLjU2OS0xLjMxMSwxLjY2N2MtMTAuMTI1LDEuMjEtMTMuNDMzLDMuNDkzLTEzLjQzMyw0LjE0NGMwLDEuNDQzLDguNzA1LDQuODI0LDI1LjU4Niw0LjgyNCAgICBjMTYuODgsMCwyNS41ODQtMy4zODEsMjUuNTg0LTQuODI0cy04LjcwNC00LjgyNS0yNS41ODQtNC44MjVjLTAuOTQsMC0xLjg2OCwwLjAxMS0yLjc4MywwLjAzMyAgICBjLTAuODE1LDAuMDU2LTEuNTE2LTAuNjM1LTEuNTM2LTEuNDYzczAuNjM1LTEuNTE2LDEuNDYzLTEuNTM2YzAuOTM4LTAuMDIzLDEuODkxLTAuMDM0LDIuODU1LTAuMDM0ICAgIGM5Ljg4NywwLDI4LjU4NCwxLjYzNSwyOC41ODQsNy44MjVDNzYuODUyLDUxLjE3Niw1OC4xNTQsNTIuODEyLDQ4LjI2Nyw1Mi44MTJ6Ii8+PC9nPjxnPjxwYXRoIGQ9Ik00OC4yNjEsODQuNzkyYy0xNS43NjUsMC0yOC41OTEtMTUuMTM1LTI4LjU5MS0zMy43MzhjMC0xLjQyNCwwLjA3Ni0yLjg1NiwwLjIyNi00LjI1NiAgICBjMC4wODgtMC44MjUsMC44MzQtMS40MTIsMS42NTEtMS4zMzJjMC44MjQsMC4wODgsMS40MiwwLjgyOCwxLjMzMiwxLjY1MWMtMC4xMzksMS4yOTQtMC4yMDksMi42MTktMC4yMDksMy45MzcgICAgYzAsMTYuOTQ5LDExLjQ4LDMwLjczOCwyNS41OTEsMzAuNzM4YzE0LjExMSwwLDI1LjU5LTEzLjc4OSwyNS41OS0zMC43MzhjMC0xLjUxMi0wLjA5Mi0zLjAzNC0wLjI3NC00LjUyMyAgICBjLTAuMTAxLTAuODIyLDAuNDg1LTEuNTcsMS4zMDgtMS42N2MwLjgyMi0wLjEwMywxLjU3LDAuNDg0LDEuNjcxLDEuMzA3YzAuMTk2LDEuNjA5LDAuMjk2LDMuMjUzLDAuMjk2LDQuODg3ICAgIEM3Ni44NTIsNjkuNjU3LDY0LjAyNiw4NC43OTIsNDguMjYxLDg0Ljc5MnoiLz48L2c+PGc+PHBhdGggZD0iTTQ4LjM0NCw5My40NjFjLTE3LjUzOCwwLTM2LjE3Ny00LjM1Mi0zNi4xNzctMTIuNDE1YzAtMi4wNTYsMS4yODktNS4wNjksNy40MjctNy43NDkgICAgYzAuNzYtMC4zMjksMS42NDMsMC4wMTcsMS45NzUsMC43NzVzLTAuMDE1LDEuNjQzLTAuNzc0LDEuOTc1Yy0zLjU3NiwxLjU2MS01LjYyNywzLjM4My01LjYyNyw0Ljk5OSAgICBjMCw0LjQ0NCwxNC4xODgsOS40MTUsMzMuMTc3LDkuNDE1YzE4Ljk4OSwwLDMzLjE3Ny00Ljk3MSwzMy4xNzctOS40MTVjMC0xLjU2Ni0xLjk0NC0zLjM0Mi01LjMzNS00Ljg3MSAgICBjLTAuNzU2LTAuMzQtMS4wOTItMS4yMjktMC43NTEtMS45ODNjMC4zNC0wLjc1NiwxLjIyNy0xLjA5NSwxLjk4My0wLjc1MWM1Ljg3LDIuNjQ2LDcuMTAzLDUuNTk3LDcuMTAzLDcuNjA1ICAgIEM4NC41MjEsODkuMTA5LDY1Ljg4Miw5My40NjEsNDguMzQ0LDkzLjQ2MXoiLz48L2c+PGc+PHBhdGggZD0iTTcxLjc2Niw3MC43OTZjLTAuODI4LDAtMS41LTAuNjcyLTEuNS0xLjVzMC42NzItMS41LDEuNS0xLjVjNS4yNzgsMCwxMy4wNjYtNS4wOTYsMTMuMDY2LTkuNjczICAgIGMwLTQuODQ5LTMuOTQzLTguNzkzLTguNzkxLTguNzkzYy0wLjgyOCwwLTEuNS0wLjY3MS0xLjUtMS41czAuNjcyLTEuNSwxLjUtMS41YzYuNTAyLDAsMTEuNzkxLDUuMjkxLDExLjc5MSwxMS43OTMgICAgQzg3LjgzMiw2NC45OTYsNzcuOTY0LDcwLjc5Niw3MS43NjYsNzAuNzk2eiIvPjwvZz48Zz48cGF0aCBkPSJNNDEuMTM5LDQzLjMwNWMtMC40MjIsMC0wLjg0My0wLjE3OC0xLjEzOS0wLjUyNGMtMi45MDctMy4zOTEtMC41MjQtOC4wOTksMS41NzgtMTIuMjUzICAgIGMxLjk5Ni0zLjk0MywzLjE5MS02LjYxMiwxLjY4NC03LjcyNWMtNS45NDYtNC4zODktNC4zMDItMTQuNTgyLTQuMjI5LTE1LjAxNGMwLjEzOC0wLjgxNiwwLjkxLTEuMzY2LDEuNzI3LTEuMjI5ICAgIGMwLjgxNiwwLjEzNywxLjM2NywwLjkxLDEuMjMxLDEuNzI3Yy0wLjAxNSwwLjA4OC0xLjQwOSw4LjgxLDMuMDUyLDEyLjEwMmMzLjY2MSwyLjcwMiwxLjI5Nyw3LjM3My0wLjc4OCwxMS40OTMgICAgYy0xLjc2LDMuNDc5LTMuNTgxLDcuMDc2LTEuOTc4LDguOTQ3YzAuNTQsMC42MjksMC40NjYsMS41NzYtMC4xNjMsMi4xMTVDNDEuODMyLDQzLjE4Nyw0MS40ODQsNDMuMzA1LDQxLjEzOSw0My4zMDV6Ii8+PC9nPjxnPjxwYXRoIGQ9Ik0zMS4yOTcsMzUuNDAyYy0wLjM4OSwwLTAuNzc5LTAuMTQ5LTEuMDc0LTAuNDQ0Yy0xLjkwNC0xLjkwNy0wLjY3NC01LjYzNiwyLjA5NC0xMS40MzQgICAgYzIuMDMtNC4yNTUtMi40ODItNy4zMjYtMi42NzUtNy40NTVjLTAuNjg4LTAuNDU4LTAuODc3LTEuMzg4LTAuNDIyLTIuMDc3YzAuNDU3LTAuNjg4LDEuMzgxLTAuODgxLDIuMDcyLTAuNDI5ICAgIGMyLjM5NywxLjU3Myw2LjI2Myw1Ljk0OCwzLjczMiwxMS4yNTJjLTMuMDcxLDYuNDMyLTIuODE1LDcuNzgtMi42NjQsOC4wNDFjMC41ODUsMC41ODYsMC41NzgsMS41MjYtMC4wMDksMi4xMTIgICAgQzMyLjA2MSwzNS4yNTgsMzEuNjc5LDM1LjQwMiwzMS4yOTcsMzUuNDAyeiIvPjwvZz48Zz48cGF0aCBkPSJNNTMuMTgzLDM0LjgwNGMtMC4zODksMC0wLjc3OC0wLjE0OS0xLjA3NC0wLjQ0NGMtMS45MDMtMS45MDUtMC42NzQtNS42MzUsMi4wOTMtMTEuNDM1ICAgIGMyLjAzMS00LjI1NS0yLjQ3OS03LjMyNi0yLjY3My03LjQ1NWMtMC42ODgtMC40NTgtMC44NzgtMS4zODgtMC40MjItMi4wNzdjMC40NTctMC42ODgsMS4zNzktMC44ODEsMi4wNzItMC40MjkgICAgYzIuMzk2LDEuNTczLDYuMjYyLDUuOTQ5LDMuNzI5LDExLjI1MmMtMy4wNjgsNi40MzQtMi44MTMsNy43ODEtMi42NjIsOC4wNDFjMC41ODYsMC41ODYsMC41NzcsMS41MjctMC4wMDksMi4xMTIgICAgQzUzLjk0NywzNC42Niw1My41NjUsMzQuODA0LDUzLjE4MywzNC44MDR6Ii8+PC9nPjwvZz48dGV4dCBmb250LWZhbWlseT0iJ0hlbHZldGljYSBOZXVlJywgSGVsdmV0aWNhLCBBcmlhbC1Vbmljb2RlLCBBcmlhbCwgU2Fucy1zZXJpZiIgZm9udC13ZWlnaHQ9ImJvbGQiIGZvbnQtc2l6ZT0iNXB4IiBmaWxsPSIjMDAwMDAwIiB5PSIxMTUiIHg9IjAiPkNyZWF0ZWQgYnkgQmVzdGRlc2lnbm1hcmtldDwvdGV4dD48dGV4dCBmb250LWZhbWlseT0iJ0hlbHZldGljYSBOZXVlJywgSGVsdmV0aWNhLCBBcmlhbC1Vbmljb2RlLCBBcmlhbCwgU2Fucy1zZXJpZiIgZm9udC13ZWlnaHQ9ImJvbGQiIGZvbnQtc2l6ZT0iNXB4IiBmaWxsPSIjMDAwMDAwIiB5PSIxMjAiIHg9IjAiPmZyb20gdGhlIE5vdW4gUHJvamVjdDwvdGV4dD48L3N2Zz4=;clipPath=inset(4.67% 10% 24.67% 10%);" vertex="1" parent="1">
          <mxGeometry x="193.77" y="441" width="72.45" height="80" as="geometry" />
        </mxCell>
        <mxCell id="y5XVMU7300RkX7haZ8rY-5" value="" style="curved=1;endArrow=async;html=1;rounded=0;strokeWidth=6;endFill=1;endSize=18;" edge="1" parent="1">
          <mxGeometry width="50" height="50" relative="1" as="geometry">
            <mxPoint x="230" y="550" as="sourcePoint" />
            <mxPoint x="230" y="170" as="targetPoint" />
            <Array as="points">
              <mxPoint x="120" y="470" />
              <mxPoint x="120" y="260" />
            </Array>
          </mxGeometry>
        </mxCell>
        <mxCell id="y5XVMU7300RkX7haZ8rY-7" value="" style="line;strokeWidth=2;html=1;gradientColor=none;fillColor=none;opacity=50;dashed=1;" vertex="1" parent="1">
          <mxGeometry x="180" y="274" width="400" height="10" as="geometry" />
        </mxCell>
        <mxCell id="y5XVMU7300RkX7haZ8rY-8" value="" style="line;strokeWidth=2;html=1;gradientColor=none;fillColor=none;opacity=50;dashed=1;gradientDirection=radial;" vertex="1" parent="1">
          <mxGeometry x="470" y="354.5" width="110" height="10" as="geometry" />
        </mxCell>
        <mxCell id="y5XVMU7300RkX7haZ8rY-9" value="" style="line;strokeWidth=2;html=1;gradientColor=none;fillColor=none;strokeColor=default;opacity=50;dashed=1;" vertex="1" parent="1">
          <mxGeometry x="180" y="435" width="400" height="10" as="geometry" />
        </mxCell>
        <mxCell id="y5XVMU7300RkX7haZ8rY-10" value="" style="line;strokeWidth=2;direction=south;html=1;opacity=50;dashed=1;" vertex="1" parent="1">
          <mxGeometry x="275.21" y="200" width="10" height="320" as="geometry" />
        </mxCell>
        <mxCell id="y5XVMU7300RkX7haZ8rY-11" value="" style="line;strokeWidth=2;direction=south;html=1;opacity=50;dashed=1;" vertex="1" parent="1">
          <mxGeometry x="476" y="200" width="10" height="320" as="geometry" />
        </mxCell>
        <mxCell id="y5XVMU7300RkX7haZ8rY-12" value="" style="line;strokeWidth=2;direction=south;html=1;opacity=50;dashed=1;" vertex="1" parent="1">
          <mxGeometry x="375" y="200" width="10" height="90" as="geometry" />
        </mxCell>
        <mxCell id="y5XVMU7300RkX7haZ8rY-13" value="" style="shape=image;verticalLabelPosition=bottom;labelBackgroundColor=none;verticalAlign=top;aspect=fixed;imageAspect=0;image=data:image/svg+xml,PHN2ZyB4bWxucz0iaHR0cDovL3d3dy53My5vcmcvMjAwMC9zdmciIHk9IjBweCIgeD0iMHB4IiB2aWV3Qm94PSIwIDAgNjQgODAiIGRhdGEtbmFtZT0iU29saWQgTGluZSI+PHBhdGggZD0iTTQzLjgsMTcuM2EzLjYyMSwzLjYyMSwwLDAsMC0yLjI4Ni0yLjIzM0M0MC44ODQsMTMuNDQ3LDM5LjYzOSwxMiwzOCwxMmEyLjksMi45LDAsMCwwLTEuNTQzLjQ3OEMzNS41NTQsMTAuNjY0LDM0LjAzMiw5LDMyLDlzLTMuNTU2LDEuNjY1LTQuNDU4LDMuNDc3QTIuOSwyLjksMCwwLDAsMjYsMTJjLTEuNiwwLTIuODY1LDEuNDI5LTMuNTA4LDMuMDU3QTIuMjUsMi4yNSwwLDAsMCwyMiwxNWEzLjM2NywzLjM2NywwLDAsMC0yLjgyNSwyLjM2Qy4wMTMsMTguNDU3LDAsMjEuMTE4LDAsMjJWNTFjMCwxLjMxNywxLjIwNiwyLjY5Miw5Ljk1MiwzLjgyQTE4MS42NDksMTgxLjY0OSwwLDAsMCwzMiw1NmMyLjI0NCwwLDQuNDU4LS4wMyw2LjU5My0uMDlhMy41LDMuNSwwLDAsMCwzLjI3MS0yLjU5MmwxOS4wNC42MTFjLjAzNywwLC4wNzQsMCwuMTEsMGEzLDMsMCwwLDAsMi45ODYtM1YyMkM2NCwyMS4xLDYzLjk4NiwxOC4zNjIsNDMuOCwxNy4zWk0yNi43OTIsMjAuNzU1YTEuODU2LDEuODU2LDAsMCwxLS4wNDItLjQxNSwyLjgwNywyLjgwNywwLDAsMSwxLjEzLTIuMzA4TDI3Ljk0NywxOGMuNDE4LS4wNjksMS4zLDEuMTI4LDEuMywyLjMzNmExLjk0NCwxLjk0NCwwLDAsMS0uMTQuNzUyQTEuMjg3LDEuMjg3LDAsMCwxLDI4LDIyLDEuNCwxLjQsMCwwLDEsMjYuNzkyLDIwLjc1NVptMTcuNDU3LTEuNDI5YzEwLjY4OC42LDE2LjA5MSwxLjgyNywxNy40NzcsMi42MzNMNDMuNywyMS4zNzdhMy45NywzLjk3LDAsMCwwLC41NTItMi4wMzdabS0yLC4wMTRjMCwuOS0uNTcyLDEuNjYtMS4yNSwxLjY2YS45NTMuOTUzLDAsMCwxLS40LS4xLDQuNjkxLDQuNjkxLDAsMCwwLDEuMzU1LTIuOCwzLjQ0LDMuNDQsMCwwLDEsLjE2OS40MzRBMy4xMzEsMy4xMzEsMCwwLDEsNDIuMjUsMTkuMzRabS0yLjQyNS0zLjAyNEEzLjg4NSwzLjg4NSwwLDAsMSw0MCwxNy40NWEyLjU5LDIuNTksMCwwLDEtMS4zMzcsMi40LDEuNiwxLjYsMCwwLDEtMS43NzYtLjI4OEE2Ljk4LDYuOTgsMCwwLDAsMzcuNSwxNi42OGE4Ljg4NCw4Ljg4NCwwLDAsMC0uMzExLTIuMjUxQTEuMjQzLDEuMjQzLDAsMCwxLDM4LDE0QzM4LjY1MywxNCwzOS40NjksMTUuMDI1LDM5LjgyNSwxNi4zMTZaTTMyLDExYzEuMTYyLDAsMi40NzgsMS40NzEsMy4xMywzLjVhNy4yLDcuMiwwLDAsMSwuMzcsMi4xNzcsNC44NjEsNC44NjEsMCwwLDEtLjY3NSwyLjUyOEEzLjMzMywzLjMzMywwLDAsMSwzMiwyMWEyLjgxLDIuODEsMCwwLDEtLjgtLjEyMyw0LjMsNC4zLDAsMCwwLC4wNDktLjUzN2MwLTEuNjM5LTEuMDEzLTMuODU2LTIuNy00LjI2N2E3LjQ1NCw3LjQ1NCwwLDAsMSwuMzE4LTEuNTc3QzI5LjUyMiwxMi40NzEsMzAuODM4LDExLDMyLDExWm0tNiwzYTEuMjQzLDEuMjQzLDAsMCwxLC44MTEuNDI5LDguOTU4LDguOTU4LDAsMCwwLS4zLDIuMTA2LDQuOTI5LDQuOTI5LDAsMCwwLTEuNjcsMi45ODJjLS4wMDktLjAwOS0uMDIyLS4wMTgtLjAzLS4wMjZBMi43ODYsMi43ODYsMCwwLDEsMjQsMTcuNDVhMy41NiwzLjU2LDAsMCwxLC4wODMtLjc1OUMyNC4zNDQsMTUuMjgzLDI1LjI1OCwxNCwyNiwxNFptLTUuMTMyLDQuNTcyQzIxLjExOCwxNy42MTIsMjEuNzA1LDE3LDIyLDE3YS4yMDkuMjA5LDAsMCwxLC4wMjMuMDA4Yy0uMDEyLjE0Ny0uMDIzLjI5NC0uMDIzLjQ0MmE0LjksNC45LDAsMCwwLC45NjEsMi45NEExLjE2NiwxLjE2NiwwLDAsMSwyMiwyMWMtLjY3OCwwLTEuMjUtLjc2MS0xLjI1LTEuNjZBMi43MzIsMi43MzIsMCwwLDEsMjAuODY4LDE4LjU3MlptLTIuMTEzLjgxOUEzLjQ2OSwzLjQ2OSwwLDAsMCwyMiwyM2EzLjEwNywzLjEwNywwLDAsMCwyLjUtMS4zMzQsMy41NzYsMy41NzYsMCwwLDAsLjU0Mi4xOTRBMy4yMjcsMy4yMjcsMCwwLDAsMjgsMjRhMy4xMTcsMy4xMTcsMCwwLDAsMi40NTgtMS4yNjUsNC44MjIsNC44MjIsMCwwLDAsMS4yOTEuMjQ4TDM2LjIsMjQuOTYxYy0xLjQxLjAyNS0yLjgxNC4wMzktNC4yLjAzOS00Ljg5MywwLTkuNzc3LS4xNTEtMTQuMTIzLS40MzhDNy4yODUsMjMuODUxLDMuMjU1LDIyLjYxNywyLjIwOSwyMiwzLjI5MiwyMS4zNDQsNy41NjQsMjAuMDY2LDE4Ljc1NSwxOS4zOTFaTTM4LjUyMSw1My45MWMtMi4xLjA2LTQuMy4wOS02LjUyMS4wOUMxNC40ODEsNTQsMy4yODgsNTIuMTYyLDIsNTAuODUzdi0xMy41YTIuNDUsMi40NSwwLDAsMCwuNTEuMDYyQTIuNSwyLjUsMCwwLDAsNSwzNC45MlYyOS4xOWEuOTg5Ljk4OSwwLDAsMSwuMzU4LS43NjMuOTI2LjkyNiwwLDAsMSwuNzY4LS4yMDcuNTIyLjUyMiwwLDAsMCwuMDU3LjAxMWgwQS45OTEuOTkxLDAsMCwxLDcsMjkuMTl2My43M0EyLjQ4NiwyLjQ4NiwwLDAsMCw4LjczMywzNS4zLDIuNjE1LDIuNjE1LDAsMCwwLDEwLDM1LjM3N1Y0MS40NGEyLjk4NywyLjk4NywwLDAsMCwyLjI2OCwyLjkxLDMuMDYzLDMuMDYzLDAsMCwwLC43MzIuMDksMywzLDAsMCwwLDMtM1YzMS4wMWExLjQ2MiwxLjQ2MiwwLDAsMSwuNDY0LTEuMDc2LDEuNDgxLDEuNDgxLDAsMCwxLDEuMDQ5LS40aC4wMDdhLjkzMi45MzIsMCwwLDAsLjEuMDEyQTEuNDcsMS40NywwLDAsMSwxOSwzMS4wMXY0LjQzYTIuOTg3LDIuOTg3LDAsMCwwLDIuMjY4LDIuOTEsMy4wNjMsMy4wNjMsMCwwLDAsLjczMi4wOSwzLDMsMCwwLDAsMy0zVjMxLjQxYTEuNDYyLDEuNDYyLDAsMCwxLC40NDYtMS4wNTksMS40LDEuNCwwLDAsMSwxLjExMy0uNDExQTEuNDgsMS40OCwwLDAsMSwyOCwzMS40MVY0NS44OWEzLjA3MiwzLjA3MiwwLDAsMCwyLjcyNSwzLjA5NSwyLjgsMi44LDAsMCwwLC4yODkuMDE1QTMuMDE1LDMuMDE1LDAsMCwwLDM0LDQ2VjQxLjgxMmEyLjc2MiwyLjc2MiwwLDAsMCwuNzI1LjE3MywyLjgsMi44LDAsMCwwLC4yODkuMDE1QTMuMDE1LDMuMDE1LDAsMCwwLDM4LDM5VjMyLjU2YTIuNywyLjcsMCwwLDEsMi0yLjYxNVY1Mi40MUExLjUwNSwxLjUwNSwwLDAsMSwzOC41MjEsNTMuOTFabTIzLjE3LTIuMjU4YTEsMSwwLDAsMS0uNzE4LjI3OUw0Miw1MS4zMjJ2LS44N2wxNS45NS41MThoLjAzOGEyLjAyNiwyLjAyNiwwLDAsMCwxLjQxMi0uNTc3QTEuOTc5LDEuOTc5LDAsMCwwLDYwLDQ4Ljk3di00YTIsMiwwLDAsMC0xLjkzOC0yTDQyLDQyLjQ1MnYtMWwxNS45NS41MThoLjAzOGEyLjAyNiwyLjAyNiwwLDAsMCwxLjQxMi0uNTc3QTEuOTc5LDEuOTc5LDAsMCwwLDYwLDM5Ljk3di00YTIsMiwwLDAsMC0xLjkzOC0yTDQyLDMzLjQ1MnYtMWwxNS45NS41MThoLjAzOGEyLjAyNiwyLjAyNiwwLDAsMCwxLjQxMi0uNTc3QTEuOTc5LDEuOTc5LDAsMCwwLDYwLDMwLjk3di00YTIsMiwwLDAsMC0xLjkzOC0ybC0xOC4yNDktLjU5NC0yLjcyNi0xLjIxMiwyNC45MTMuOFY1MC45M0EuOTkuOTksMCwwLDEsNjEuNjkxLDUxLjY1MloiLz48dGV4dCBmb250LWZhbWlseT0iJ0hlbHZldGljYSBOZXVlJywgSGVsdmV0aWNhLCBBcmlhbC1Vbmljb2RlLCBBcmlhbCwgU2Fucy1zZXJpZiIgZm9udC13ZWlnaHQ9ImJvbGQiIGZvbnQtc2l6ZT0iNXB4IiBmaWxsPSIjMDAwMDAwIiB5PSI3OSIgeD0iMCI+Q3JlYXRlZCBieSBUb1pJY29uPC90ZXh0Pjx0ZXh0IGZvbnQtZmFtaWx5PSInSGVsdmV0aWNhIE5ldWUnLCBIZWx2ZXRpY2EsIEFyaWFsLVVuaWNvZGUsIEFyaWFsLCBTYW5zLXNlcmlmIiBmb250LXdlaWdodD0iYm9sZCIgZm9udC1zaXplPSI1cHgiIGZpbGw9IiMwMDAwMDAiIHk9Ijg0IiB4PSIwIj5mcm9tIHRoZSBOb3VuIFByb2plY3Q8L3RleHQ+PC9zdmc+;clipPath=inset(10% 0% 29.33% 0%);imageBackground=none;fontColor=none;noLabel=1;" vertex="1" parent="1">
          <mxGeometry x="285" y="286" width="190" height="144.08" as="geometry" />
        </mxCell>
        <mxCell id="y5XVMU7300RkX7haZ8rY-14" value="" style="line;strokeWidth=2;html=1;gradientColor=none;fillColor=none;opacity=50;dashed=1;gradientDirection=radial;" vertex="1" parent="1">
          <mxGeometry x="180" y="355.5" width="100" height="10" as="geometry" />
        </mxCell>
        <mxCell id="y5XVMU7300RkX7haZ8rY-15" value="" style="line;strokeWidth=2;direction=south;html=1;opacity=50;dashed=1;" vertex="1" parent="1">
          <mxGeometry x="375" y="434.5" width="10" height="85.5" as="geometry" />
        </mxCell>
        <mxCell id="y5XVMU7300RkX7haZ8rY-16" value="" style="shape=image;verticalLabelPosition=bottom;labelBackgroundColor=default;verticalAlign=top;aspect=fixed;imageAspect=0;image=data:image/svg+xml,PHN2ZyB4bWxuczp4bGluaz0iaHR0cDovL3d3dy53My5vcmcvMTk5OS94bGluayIgeG1sbnM9Imh0dHA6Ly93d3cudzMub3JnLzIwMDAvc3ZnIiB4bWw6c3BhY2U9InByZXNlcnZlIiB2aWV3Qm94PSIwIDAgMTAwIDEyNSIgeT0iMHB4IiB4PSIwcHgiIHZlcnNpb249IjEuMSI+PGc+PGc+PHBhdGggZD0iTTQ4LjI2Nyw1Mi44MTJjLTkuODg3LDAtMjguNTg2LTEuNjM2LTI4LjU4Ni03LjgyNGMwLTQuMjk4LDguNzQyLTYuMjQ2LDE2LjA3Ni03LjEyMmMwLjgyNC0wLjA5OCwxLjU3LDAuNDg5LDEuNjY3LDEuMzExICAgIGMwLjA5OSwwLjgyMy0wLjQ4OSwxLjU2OS0xLjMxMSwxLjY2N2MtMTAuMTI1LDEuMjEtMTMuNDMzLDMuNDkzLTEzLjQzMyw0LjE0NGMwLDEuNDQzLDguNzA1LDQuODI0LDI1LjU4Niw0LjgyNCAgICBjMTYuODgsMCwyNS41ODQtMy4zODEsMjUuNTg0LTQuODI0cy04LjcwNC00LjgyNS0yNS41ODQtNC44MjVjLTAuOTQsMC0xLjg2OCwwLjAxMS0yLjc4MywwLjAzMyAgICBjLTAuODE1LDAuMDU2LTEuNTE2LTAuNjM1LTEuNTM2LTEuNDYzczAuNjM1LTEuNTE2LDEuNDYzLTEuNTM2YzAuOTM4LTAuMDIzLDEuODkxLTAuMDM0LDIuODU1LTAuMDM0ICAgIGM5Ljg4NywwLDI4LjU4NCwxLjYzNSwyOC41ODQsNy44MjVDNzYuODUyLDUxLjE3Niw1OC4xNTQsNTIuODEyLDQ4LjI2Nyw1Mi44MTJ6Ii8+PC9nPjxnPjxwYXRoIGQ9Ik00OC4yNjEsODQuNzkyYy0xNS43NjUsMC0yOC41OTEtMTUuMTM1LTI4LjU5MS0zMy43MzhjMC0xLjQyNCwwLjA3Ni0yLjg1NiwwLjIyNi00LjI1NiAgICBjMC4wODgtMC44MjUsMC44MzQtMS40MTIsMS42NTEtMS4zMzJjMC44MjQsMC4wODgsMS40MiwwLjgyOCwxLjMzMiwxLjY1MWMtMC4xMzksMS4yOTQtMC4yMDksMi42MTktMC4yMDksMy45MzcgICAgYzAsMTYuOTQ5LDExLjQ4LDMwLjczOCwyNS41OTEsMzAuNzM4YzE0LjExMSwwLDI1LjU5LTEzLjc4OSwyNS41OS0zMC43MzhjMC0xLjUxMi0wLjA5Mi0zLjAzNC0wLjI3NC00LjUyMyAgICBjLTAuMTAxLTAuODIyLDAuNDg1LTEuNTcsMS4zMDgtMS42N2MwLjgyMi0wLjEwMywxLjU3LDAuNDg0LDEuNjcxLDEuMzA3YzAuMTk2LDEuNjA5LDAuMjk2LDMuMjUzLDAuMjk2LDQuODg3ICAgIEM3Ni44NTIsNjkuNjU3LDY0LjAyNiw4NC43OTIsNDguMjYxLDg0Ljc5MnoiLz48L2c+PGc+PHBhdGggZD0iTTQ4LjM0NCw5My40NjFjLTE3LjUzOCwwLTM2LjE3Ny00LjM1Mi0zNi4xNzctMTIuNDE1YzAtMi4wNTYsMS4yODktNS4wNjksNy40MjctNy43NDkgICAgYzAuNzYtMC4zMjksMS42NDMsMC4wMTcsMS45NzUsMC43NzVzLTAuMDE1LDEuNjQzLTAuNzc0LDEuOTc1Yy0zLjU3NiwxLjU2MS01LjYyNywzLjM4My01LjYyNyw0Ljk5OSAgICBjMCw0LjQ0NCwxNC4xODgsOS40MTUsMzMuMTc3LDkuNDE1YzE4Ljk4OSwwLDMzLjE3Ny00Ljk3MSwzMy4xNzctOS40MTVjMC0xLjU2Ni0xLjk0NC0zLjM0Mi01LjMzNS00Ljg3MSAgICBjLTAuNzU2LTAuMzQtMS4wOTItMS4yMjktMC43NTEtMS45ODNjMC4zNC0wLjc1NiwxLjIyNy0xLjA5NSwxLjk4My0wLjc1MWM1Ljg3LDIuNjQ2LDcuMTAzLDUuNTk3LDcuMTAzLDcuNjA1ICAgIEM4NC41MjEsODkuMTA5LDY1Ljg4Miw5My40NjEsNDguMzQ0LDkzLjQ2MXoiLz48L2c+PGc+PHBhdGggZD0iTTcxLjc2Niw3MC43OTZjLTAuODI4LDAtMS41LTAuNjcyLTEuNS0xLjVzMC42NzItMS41LDEuNS0xLjVjNS4yNzgsMCwxMy4wNjYtNS4wOTYsMTMuMDY2LTkuNjczICAgIGMwLTQuODQ5LTMuOTQzLTguNzkzLTguNzkxLTguNzkzYy0wLjgyOCwwLTEuNS0wLjY3MS0xLjUtMS41czAuNjcyLTEuNSwxLjUtMS41YzYuNTAyLDAsMTEuNzkxLDUuMjkxLDExLjc5MSwxMS43OTMgICAgQzg3LjgzMiw2NC45OTYsNzcuOTY0LDcwLjc5Niw3MS43NjYsNzAuNzk2eiIvPjwvZz48Zz48cGF0aCBkPSJNNDEuMTM5LDQzLjMwNWMtMC40MjIsMC0wLjg0My0wLjE3OC0xLjEzOS0wLjUyNGMtMi45MDctMy4zOTEtMC41MjQtOC4wOTksMS41NzgtMTIuMjUzICAgIGMxLjk5Ni0zLjk0MywzLjE5MS02LjYxMiwxLjY4NC03LjcyNWMtNS45NDYtNC4zODktNC4zMDItMTQuNTgyLTQuMjI5LTE1LjAxNGMwLjEzOC0wLjgxNiwwLjkxLTEuMzY2LDEuNzI3LTEuMjI5ICAgIGMwLjgxNiwwLjEzNywxLjM2NywwLjkxLDEuMjMxLDEuNzI3Yy0wLjAxNSwwLjA4OC0xLjQwOSw4LjgxLDMuMDUyLDEyLjEwMmMzLjY2MSwyLjcwMiwxLjI5Nyw3LjM3My0wLjc4OCwxMS40OTMgICAgYy0xLjc2LDMuNDc5LTMuNTgxLDcuMDc2LTEuOTc4LDguOTQ3YzAuNTQsMC42MjksMC40NjYsMS41NzYtMC4xNjMsMi4xMTVDNDEuODMyLDQzLjE4Nyw0MS40ODQsNDMuMzA1LDQxLjEzOSw0My4zMDV6Ii8+PC9nPjxnPjxwYXRoIGQ9Ik0zMS4yOTcsMzUuNDAyYy0wLjM4OSwwLTAuNzc5LTAuMTQ5LTEuMDc0LTAuNDQ0Yy0xLjkwNC0xLjkwNy0wLjY3NC01LjYzNiwyLjA5NC0xMS40MzQgICAgYzIuMDMtNC4yNTUtMi40ODItNy4zMjYtMi42NzUtNy40NTVjLTAuNjg4LTAuNDU4LTAuODc3LTEuMzg4LTAuNDIyLTIuMDc3YzAuNDU3LTAuNjg4LDEuMzgxLTAuODgxLDIuMDcyLTAuNDI5ICAgIGMyLjM5NywxLjU3Myw2LjI2Myw1Ljk0OCwzLjczMiwxMS4yNTJjLTMuMDcxLDYuNDMyLTIuODE1LDcuNzgtMi42NjQsOC4wNDFjMC41ODUsMC41ODYsMC41NzgsMS41MjYtMC4wMDksMi4xMTIgICAgQzMyLjA2MSwzNS4yNTgsMzEuNjc5LDM1LjQwMiwzMS4yOTcsMzUuNDAyeiIvPjwvZz48Zz48cGF0aCBkPSJNNTMuMTgzLDM0LjgwNGMtMC4zODksMC0wLjc3OC0wLjE0OS0xLjA3NC0wLjQ0NGMtMS45MDMtMS45MDUtMC42NzQtNS42MzUsMi4wOTMtMTEuNDM1ICAgIGMyLjAzMS00LjI1NS0yLjQ3OS03LjMyNi0yLjY3My03LjQ1NWMtMC42ODgtMC40NTgtMC44NzgtMS4zODgtMC40MjItMi4wNzdjMC40NTctMC42ODgsMS4zNzktMC44ODEsMi4wNzItMC40MjkgICAgYzIuMzk2LDEuNTczLDYuMjYyLDUuOTQ5LDMuNzI5LDExLjI1MmMtMy4wNjgsNi40MzQtMi44MTMsNy43ODEtMi42NjIsOC4wNDFjMC41ODYsMC41ODYsMC41NzcsMS41MjctMC4wMDksMi4xMTIgICAgQzUzLjk0NywzNC42Niw1My41NjUsMzQuODA0LDUzLjE4MywzNC44MDR6Ii8+PC9nPjwvZz48dGV4dCBmb250LWZhbWlseT0iJ0hlbHZldGljYSBOZXVlJywgSGVsdmV0aWNhLCBBcmlhbC1Vbmljb2RlLCBBcmlhbCwgU2Fucy1zZXJpZiIgZm9udC13ZWlnaHQ9ImJvbGQiIGZvbnQtc2l6ZT0iNXB4IiBmaWxsPSIjMDAwMDAwIiB5PSIxMTUiIHg9IjAiPkNyZWF0ZWQgYnkgQmVzdGRlc2lnbm1hcmtldDwvdGV4dD48dGV4dCBmb250LWZhbWlseT0iJ0hlbHZldGljYSBOZXVlJywgSGVsdmV0aWNhLCBBcmlhbC1Vbmljb2RlLCBBcmlhbCwgU2Fucy1zZXJpZiIgZm9udC13ZWlnaHQ9ImJvbGQiIGZvbnQtc2l6ZT0iNXB4IiBmaWxsPSIjMDAwMDAwIiB5PSIxMjAiIHg9IjAiPmZyb20gdGhlIE5vdW4gUHJvamVjdDwvdGV4dD48L3N2Zz4=;clipPath=inset(4.67% 10% 24.67% 10%);" vertex="1" parent="1">
          <mxGeometry x="495" y="441" width="72.45" height="80" as="geometry" />
        </mxCell>
        <mxCell id="y5XVMU7300RkX7haZ8rY-17" value="" style="shape=image;verticalLabelPosition=bottom;labelBackgroundColor=default;verticalAlign=top;aspect=fixed;imageAspect=0;image=data:image/svg+xml,PHN2ZyB4bWxuczp4bGluaz0iaHR0cDovL3d3dy53My5vcmcvMTk5OS94bGluayIgeG1sbnM9Imh0dHA6Ly93d3cudzMub3JnLzIwMDAvc3ZnIiB4bWw6c3BhY2U9InByZXNlcnZlIiB2aWV3Qm94PSIwIDAgMTAwIDEyNSIgeT0iMHB4IiB4PSIwcHgiIHZlcnNpb249IjEuMSI+PGc+PGc+PHBhdGggZD0iTTQ4LjI2Nyw1Mi44MTJjLTkuODg3LDAtMjguNTg2LTEuNjM2LTI4LjU4Ni03LjgyNGMwLTQuMjk4LDguNzQyLTYuMjQ2LDE2LjA3Ni03LjEyMmMwLjgyNC0wLjA5OCwxLjU3LDAuNDg5LDEuNjY3LDEuMzExICAgIGMwLjA5OSwwLjgyMy0wLjQ4OSwxLjU2OS0xLjMxMSwxLjY2N2MtMTAuMTI1LDEuMjEtMTMuNDMzLDMuNDkzLTEzLjQzMyw0LjE0NGMwLDEuNDQzLDguNzA1LDQuODI0LDI1LjU4Niw0LjgyNCAgICBjMTYuODgsMCwyNS41ODQtMy4zODEsMjUuNTg0LTQuODI0cy04LjcwNC00LjgyNS0yNS41ODQtNC44MjVjLTAuOTQsMC0xLjg2OCwwLjAxMS0yLjc4MywwLjAzMyAgICBjLTAuODE1LDAuMDU2LTEuNTE2LTAuNjM1LTEuNTM2LTEuNDYzczAuNjM1LTEuNTE2LDEuNDYzLTEuNTM2YzAuOTM4LTAuMDIzLDEuODkxLTAuMDM0LDIuODU1LTAuMDM0ICAgIGM5Ljg4NywwLDI4LjU4NCwxLjYzNSwyOC41ODQsNy44MjVDNzYuODUyLDUxLjE3Niw1OC4xNTQsNTIuODEyLDQ4LjI2Nyw1Mi44MTJ6Ii8+PC9nPjxnPjxwYXRoIGQ9Ik00OC4yNjEsODQuNzkyYy0xNS43NjUsMC0yOC41OTEtMTUuMTM1LTI4LjU5MS0zMy43MzhjMC0xLjQyNCwwLjA3Ni0yLjg1NiwwLjIyNi00LjI1NiAgICBjMC4wODgtMC44MjUsMC44MzQtMS40MTIsMS42NTEtMS4zMzJjMC44MjQsMC4wODgsMS40MiwwLjgyOCwxLjMzMiwxLjY1MWMtMC4xMzksMS4yOTQtMC4yMDksMi42MTktMC4yMDksMy45MzcgICAgYzAsMTYuOTQ5LDExLjQ4LDMwLjczOCwyNS41OTEsMzAuNzM4YzE0LjExMSwwLDI1LjU5LTEzLjc4OSwyNS41OS0zMC43MzhjMC0xLjUxMi0wLjA5Mi0zLjAzNC0wLjI3NC00LjUyMyAgICBjLTAuMTAxLTAuODIyLDAuNDg1LTEuNTcsMS4zMDgtMS42N2MwLjgyMi0wLjEwMywxLjU3LDAuNDg0LDEuNjcxLDEuMzA3YzAuMTk2LDEuNjA5LDAuMjk2LDMuMjUzLDAuMjk2LDQuODg3ICAgIEM3Ni44NTIsNjkuNjU3LDY0LjAyNiw4NC43OTIsNDguMjYxLDg0Ljc5MnoiLz48L2c+PGc+PHBhdGggZD0iTTQ4LjM0NCw5My40NjFjLTE3LjUzOCwwLTM2LjE3Ny00LjM1Mi0zNi4xNzctMTIuNDE1YzAtMi4wNTYsMS4yODktNS4wNjksNy40MjctNy43NDkgICAgYzAuNzYtMC4zMjksMS42NDMsMC4wMTcsMS45NzUsMC43NzVzLTAuMDE1LDEuNjQzLTAuNzc0LDEuOTc1Yy0zLjU3NiwxLjU2MS01LjYyNywzLjM4My01LjYyNyw0Ljk5OSAgICBjMCw0LjQ0NCwxNC4xODgsOS40MTUsMzMuMTc3LDkuNDE1YzE4Ljk4OSwwLDMzLjE3Ny00Ljk3MSwzMy4xNzctOS40MTVjMC0xLjU2Ni0xLjk0NC0zLjM0Mi01LjMzNS00Ljg3MSAgICBjLTAuNzU2LTAuMzQtMS4wOTItMS4yMjktMC43NTEtMS45ODNjMC4zNC0wLjc1NiwxLjIyNy0xLjA5NSwxLjk4My0wLjc1MWM1Ljg3LDIuNjQ2LDcuMTAzLDUuNTk3LDcuMTAzLDcuNjA1ICAgIEM4NC41MjEsODkuMTA5LDY1Ljg4Miw5My40NjEsNDguMzQ0LDkzLjQ2MXoiLz48L2c+PGc+PHBhdGggZD0iTTcxLjc2Niw3MC43OTZjLTAuODI4LDAtMS41LTAuNjcyLTEuNS0xLjVzMC42NzItMS41LDEuNS0xLjVjNS4yNzgsMCwxMy4wNjYtNS4wOTYsMTMuMDY2LTkuNjczICAgIGMwLTQuODQ5LTMuOTQzLTguNzkzLTguNzkxLTguNzkzYy0wLjgyOCwwLTEuNS0wLjY3MS0xLjUtMS41czAuNjcyLTEuNSwxLjUtMS41YzYuNTAyLDAsMTEuNzkxLDUuMjkxLDExLjc5MSwxMS43OTMgICAgQzg3LjgzMiw2NC45OTYsNzcuOTY0LDcwLjc5Niw3MS43NjYsNzAuNzk2eiIvPjwvZz48Zz48cGF0aCBkPSJNNDEuMTM5LDQzLjMwNWMtMC40MjIsMC0wLjg0My0wLjE3OC0xLjEzOS0wLjUyNGMtMi45MDctMy4zOTEtMC41MjQtOC4wOTksMS41NzgtMTIuMjUzICAgIGMxLjk5Ni0zLjk0MywzLjE5MS02LjYxMiwxLjY4NC03LjcyNWMtNS45NDYtNC4zODktNC4zMDItMTQuNTgyLTQuMjI5LTE1LjAxNGMwLjEzOC0wLjgxNiwwLjkxLTEuMzY2LDEuNzI3LTEuMjI5ICAgIGMwLjgxNiwwLjEzNywxLjM2NywwLjkxLDEuMjMxLDEuNzI3Yy0wLjAxNSwwLjA4OC0xLjQwOSw4LjgxLDMuMDUyLDEyLjEwMmMzLjY2MSwyLjcwMiwxLjI5Nyw3LjM3My0wLjc4OCwxMS40OTMgICAgYy0xLjc2LDMuNDc5LTMuNTgxLDcuMDc2LTEuOTc4LDguOTQ3YzAuNTQsMC42MjksMC40NjYsMS41NzYtMC4xNjMsMi4xMTVDNDEuODMyLDQzLjE4Nyw0MS40ODQsNDMuMzA1LDQxLjEzOSw0My4zMDV6Ii8+PC9nPjxnPjxwYXRoIGQ9Ik0zMS4yOTcsMzUuNDAyYy0wLjM4OSwwLTAuNzc5LTAuMTQ5LTEuMDc0LTAuNDQ0Yy0xLjkwNC0xLjkwNy0wLjY3NC01LjYzNiwyLjA5NC0xMS40MzQgICAgYzIuMDMtNC4yNTUtMi40ODItNy4zMjYtMi42NzUtNy40NTVjLTAuNjg4LTAuNDU4LTAuODc3LTEuMzg4LTAuNDIyLTIuMDc3YzAuNDU3LTAuNjg4LDEuMzgxLTAuODgxLDIuMDcyLTAuNDI5ICAgIGMyLjM5NywxLjU3Myw2LjI2Myw1Ljk0OCwzLjczMiwxMS4yNTJjLTMuMDcxLDYuNDMyLTIuODE1LDcuNzgtMi42NjQsOC4wNDFjMC41ODUsMC41ODYsMC41NzgsMS41MjYtMC4wMDksMi4xMTIgICAgQzMyLjA2MSwzNS4yNTgsMzEuNjc5LDM1LjQwMiwzMS4yOTcsMzUuNDAyeiIvPjwvZz48Zz48cGF0aCBkPSJNNTMuMTgzLDM0LjgwNGMtMC4zODksMC0wLjc3OC0wLjE0OS0xLjA3NC0wLjQ0NGMtMS45MDMtMS45MDUtMC42NzQtNS42MzUsMi4wOTMtMTEuNDM1ICAgIGMyLjAzMS00LjI1NS0yLjQ3OS03LjMyNi0yLjY3My03LjQ1NWMtMC42ODgtMC40NTgtMC44NzgtMS4zODgtMC40MjItMi4wNzdjMC40NTctMC42ODgsMS4zNzktMC44ODEsMi4wNzItMC40MjkgICAgYzIuMzk2LDEuNTczLDYuMjYyLDUuOTQ5LDMuNzI5LDExLjI1MmMtMy4wNjgsNi40MzQtMi44MTMsNy43ODEtMi42NjIsOC4wNDFjMC41ODYsMC41ODYsMC41NzcsMS41MjctMC4wMDksMi4xMTIgICAgQzUzLjk0NywzNC42Niw1My41NjUsMzQuODA0LDUzLjE4MywzNC44MDR6Ii8+PC9nPjwvZz48dGV4dCBmb250LWZhbWlseT0iJ0hlbHZldGljYSBOZXVlJywgSGVsdmV0aWNhLCBBcmlhbC1Vbmljb2RlLCBBcmlhbCwgU2Fucy1zZXJpZiIgZm9udC13ZWlnaHQ9ImJvbGQiIGZvbnQtc2l6ZT0iNXB4IiBmaWxsPSIjMDAwMDAwIiB5PSIxMTUiIHg9IjAiPkNyZWF0ZWQgYnkgQmVzdGRlc2lnbm1hcmtldDwvdGV4dD48dGV4dCBmb250LWZhbWlseT0iJ0hlbHZldGljYSBOZXVlJywgSGVsdmV0aWNhLCBBcmlhbC1Vbmljb2RlLCBBcmlhbCwgU2Fucy1zZXJpZiIgZm9udC13ZWlnaHQ9ImJvbGQiIGZvbnQtc2l6ZT0iNXB4IiBmaWxsPSIjMDAwMDAwIiB5PSIxMjAiIHg9IjAiPmZyb20gdGhlIE5vdW4gUHJvamVjdDwvdGV4dD48L3N2Zz4=;clipPath=inset(4.67% 10% 24.67% 10%);" vertex="1" parent="1">
          <mxGeometry x="192.55" y="197" width="72.45" height="80" as="geometry" />
        </mxCell>
        <mxCell id="y5XVMU7300RkX7haZ8rY-18" value="" style="shape=image;verticalLabelPosition=bottom;labelBackgroundColor=default;verticalAlign=top;aspect=fixed;imageAspect=0;image=data:image/svg+xml,PHN2ZyB4bWxuczp4bGluaz0iaHR0cDovL3d3dy53My5vcmcvMTk5OS94bGluayIgeG1sbnM9Imh0dHA6Ly93d3cudzMub3JnLzIwMDAvc3ZnIiB4bWw6c3BhY2U9InByZXNlcnZlIiB2aWV3Qm94PSIwIDAgMTAwIDEyNSIgeT0iMHB4IiB4PSIwcHgiIHZlcnNpb249IjEuMSI+PGc+PGc+PHBhdGggZD0iTTQ4LjI2Nyw1Mi44MTJjLTkuODg3LDAtMjguNTg2LTEuNjM2LTI4LjU4Ni03LjgyNGMwLTQuMjk4LDguNzQyLTYuMjQ2LDE2LjA3Ni03LjEyMmMwLjgyNC0wLjA5OCwxLjU3LDAuNDg5LDEuNjY3LDEuMzExICAgIGMwLjA5OSwwLjgyMy0wLjQ4OSwxLjU2OS0xLjMxMSwxLjY2N2MtMTAuMTI1LDEuMjEtMTMuNDMzLDMuNDkzLTEzLjQzMyw0LjE0NGMwLDEuNDQzLDguNzA1LDQuODI0LDI1LjU4Niw0LjgyNCAgICBjMTYuODgsMCwyNS41ODQtMy4zODEsMjUuNTg0LTQuODI0cy04LjcwNC00LjgyNS0yNS41ODQtNC44MjVjLTAuOTQsMC0xLjg2OCwwLjAxMS0yLjc4MywwLjAzMyAgICBjLTAuODE1LDAuMDU2LTEuNTE2LTAuNjM1LTEuNTM2LTEuNDYzczAuNjM1LTEuNTE2LDEuNDYzLTEuNTM2YzAuOTM4LTAuMDIzLDEuODkxLTAuMDM0LDIuODU1LTAuMDM0ICAgIGM5Ljg4NywwLDI4LjU4NCwxLjYzNSwyOC41ODQsNy44MjVDNzYuODUyLDUxLjE3Niw1OC4xNTQsNTIuODEyLDQ4LjI2Nyw1Mi44MTJ6Ii8+PC9nPjxnPjxwYXRoIGQ9Ik00OC4yNjEsODQuNzkyYy0xNS43NjUsMC0yOC41OTEtMTUuMTM1LTI4LjU5MS0zMy43MzhjMC0xLjQyNCwwLjA3Ni0yLjg1NiwwLjIyNi00LjI1NiAgICBjMC4wODgtMC44MjUsMC44MzQtMS40MTIsMS42NTEtMS4zMzJjMC44MjQsMC4wODgsMS40MiwwLjgyOCwxLjMzMiwxLjY1MWMtMC4xMzksMS4yOTQtMC4yMDksMi42MTktMC4yMDksMy45MzcgICAgYzAsMTYuOTQ5LDExLjQ4LDMwLjczOCwyNS41OTEsMzAuNzM4YzE0LjExMSwwLDI1LjU5LTEzLjc4OSwyNS41OS0zMC43MzhjMC0xLjUxMi0wLjA5Mi0zLjAzNC0wLjI3NC00LjUyMyAgICBjLTAuMTAxLTAuODIyLDAuNDg1LTEuNTcsMS4zMDgtMS42N2MwLjgyMi0wLjEwMywxLjU3LDAuNDg0LDEuNjcxLDEuMzA3YzAuMTk2LDEuNjA5LDAuMjk2LDMuMjUzLDAuMjk2LDQuODg3ICAgIEM3Ni44NTIsNjkuNjU3LDY0LjAyNiw4NC43OTIsNDguMjYxLDg0Ljc5MnoiLz48L2c+PGc+PHBhdGggZD0iTTQ4LjM0NCw5My40NjFjLTE3LjUzOCwwLTM2LjE3Ny00LjM1Mi0zNi4xNzctMTIuNDE1YzAtMi4wNTYsMS4yODktNS4wNjksNy40MjctNy43NDkgICAgYzAuNzYtMC4zMjksMS42NDMsMC4wMTcsMS45NzUsMC43NzVzLTAuMDE1LDEuNjQzLTAuNzc0LDEuOTc1Yy0zLjU3NiwxLjU2MS01LjYyNywzLjM4My01LjYyNyw0Ljk5OSAgICBjMCw0LjQ0NCwxNC4xODgsOS40MTUsMzMuMTc3LDkuNDE1YzE4Ljk4OSwwLDMzLjE3Ny00Ljk3MSwzMy4xNzctOS40MTVjMC0xLjU2Ni0xLjk0NC0zLjM0Mi01LjMzNS00Ljg3MSAgICBjLTAuNzU2LTAuMzQtMS4wOTItMS4yMjktMC43NTEtMS45ODNjMC4zNC0wLjc1NiwxLjIyNy0xLjA5NSwxLjk4My0wLjc1MWM1Ljg3LDIuNjQ2LDcuMTAzLDUuNTk3LDcuMTAzLDcuNjA1ICAgIEM4NC41MjEsODkuMTA5LDY1Ljg4Miw5My40NjEsNDguMzQ0LDkzLjQ2MXoiLz48L2c+PGc+PHBhdGggZD0iTTcxLjc2Niw3MC43OTZjLTAuODI4LDAtMS41LTAuNjcyLTEuNS0xLjVzMC42NzItMS41LDEuNS0xLjVjNS4yNzgsMCwxMy4wNjYtNS4wOTYsMTMuMDY2LTkuNjczICAgIGMwLTQuODQ5LTMuOTQzLTguNzkzLTguNzkxLTguNzkzYy0wLjgyOCwwLTEuNS0wLjY3MS0xLjUtMS41czAuNjcyLTEuNSwxLjUtMS41YzYuNTAyLDAsMTEuNzkxLDUuMjkxLDExLjc5MSwxMS43OTMgICAgQzg3LjgzMiw2NC45OTYsNzcuOTY0LDcwLjc5Niw3MS43NjYsNzAuNzk2eiIvPjwvZz48Zz48cGF0aCBkPSJNNDEuMTM5LDQzLjMwNWMtMC40MjIsMC0wLjg0My0wLjE3OC0xLjEzOS0wLjUyNGMtMi45MDctMy4zOTEtMC41MjQtOC4wOTksMS41NzgtMTIuMjUzICAgIGMxLjk5Ni0zLjk0MywzLjE5MS02LjYxMiwxLjY4NC03LjcyNWMtNS45NDYtNC4zODktNC4zMDItMTQuNTgyLTQuMjI5LTE1LjAxNGMwLjEzOC0wLjgxNiwwLjkxLTEuMzY2LDEuNzI3LTEuMjI5ICAgIGMwLjgxNiwwLjEzNywxLjM2NywwLjkxLDEuMjMxLDEuNzI3Yy0wLjAxNSwwLjA4OC0xLjQwOSw4LjgxLDMuMDUyLDEyLjEwMmMzLjY2MSwyLjcwMiwxLjI5Nyw3LjM3My0wLjc4OCwxMS40OTMgICAgYy0xLjc2LDMuNDc5LTMuNTgxLDcuMDc2LTEuOTc4LDguOTQ3YzAuNTQsMC42MjksMC40NjYsMS41NzYtMC4xNjMsMi4xMTVDNDEuODMyLDQzLjE4Nyw0MS40ODQsNDMuMzA1LDQxLjEzOSw0My4zMDV6Ii8+PC9nPjxnPjxwYXRoIGQ9Ik0zMS4yOTcsMzUuNDAyYy0wLjM4OSwwLTAuNzc5LTAuMTQ5LTEuMDc0LTAuNDQ0Yy0xLjkwNC0xLjkwNy0wLjY3NC01LjYzNiwyLjA5NC0xMS40MzQgICAgYzIuMDMtNC4yNTUtMi40ODItNy4zMjYtMi42NzUtNy40NTVjLTAuNjg4LTAuNDU4LTAuODc3LTEuMzg4LTAuNDIyLTIuMDc3YzAuNDU3LTAuNjg4LDEuMzgxLTAuODgxLDIuMDcyLTAuNDI5ICAgIGMyLjM5NywxLjU3Myw2LjI2Myw1Ljk0OCwzLjczMiwxMS4yNTJjLTMuMDcxLDYuNDMyLTIuODE1LDcuNzgtMi42NjQsOC4wNDFjMC41ODUsMC41ODYsMC41NzgsMS41MjYtMC4wMDksMi4xMTIgICAgQzMyLjA2MSwzNS4yNTgsMzEuNjc5LDM1LjQwMiwzMS4yOTcsMzUuNDAyeiIvPjwvZz48Zz48cGF0aCBkPSJNNTMuMTgzLDM0LjgwNGMtMC4zODksMC0wLjc3OC0wLjE0OS0xLjA3NC0wLjQ0NGMtMS45MDMtMS45MDUtMC42NzQtNS42MzUsMi4wOTMtMTEuNDM1ICAgIGMyLjAzMS00LjI1NS0yLjQ3OS03LjMyNi0yLjY3My03LjQ1NWMtMC42ODgtMC40NTgtMC44NzgtMS4zODgtMC40MjItMi4wNzdjMC40NTctMC42ODgsMS4zNzktMC44ODEsMi4wNzItMC40MjkgICAgYzIuMzk2LDEuNTczLDYuMjYyLDUuOTQ5LDMuNzI5LDExLjI1MmMtMy4wNjgsNi40MzQtMi44MTMsNy43ODEtMi42NjIsOC4wNDFjMC41ODYsMC41ODYsMC41NzcsMS41MjctMC4wMDksMi4xMTIgICAgQzUzLjk0NywzNC42Niw1My41NjUsMzQuODA0LDUzLjE4MywzNC44MDR6Ii8+PC9nPjwvZz48dGV4dCBmb250LWZhbWlseT0iJ0hlbHZldGljYSBOZXVlJywgSGVsdmV0aWNhLCBBcmlhbC1Vbmljb2RlLCBBcmlhbCwgU2Fucy1zZXJpZiIgZm9udC13ZWlnaHQ9ImJvbGQiIGZvbnQtc2l6ZT0iNXB4IiBmaWxsPSIjMDAwMDAwIiB5PSIxMTUiIHg9IjAiPkNyZWF0ZWQgYnkgQmVzdGRlc2lnbm1hcmtldDwvdGV4dD48dGV4dCBmb250LWZhbWlseT0iJ0hlbHZldGljYSBOZXVlJywgSGVsdmV0aWNhLCBBcmlhbC1Vbmljb2RlLCBBcmlhbCwgU2Fucy1zZXJpZiIgZm9udC13ZWlnaHQ9ImJvbGQiIGZvbnQtc2l6ZT0iNXB4IiBmaWxsPSIjMDAwMDAwIiB5PSIxMjAiIHg9IjAiPmZyb20gdGhlIE5vdW4gUHJvamVjdDwvdGV4dD48L3N2Zz4=;clipPath=inset(4.67% 10% 24.67% 10%);" vertex="1" parent="1">
          <mxGeometry x="495" y="198" width="72.45" height="80" as="geometry" />
        </mxCell>
        <mxCell id="y5XVMU7300RkX7haZ8rY-21" value="" style="curved=1;endArrow=async;html=1;rounded=0;strokeWidth=6;endFill=1;endSize=18;" edge="1" parent="1">
          <mxGeometry width="50" height="50" relative="1" as="geometry">
            <mxPoint x="531" y="170" as="sourcePoint" />
            <mxPoint x="531" y="550" as="targetPoint" />
            <Array as="points">
              <mxPoint x="641" y="250" />
              <mxPoint x="641" y="460" />
            </Array>
          </mxGeometry>
        </mxCell>
      </root>
    </mxGraphModel>
  </diagram>
</mxfile>
